<svg width="2824" height="1881" viewBox="0 0 2824 1881" fill="none" xmlns="http://www.w3.org/2000/svg">
<path fill-rule="evenodd" clip-rule="evenodd" d="M701.237 1818.33C704.907 1803.5 699.507 1791.67 684.005 1782.93C682.67 1779.4 652.708 1767.96 628.899 1751.16C607.51 1736.06 591.995 1715.34 591.345 1714.19C591.345 1714.19 586.535 1703.01 585.987 1697.96C583.358 1673.74 584.879 1657.86 583.255 1650.32C594.195 1648.89 621.09 938.382 616.74 914.834C623.864 913.268 631.419 911.617 638.211 907.599C638.752 907.46 637.862 905.886 637.887 905.59C654.925 872.138 628.788 758.391 612.406 726.899C625.415 726.561 642.55 724.791 650.604 713.927C654.417 712.673 656.821 710.487 658.671 706.974C660.802 703.628 662.78 700.117 664.56 696.519C673.228 678.511 678.575 658.517 675.684 638.677C676.235 638.502 679.073 638.484 679.214 637.69C679.492 632.812 678.597 628.515 677.132 623.908C662.247 572.021 644.33 520.936 620.646 472.087C608.778 445.941 584.223 436.4 558.781 426.585C546.542 421.775 534.297 416.225 521.523 413.075C521.362 412.181 522.125 409.462 520.451 409.684C518.383 410.115 518.791 413.439 518.025 415.305C488.487 391.124 507.218 378.663 489.408 365.42C470.979 355.853 448.504 355.464 428.184 357.535C420.688 357.752 414.69 361.131 412.922 368.677C406.479 384.291 391.38 395.782 374.908 399.305C373.547 396.882 369.805 389.933 367.709 392.127C343.92 392.939 307.851 401.673 285.585 408.206C263.232 413.916 240.62 424.338 234.772 448.628C224.161 491.91 241.042 669.789 268.732 704.045L269.632 704.06C274.541 709.084 281.214 712.766 288.775 715.234C288.605 731.249 283.558 746.885 281.046 762.547C275.391 790.952 271.044 819.387 264.744 847.943C264.716 851.125 252.73 894.662 264.547 885.932C266.986 887.132 269.974 888.438 272.601 889.559C260.046 918.174 254.302 964.341 255.192 999.69C255.414 1020.74 254.544 1039.18 249.822 1060.74C214.89 1243.39 184.091 1651.92 183.367 1657.38C182.702 1662.6 187.122 1690.94 183.367 1698.41C180.035 1705.05 165.823 1701.13 163.104 1703.69C156.043 1715.19 159.276 1722.52 153.484 1734C150.514 1736.66 143.873 1742.47 141.695 1746.56C137.284 1750.8 64.2416 1798.74 67.2021 1806.01C67.2021 1806.01 66.869 1809.5 66.7571 1810.26C60.5298 1846.5 70.8994 1846.2 104.45 1851.53C153.46 1860.17 190.088 1843.54 231.508 1821.31C245.273 1812.03 264.836 1794.31 258.468 1773.32C258.293 1772.03 254.516 1749.95 253.018 1738.74C253.018 1738.74 257.077 1729.76 241.366 1730.88C243.95 1728.05 249.626 1691.31 247.69 1686.45C246.46 1673.93 248.369 1662.56 247.765 1649.68C254.346 1650.16 369.888 1102.35 442.361 1068.31C442.809 1071.94 441.94 1078.72 446.769 1079.4C469.186 1254.29 523.082 1646.1 525.557 1646.79C521.843 1666.76 521.955 1713.06 521.886 1732.89C521.318 1733.42 518.708 1735.75 518.288 1736.31C518.201 1736.17 516.502 1737.86 516.415 1737.91L516.185 1737.38C508.551 1754.6 497.425 1772.33 507.259 1789.2C499.96 1788.67 501.132 1802.71 500.805 1809.18C504.962 1821.83 623.139 1855.95 649.548 1857.57C658.225 1859.09 698.634 1846.23 706.41 1844.39C716.486 1842.5 706.602 1823.77 701.237 1818.33Z" fill="#D08B5B"/>
<path fill-rule="evenodd" clip-rule="evenodd" d="M519.056 1735.59C516.815 1743.98 520.887 1748.17 531.272 1748.17C546.85 1748.17 556.725 1724.23 564.429 1721.48L567.425 1720.4C571.928 1718.74 579.568 1715.88 590.344 1711.82C590.661 1712.59 590.994 1713.38 591.345 1714.19C591.995 1715.34 607.51 1736.06 628.9 1751.16C652.708 1767.96 682.671 1779.4 684.005 1782.93C699.507 1791.67 704.907 1803.5 701.237 1818.33C706.602 1823.77 716.486 1842.5 706.41 1844.39C698.634 1846.23 658.225 1859.09 649.548 1857.57C623.14 1855.95 504.962 1821.83 500.805 1809.18L500.831 1808.58C501.069 1801.88 500.179 1788.68 507.259 1789.2C497.621 1772.67 508.114 1755.31 515.723 1738.41L516.185 1737.38L516.415 1737.91C516.502 1737.86 518.201 1736.17 518.288 1736.31C518.396 1736.17 518.646 1735.91 518.968 1735.59L519.056 1735.59ZM205.982 1720.11L206.089 1720.47C207.885 1726.67 212.799 1748.17 218.598 1748.17C222.542 1748.17 227.409 1745.72 233.198 1740.83L233.866 1740.22C238.949 1735.56 243.052 1732.42 246.176 1730.8C252.979 1731.13 255.26 1733.78 253.018 1738.74L253.208 1740.14C254.812 1751.69 258.3 1772.08 258.468 1773.32C264.836 1794.31 245.273 1812.03 231.508 1821.31C190.088 1843.54 153.46 1860.17 104.45 1851.53L101.492 1851.06C70.2921 1846.18 60.7166 1845.41 66.7571 1810.26L66.7991 1809.94C66.9354 1808.81 67.2021 1806.01 67.2021 1806.01C64.2416 1798.74 137.284 1750.8 141.695 1746.56C143.873 1742.47 150.514 1736.66 153.484 1734C159.276 1722.52 156.043 1715.19 163.104 1703.69C165.014 1701.89 172.594 1703.29 178.091 1701.98C187.362 1703.5 204.334 1714.61 205.982 1720.11Z" fill="white"/>
<path fill-rule="evenodd" clip-rule="evenodd" d="M374.21 398.063L374.909 399.305C391.679 448.239 419.167 474.574 457.371 478.309C495.575 482.044 515.284 469.791 516.499 441.549L520.746 409.676C522.03 409.806 521.372 412.239 521.523 413.075C534.297 416.225 546.542 421.775 558.782 426.585L562.59 428.057C586.647 437.396 609.371 447.248 620.646 472.087C644.33 520.936 662.247 572.021 677.132 623.908C678.597 628.515 679.492 632.813 679.214 637.69C679.073 638.484 676.236 638.502 675.684 638.677C678.575 658.517 673.228 678.511 664.56 696.519C662.78 700.117 660.802 703.628 658.671 706.974C656.821 710.487 654.417 712.673 650.605 713.927C642.551 724.791 625.416 726.561 612.406 726.899C628.788 758.391 654.926 872.138 637.887 905.59C637.862 905.886 638.232 914.432 637.69 914.571C630.898 918.589 618.674 920.908 611.55 922.474L598.784 924.298C599.244 927.437 617.319 929.8 617.076 947.867L264.438 958.34C266.956 933.22 266.781 916.372 274.772 898.158L265.046 894.511C262.722 893.51 266.638 886.961 264.547 885.932C252.73 894.662 264.716 851.125 264.744 847.943C271.044 819.387 275.391 790.952 281.046 762.547C283.558 746.885 288.605 731.249 288.775 715.234C281.371 712.818 274.82 709.237 269.942 704.372L269.633 704.06L268.732 704.045C241.042 669.789 224.161 491.91 234.772 448.628C240.62 424.338 263.233 413.916 285.585 408.206L286.937 407.812C309.289 401.326 344.396 392.923 367.709 392.127C369.512 390.24 372.534 395.12 374.21 398.063ZM404.06 589.46C385.895 589.46 366.591 591.604 346.146 595.892L342.934 600.414L346.146 627.653C358.723 626.339 371.971 628.101 385.89 632.939L386.553 633.171C400.715 638.185 410.837 642.034 416.92 644.717L438.969 663.281L431.898 696.429L433.604 696.508C461.219 697.75 476.74 696.363 480.165 692.348C483.66 688.25 485.211 684.104 484.817 679.91L484.139 678.29C473.189 652.037 468.404 635.158 469.784 627.653C471.193 619.995 471.193 613.994 469.784 609.648L468.25 608.849C443.258 595.923 421.861 589.46 404.06 589.46Z" fill="#B61922"/>
<path fill-rule="evenodd" clip-rule="evenodd" d="M417.84 364.426C421.665 364.307 422.395 369.121 419.781 371.116L419.673 371.196C417.444 372.777 416.398 374.191 415.188 376.714C409.29 392.325 392.657 401.279 376.388 397.964C382.039 408.505 385.833 418.706 391.49 429.069C417.535 482.724 503.069 500.178 513.299 426.561C497.626 423.533 488.338 388.286 498.395 377.771L498.666 379.051C501.565 392.856 503.548 406.99 514.013 417.399C514.331 417.492 514.636 417.52 514.936 417.52C515.335 415.63 515.795 413.761 516.367 411.928C517.759 407.454 524.73 408.296 524.534 413.135C545.405 419.495 565.463 428.503 585.426 437.206C602.023 444.446 615.593 457.397 623.324 473.797C645 518.657 661.551 566.012 675.981 613.649C676.948 620.087 687.737 644.013 679.032 646.313C681.168 666.023 675.706 685.959 667.269 703.658C663.354 710.308 660.59 719.527 652.725 722.3C644.559 732.558 629.627 735.219 617.196 735.944C633.916 775.305 656.633 875.568 641.271 914.681C642.634 921.097 624.931 924.145 620.195 925.611C624.012 948.426 623.179 971.927 621.533 994.906C606.116 1190.9 603.19 1387.97 619.41 1584.02C620.365 1596.24 621.393 1608.46 622.48 1620.67L623.139 1627.99C624.002 1637.74 624.735 1647.45 624.511 1657.28C624.438 1660.69 621.611 1662.74 618.784 1662.92C609.291 1668.98 596.539 1669.03 585.556 1670.49C587.496 1681.08 588.583 1697.6 591.978 1706.5C599.046 1704.66 603.601 1711.25 596.557 1714.97C605.227 1719.78 609.688 1728.99 616.629 1735.45C635.695 1727.71 639.245 1739.28 623.665 1741.92C627.901 1745.46 632.398 1748.72 637.046 1751.83L637.377 1751.78C642.873 1750.95 653.235 1746.4 655.837 1752.42C657.005 1756.78 651.626 1758.16 647.729 1758.69C651.187 1760.87 654.656 1763.04 658.126 1765.21C661.162 1763.87 664.174 1762.2 667.27 1761.13C674.892 1759.43 675.55 1769.32 665.603 1769.88C671.834 1774.48 680.435 1771.83 684.417 1778.33C698.99 1784.21 705.878 1801.98 702.477 1816.18C707.593 1820.74 711.185 1827.56 711.601 1834.41C712.587 1841.75 706.743 1848.66 698.827 1850.59C689.911 1853.56 680.866 1856.27 671.845 1858.82L670.9 1859.14C663.465 1861.68 655.346 1863.95 647.614 1863.5C601.76 1860.77 540.613 1841.93 503.912 1818.49C494.758 1811.61 493.157 1794.6 505.756 1789.15C499.95 1778.63 502.724 1770.98 505.185 1759.52C506.894 1752.04 509.214 1744.37 513.414 1737.45C513.787 1736.84 514.683 1737.02 514.733 1737.63C515.282 1745.45 514.553 1753.45 513.97 1761.33L513.906 1762.2C513.384 1769.47 512.207 1772.14 514.178 1779.02C518.894 1796.56 564.365 1805.33 582.234 1812.56C596.261 1816.91 610.503 1820.8 624.944 1824.22L626.003 1824.45C638.194 1827.13 650.747 1831.19 663.587 1829.08C670.246 1824.24 680.24 1825.6 686.782 1820.06C696.652 1809.4 688.892 1793.78 681.977 1784.1C675.29 1786.23 669.574 1780.49 664.651 1777.45L664.469 1777.34C659.442 1774.16 654.428 1776.39 649.393 1773.22L648.256 1773.43C629.76 1776.96 615.44 1780.98 644.939 1770.43C640.08 1767.39 635.209 1764.33 630.489 1761.11C620.801 1762.28 610.187 1767.36 601.182 1767.83C607.242 1762.18 615.509 1759.05 623.299 1755.95C618.764 1752.5 614.448 1748.82 610.588 1744.76L606.9 1745.68C584.247 1751.31 575.341 1752.94 605.84 1739.22C599.841 1732.56 598.867 1722.69 592.272 1716.43C581.667 1718.65 571.922 1723.32 563.285 1729.34C559.792 1731.84 557.161 1734.96 554.394 1738.09C541.285 1754.96 520.976 1757.56 514.771 1735.68C514.664 1735.24 515.368 1734.96 515.566 1735.34L515.588 1735.39C518.556 1742.11 528.131 1747.56 536.128 1743.38L536.37 1743.25C544.19 1739.18 547.823 1730.86 553.984 1725.19C562.297 1717.69 572.718 1712.66 583.47 1708.88C580.863 1699.35 579.984 1682.01 580.28 1670.84C562.176 1671.69 543.954 1670.82 526.17 1667.38C529.019 1688.15 527.147 1715.19 528.456 1733.71C530.349 1739.93 518.833 1743.81 517.609 1737.62C516.932 1717.58 518.892 1688.67 521.945 1666.3L520.668 1665.99C519.462 1665.69 518.195 1665.33 517.161 1664.74C505.748 1666.03 508.861 1637.03 506.945 1628.88C494.069 1449.01 466.947 1270.76 443.897 1092.07C440.7 1090.85 440.133 1086.93 439.605 1083.65C410.559 1103.31 404.771 1142.6 391.769 1173.06C334.987 1330.76 309.616 1497.14 270.262 1659.53L270.478 1659.59C270.633 1659.64 270.634 1659.66 270.311 1659.63L270.237 1659.63V1659.64C272.669 1659.96 274.584 1662.52 273.1 1664.89C268.67 1673.84 256.388 1670.67 248.304 1670.1C249.089 1683.87 246.14 1713.59 248.009 1725.86C257.981 1726.04 258.615 1737.02 259.936 1743.55L260.038 1744.22C261.8 1755.36 267.723 1776.26 263.298 1785.28C270.138 1793.42 265.218 1804.47 258.123 1810.03C250.525 1815.64 241.067 1818.93 232.478 1823.26C192.053 1839.59 152.943 1871.08 103.405 1858.96L101.249 1858.51C66.5293 1851.17 56.5541 1847.91 63.4492 1813.55C60.6176 1806.57 60.5988 1798.92 64.583 1792.74C71.6881 1783.62 83.6261 1778.63 93.1252 1771.71C109.215 1760.9 126.339 1751.44 142.053 1740.19C141.469 1739.68 142.28 1739.49 142.757 1739.58C153.847 1730.9 152.81 1715.86 160.547 1705.14C162.482 1699.61 172.253 1698.27 178.688 1699.03C176.677 1688.73 186.498 1641.84 187.745 1674.96L187.745 1675.44C187.769 1680.55 188.606 1697.62 187.101 1700.96C208.459 1707.49 213.064 1728.01 217.635 1744.58L217.929 1744.66C219.388 1745.03 221.343 1745.34 222.072 1746.77C228.94 1742.4 230.86 1733.81 237.511 1729.19C235.646 1727.73 235.547 1724.94 236.499 1722.78C239.597 1711.43 241.454 1682.52 246.134 1669.83C224.147 1666.54 201.747 1664.86 180.274 1658.88C177.483 1661.62 171.757 1660.65 171.982 1655.7C178.632 1547.88 190.071 1440.4 204.489 1333.36C216.345 1233.16 237.201 1134.24 251.728 1034.57L251.851 1020.89C252.243 979.762 253.341 938.024 268.675 899.307C267.325 898.717 265.988 898.11 264.669 897.471C248.042 904.363 261.142 862.484 261.753 854.937C269.924 811.178 279.549 767.427 285.686 723.395C279.253 721.068 273.313 717.767 268.358 712.97C238.317 688.515 220.902 490.465 231.82 450.643C237.519 425.594 261.671 413.288 284.689 407.626L288.089 406.665C313.796 399.434 339.95 392.88 366.716 391.27C367.669 390.406 370.472 390.654 370.84 391.375C372.516 392.385 374.108 394.356 375.453 396.439C412.605 392.169 402.556 367.884 417.84 364.426ZM506.72 1790.74C501.519 1802.55 508.43 1811.54 520.017 1816.5C560.143 1835.11 604.94 1850.06 650.928 1852.91C664.961 1849.52 678.859 1843.91 693.078 1840.44L693.692 1840.33C698.697 1839.41 701.048 1838.49 700.619 1833.29L700.801 1831.19C701.122 1827.45 701.393 1823.72 701.133 1819.99C696.759 1830.45 683.665 1836.2 672.187 1838.31C653.987 1846.95 633.604 1838.17 615.723 1834.47C586.68 1825.64 523.846 1811.76 506.72 1790.74ZM254.633 1790.98L254.033 1791.17C248.824 1792.78 243.527 1794.75 237.689 1793.3C211.61 1802.14 186.226 1812.17 161.033 1822.61C133.85 1835.62 90.0796 1850.76 66.5234 1819.3C69.91 1835.8 65.1222 1841.44 87.6128 1845.56C123.299 1857.19 151.973 1851.24 181.585 1835.34C203.281 1824.79 226.616 1816.4 247.616 1804.94L247.899 1804.74C252.03 1801.79 257.014 1796.41 254.633 1790.98ZM200.468 1719.97C193.659 1707.4 175.336 1700.5 161.708 1705.14C160.322 1717.25 163.914 1730.81 156.221 1741.33C163.033 1742.53 169.823 1743.9 176.603 1745.33L182.807 1746.64C185.852 1747.31 189.726 1748.45 189.218 1751.68C188.655 1755.25 183.97 1754.16 180.852 1753.26L179.644 1752.9C170.888 1750.33 162.146 1747.7 153.501 1744.75C148.944 1749.77 142.827 1753.7 136.894 1757.5L139.355 1757.78C147.976 1758.75 156.68 1759.63 165.198 1761.37C168.919 1762.48 168.116 1767.55 164.308 1767.14C154.139 1764.49 143.997 1761.49 133.653 1759.59C128.598 1762.93 123.565 1766.29 118.497 1769.62C128.465 1771.06 138.477 1771.19 148.44 1772.04C154.89 1772.64 154.888 1781.45 148.439 1780.94C136.801 1779.88 125.17 1776.43 114.089 1772.52L108.249 1776.36C101.433 1780.84 94.6014 1785.31 87.7021 1789.68C83.5508 1792.32 78.1891 1794.84 75.2881 1798.67C66.1271 1813.46 89.0182 1827.6 104.487 1827.37C127.981 1827.62 147.548 1815.42 168.128 1808.12C179.512 1805.3 237.391 1776.32 242.658 1783.95C245.969 1782.36 250.574 1781.79 252.959 1779.17C253.441 1767.05 250.889 1754.36 248.747 1742.14C248.31 1740 247.267 1737.44 247.15 1735.25C237.509 1738.81 234.764 1752.27 222.073 1751.12C220.087 1754.3 213.97 1752.82 211.21 1750.3C208.207 1747.56 207.83 1743.7 207.113 1740.26L206.781 1738.68C205.433 1732.34 203.818 1725.85 200.468 1719.97ZM486.159 692.348L484.608 692.74C468.817 696.691 452.297 699.55 436.068 698.489C433.263 709.103 434.725 734.352 423.314 738.386C419.416 739.855 413.55 738.663 411.762 734.682C388.159 734.263 364.391 732.153 340.787 730.75C323.018 729.352 304.583 729.406 287.478 724.013C289.551 734.449 290.264 744.695 289.105 755.368C285.114 800.889 271.98 845.239 267.577 890.564L267.374 892.724L267.247 892.651C267.247 892.736 267.241 892.821 267.234 892.906C268.517 893.277 269.799 893.666 271.076 894.061C271.532 893.83 272.153 894.055 272.48 894.493C366.484 923.732 466.263 936.431 564.237 923.562C581.395 921.421 598.429 918.42 615.344 914.863C615.196 913.35 617.504 912.954 617.909 914.383C621.663 913.728 625.416 913.012 629.15 912.529C628.699 911.258 628.62 909.885 629.083 908.645C636.364 886.797 633.037 861.887 630.74 839.229C627.812 804.441 620.511 770.317 614.614 735.999C586.697 734.73 558.947 730.173 530.894 730.744C527.939 738.404 517.638 744.837 509.573 740.458C503.878 737.382 502.191 730.677 499.906 725.136C495.387 714.181 490.773 703.264 486.159 692.348ZM367.869 392.308C338.553 400.969 308.518 407.154 279.469 416.766C255.326 422.782 238.846 437.93 237.828 463.763C235.836 519.102 241.903 574.721 251.06 629.256L251.538 631.719C256.619 658.001 261.173 684.744 270.768 709.795C284.776 716.308 300.68 718.162 316.004 718.916C338.367 720.054 360.729 721.223 383.072 722.686L400.591 723.823C405.674 724.152 412.741 723.282 416.56 727.234C416.899 727.792 417.587 727.722 418.111 728.067L418.213 728.142C418.771 728.521 419.333 729.441 420.136 729.263C421.443 728.857 421.945 726.251 422.251 725.007L422.28 724.894C423.981 718.237 425.214 711.437 426.785 704.744C430.367 691.573 431.91 677.652 437.354 665.046C429.561 660.072 422.221 654.387 415.927 647.64L408.338 644.968C390.181 638.596 371.82 632.424 352.896 628.606C352.443 632.759 346.481 635.134 344.258 630.787C340.573 619.713 339.89 607.688 337.349 596.274C331.581 562.218 324.727 528.287 320.737 493.961C331.737 524.363 337.436 561.679 345.843 594.536C346.232 594.31 346.771 594.441 346.788 594.979C376.553 583.723 409.598 584.181 438.972 596.127C446.33 599.078 453.803 601.728 461.122 604.772C463.622 606.183 468.601 606.097 469.441 609.183C470.34 607.088 471.548 605.127 473.153 603.803C473.654 602.771 479.343 600.928 479.899 602.971C513.269 607.551 545.715 622.069 580.052 619.618C575.988 604.784 576.469 588.764 576.197 573.444L576.28 571.72C576.986 556.628 577.498 537.949 582.613 525.53C579.34 556.795 581.717 588.113 585.712 619.088C609.93 615.964 598.779 629.812 582.648 629.292C550.095 631.637 520.053 617.24 490.095 606.748C473.731 600.207 471.877 605.747 472.606 621.295C472.621 641.538 481.788 660.013 490.092 677.974L493.823 686.363C500.024 700.321 506.139 714.19 512.164 728.316C538.484 719.588 568.117 724.376 595.384 725.967C616.19 728.58 631.129 727.652 648.731 715.617C655.08 703.487 663.445 691.983 666.716 678.301C670.51 665.761 671.773 652.626 672.88 639.631L671.883 635.995C659.055 589.34 644.858 542.912 625.46 498.474L624.41 496.025C617.833 480.635 611.153 464.486 597.847 453.706C575.517 437.218 547.9 429.905 524.427 415.234L524.277 416.307C521.895 433.136 517.78 450.582 507.008 464.123C487.106 488.562 449.528 489.249 424.058 473.377C397.562 458.727 381.666 431.451 373.933 402.94L373.842 402.627C373.118 400.086 371.102 392.392 367.869 392.308ZM439.824 666.588C439.808 675.55 438.04 684.384 436.843 693.231C450.618 690.513 464.351 688.617 477.899 684.942C464.702 679.956 451.878 673.949 439.824 666.588ZM406.657 594.305C386.571 590.373 366.007 592.725 346.146 595.892C348.304 605.924 350.769 615.866 352.83 625.912C359.942 625.586 427.412 637.534 419.797 647.126C429.756 652.452 439.191 658.713 449.105 664.154C459.075 669.626 469.456 674.33 480.165 678.15L479.6 676.893C470.384 656.302 461.772 633.131 468.874 610.627C459.325 614.46 446.289 606.226 437.036 603.146C427.215 599.204 417.1 596.095 406.657 594.305ZM262.055 514.573C262.122 510.816 273.724 521.587 275.238 522.706L276.154 523.534C287.288 533.638 298.287 544.754 304.49 558.618C304.944 572.244 284.637 539.235 281.821 537.219C275.679 529.313 268.195 522.446 262.055 514.573ZM583.117 546.646C579.978 547.679 588.546 537.032 591.887 537.809C593.216 537.615 594.373 539.542 592.897 540.205L592.164 540.528C588.736 542.015 585.231 543.285 583.117 546.646Z" fill="black"/>
<path fill-rule="evenodd" clip-rule="evenodd" d="M485.457 109.695C519.974 109.695 563.205 149.069 575.858 165.824C586.496 179.911 584.991 252.483 584.991 295.533C584.991 304.537 580.921 321.577 579.443 330.19C574.029 361.749 550.441 388.216 503.755 388.216C465.741 388.216 436.488 376.176 408.199 345.38C401.745 338.354 370.226 363.506 363.78 354.448C346.943 354.448 332.865 197.137 365.922 149.952C398.979 102.768 450.94 109.695 485.457 109.695Z" fill="#D08B5B"/>
<path fill-rule="evenodd" clip-rule="evenodd" d="M381.712 120.775C401.658 102.629 428.229 93.8996 455.037 94.544C468.922 94.8783 482.758 97.5227 495.87 102.052C502.43 104.325 508.782 107.292 514.855 110.647C517.044 111.854 519.061 113.267 521.003 114.769L521.487 115.146H521.493C526.703 117.018 531.354 120.38 535.572 124.313C544.028 123.638 552.551 124.398 560.727 127.006C572.107 130.641 582.642 137.298 590.041 146.751C598.658 157.756 601.523 171.105 600.501 184.885L600.312 187.226C599.301 199.399 597.49 215.056 587.5 223.055C586.74 223.663 585.901 224.125 585.031 224.404C591.469 235.432 596.752 247.675 599.913 260.039C611.98 307.267 602.703 356.52 588.193 402.039C587.001 405.79 581.329 408.283 578.442 404.617C573.287 398.064 565.797 393.067 557.372 392.131C552.174 391.553 547.001 392.599 542.089 390.24C540.162 389.31 538.302 387.79 536.965 385.942C528.673 389.085 519.743 390.568 510.885 390.204C496.351 389.608 480.813 384.574 470.813 373.535C469.208 371.763 468.801 369.773 469.171 367.98C470.425 367.532 471.712 367.199 473.039 366.991C485.72 374.464 499.698 379.458 514.72 379.772C523.4 379.953 531.867 378.739 538.906 373.319C540.428 372.146 541.829 370.847 543.124 369.451C557.839 359.985 568.214 343.906 573.147 326.684C577.743 310.623 577.177 293.9 575.597 277.425L574.763 268.732C573.547 255.973 572.42 243.175 572.104 230.362L572.199 230.357C575.307 230.156 575.329 225.291 572.199 225.493C564.103 226.018 556.067 224.689 547.996 225.268C547.928 221.452 547.653 217.653 546.532 213.973C545.892 211.87 542.23 211.456 541.842 213.973C541.323 217.341 541.134 220.69 541.077 224.073C528.997 223.912 516.929 222.896 504.848 223.314C502.619 220.937 501.91 216.722 500.867 213.79C500.715 213.359 500.563 212.933 500.405 212.501C499.489 216.691 498.191 220.789 496.482 224.8L493.52 224.811C476.708 224.889 459.555 225.392 443.138 228.883C441.997 228.007 441.318 226.479 441.135 225.091C439.944 216.06 438.244 207.269 435.233 198.663L434.802 197.449C434.766 197.348 434.729 197.241 434.69 197.129C432.471 200.711 429.823 204.05 426.935 207.16C425.233 208.993 423.448 210.745 421.616 212.448C419.837 214.424 417.998 216.369 416.216 218.351C416.286 218.712 416.346 219.078 416.396 219.45C416.941 223.563 416.997 227.734 416.598 231.862C415.876 239.325 413.769 246.517 410.384 253.169L410.277 253.836C409.763 256.953 409.032 260.175 407.324 262.523C409.455 264.911 411.097 267.763 412.049 270.932C412.896 273.754 408.993 276.199 406.969 273.89C405.361 272.056 403.574 270.538 401.612 269.327C401.488 269.495 401.264 269.578 401.013 269.438C395.548 266.404 386.265 267.322 380.806 270.179C374.016 273.729 371.366 281.018 372.12 288.404C372.843 295.462 375.931 303.711 381.919 307.328C384.667 308.988 386.806 309.128 389.724 308.331C390.657 308.078 391.814 307.301 392.311 306.915L392.799 306.523C394.712 305.011 396.494 303.976 398.752 303.936C401.061 303.216 403.382 304.215 404.266 306.637L404.32 306.793C404.734 308.027 405.487 309.577 405.323 311.462C405.153 313.48 404.229 315.316 402.849 316.793C402.612 317.049 402.357 317.304 402.095 317.541C425.864 343.273 428.916 383.371 416.727 415.517C416.199 416.927 415.633 418.319 415.044 419.699C413.007 424.428 405.165 422.963 404.168 418.276C403.87 416.872 403.542 415.474 403.183 414.088C402.524 411.527 401.769 408.989 400.917 406.489L400.594 405.553C399.87 403.486 399.196 401.401 398.466 399.334L398.393 399.098C398.366 399.004 398.335 398.897 398.302 398.775L397.068 401.468L393.317 409.596C391.562 413.388 385.985 411.327 385.778 407.672L385.773 407.547C385.755 406.872 385.73 406.204 385.688 405.541C385.42 400.574 384.563 395.748 383.202 391.024L382.71 391.635C375.395 400.679 366.809 409.156 355.031 411.243C352.077 411.766 348.734 408.678 350.764 405.693C351.603 404.459 352.411 403.194 353.177 401.912C352.515 401.602 351.889 401.28 351.311 400.951C346.843 398.441 343.123 394.866 340.047 390.811C333.524 382.216 331.189 371.395 330.618 360.805C330.01 349.614 330.995 337.814 334.053 327.018C335.378 322.349 337.171 317.869 339.244 313.523C339.098 313.134 338.958 312.745 338.819 312.355C336.582 306.118 334.746 299.742 333.22 293.292C330.144 280.27 328.49 266.836 328.29 253.456C327.925 229.486 332.059 205.134 340.77 182.781C349.767 159.729 363.299 137.523 381.712 120.775ZM370.509 330.343C368.857 327.742 364.723 330.086 366.257 332.706L366.314 332.799C368.934 336.927 370.162 341.62 371.67 346.222C372.636 349.182 377.335 347.918 376.357 344.927L376.033 343.928C374.532 339.262 373.164 334.519 370.509 330.343ZM384.898 280.69L385.995 280.159C389.457 278.507 392.491 277.381 396.582 278.824C402.059 280.751 407.925 286.884 404.223 292.836C402.861 295.03 400.442 295.906 397.949 295.389C393.748 294.518 392.663 290.734 390.531 287.628L390.164 287.102C388.864 285.222 387.22 282.624 385.056 281.887C384.563 281.717 384.357 280.951 384.898 280.69ZM387.985 154.332L388.338 154.015C390.691 151.936 387.238 148.507 384.898 150.574C374.186 160.039 370.466 174.854 364.91 187.48C363.664 190.319 367.852 192.799 369.11 189.936C374.41 177.888 377.929 163.475 387.985 154.332ZM516.703 150.191C513.904 148.93 511.456 153.003 514.146 154.344L514.247 154.392C523.706 158.666 527.73 168.343 531.585 177.328C532.813 180.197 537.001 177.723 535.785 174.878L535.09 173.266C531.068 164.007 526.378 154.569 516.703 150.191ZM531.53 144.343C528.563 143.316 527.293 148.009 530.235 149.036C538.253 151.827 543.755 157.845 548.393 164.726C550.132 167.304 554.344 164.872 552.588 162.27C547.202 154.283 540.806 147.577 531.53 144.343Z" fill="black"/>
<path fill-rule="evenodd" clip-rule="evenodd" d="M535.599 331.66C539.441 330.765 542.459 334.018 541.704 337.765C540.904 341.731 536.64 343.09 533.064 342.965C529.01 342.825 524.959 341.988 520.885 341.819C516.699 341.647 512.498 341.615 508.31 341.728C504.437 341.833 500.461 342.516 496.618 341.903C495.121 341.664 495.263 339.688 496.237 338.986C499.128 336.901 502.875 336.051 506.283 335.176C509.758 334.284 513.31 333.601 516.873 333.184C520.486 332.761 524.129 332.55 527.765 332.509C529.42 332.49 531.45 332.858 533.064 332.56C533.887 332.407 534.724 331.864 535.599 331.66ZM524.508 280.144C529.098 282.934 536.093 289.441 531.155 296.358C525.342 302.458 516.972 295.464 512.848 292.302C509.024 289.85 504.727 296.155 508.275 299.017C538.077 321.081 550.171 280.874 526.83 276.863C524.26 276.421 523.305 279.281 524.508 280.144ZM491.222 259.308C497.363 258.287 498.437 267.04 492.351 267.652C491.074 267.78 489.804 267.892 488.536 268.003C488.66 268.4 488.742 268.808 488.787 269.227C488.845 269.583 488.888 269.961 488.926 270.394C489.119 272.547 487.592 274.787 485.808 275.831C483.953 276.916 481.292 277.061 479.451 275.831C478.501 275.197 477.553 274.481 477.029 273.432C476.327 272.354 475.944 271.107 475.905 269.826C473.106 270.553 470.256 271.536 467.428 272.057C467.532 272.16 467.634 272.268 467.733 272.388C467.809 272.48 467.705 272.652 467.595 272.567L466.177 272.253C465.741 272.31 465.304 272.357 464.869 272.384L464.879 272.346C464.152 272.333 463.556 271.473 464.207 270.785C466.705 268.145 470.603 266.39 474.156 264.923L477.58 263.519C481.958 261.74 486.58 260.08 491.222 259.308ZM540.621 262.016C544.642 261.557 548.625 261.739 552.653 261.985C559.433 262.398 556.59 272.285 551.148 270.002C551.203 270.364 551.218 270.726 551.176 271.063C550.963 272.801 550.397 274.27 548.802 275.204C547.32 276.071 545.442 276.068 543.961 275.204C542.374 274.279 541.659 272.975 541.254 271.28C540.94 269.967 541.066 268.868 541.247 267.567C541.307 267.136 541.495 266.734 541.755 266.373C541.376 266.278 540.996 266.186 540.616 266.1C537.232 265.331 533.894 265.485 530.52 264.998C530.16 264.945 530.103 264.364 530.418 264.217C533.45 262.792 537.304 262.394 540.621 262.016ZM490.602 231.48C492.923 230.595 495.839 232.068 497.023 234.094C498.368 236.393 497.794 239.047 496.134 240.984C493.588 243.956 488.74 245.787 485.167 247.483L484.88 247.62C481.211 249.39 477.441 251.016 473.62 252.432C469.863 253.826 465.954 254.918 462.059 255.856C460.005 256.35 457.907 256.758 455.808 257.016C454.151 257.219 452.873 256.764 451.287 256.764C451.056 256.765 450.983 256.458 451.172 256.34C452.654 255.409 453.754 254.183 455.369 253.32C457.052 252.422 458.741 251.539 460.436 250.665C463.862 248.899 467.162 246.933 470.468 244.954C473.952 242.868 477.358 240.672 480.67 238.321C483.91 236.02 486.897 232.894 490.602 231.48ZM531.962 229.589C534.86 229.026 537.731 230.398 538.589 233.352C539.411 236.181 538.551 236.788 540.745 238.813C542.494 240.427 544.379 241.867 546.282 243.285L549.083 245.368C554.157 249.123 559.272 252.674 565.105 255.208C565.598 255.422 565.313 256.154 564.845 256.164C555.572 256.343 546.681 255.087 538.31 250.936C534.4 248.997 530.472 246.544 528.206 242.673C525.582 238.19 525.659 230.811 531.962 229.589Z" fill="black"/>
<path d="M979.729 398.082V464H790.275V398.082H979.729ZM820.793 108.531V464H735.1V108.531H820.793ZM955.314 249.645V313.365H790.275V249.645H955.314ZM980.461 108.531V174.693H790.275V108.531H980.461ZM1093.99 265.27V464H1011.71V199.84H1088.62L1093.99 265.27ZM1172.11 197.887L1170.65 274.303C1167.39 273.977 1163 273.57 1157.46 273.082C1151.93 272.594 1147.29 272.35 1143.55 272.35C1133.94 272.35 1125.64 273.489 1118.64 275.768C1111.81 277.883 1106.11 281.139 1101.55 285.533C1097.16 289.765 1093.9 295.136 1091.79 301.646C1089.84 308.157 1088.94 315.725 1089.1 324.352L1074.21 314.586C1074.21 296.845 1075.92 280.732 1079.34 266.246C1082.92 251.598 1087.96 238.984 1094.47 228.404C1100.99 217.662 1108.88 209.443 1118.16 203.746C1127.43 197.887 1137.85 194.957 1149.41 194.957C1153.48 194.957 1157.46 195.201 1161.37 195.689C1165.44 196.178 1169.02 196.91 1172.11 197.887ZM1283.44 265.27V464H1201.16V199.84H1278.07L1283.44 265.27ZM1361.56 197.887L1360.1 274.303C1356.84 273.977 1352.45 273.57 1346.92 273.082C1341.38 272.594 1336.74 272.35 1333 272.35C1323.4 272.35 1315.1 273.489 1308.1 275.768C1301.26 277.883 1295.57 281.139 1291.01 285.533C1286.61 289.765 1283.36 295.136 1281.24 301.646C1279.29 308.157 1278.39 315.725 1278.56 324.352L1263.66 314.586C1263.66 296.845 1265.37 280.732 1268.79 266.246C1272.37 251.598 1277.42 238.984 1283.93 228.404C1290.44 217.662 1298.33 209.443 1307.61 203.746C1316.89 197.887 1327.3 194.957 1338.86 194.957C1342.93 194.957 1346.92 195.201 1350.82 195.689C1354.89 196.178 1358.47 196.91 1361.56 197.887ZM1370.84 334.605V329.479C1370.84 310.11 1373.61 292.288 1379.14 276.012C1384.68 259.573 1392.81 245.331 1403.56 233.287C1414.3 221.243 1427.56 211.884 1443.35 205.211C1459.14 198.375 1477.37 194.957 1498.04 194.957C1518.87 194.957 1537.18 198.375 1552.97 205.211C1568.92 211.884 1582.27 221.243 1593.01 233.287C1603.75 245.331 1611.89 259.573 1617.42 276.012C1622.96 292.288 1625.72 310.11 1625.72 329.479V334.605C1625.72 353.811 1622.96 371.633 1617.42 388.072C1611.89 404.348 1603.75 418.59 1593.01 430.797C1582.27 442.841 1569 452.2 1553.21 458.873C1537.43 465.546 1519.2 468.883 1498.53 468.883C1477.86 468.883 1459.55 465.546 1443.6 458.873C1427.65 452.2 1414.3 442.841 1403.56 430.797C1392.81 418.59 1384.68 404.348 1379.14 388.072C1373.61 371.633 1370.84 353.811 1370.84 334.605ZM1453.12 329.479V334.605C1453.12 344.534 1453.85 353.811 1455.31 362.438C1456.78 371.064 1459.22 378.632 1462.64 385.143C1466.06 391.49 1470.7 396.454 1476.55 400.035C1482.41 403.616 1489.74 405.406 1498.53 405.406C1507.15 405.406 1514.32 403.616 1520.01 400.035C1525.87 396.454 1530.51 391.49 1533.93 385.143C1537.35 378.632 1539.79 371.064 1541.25 362.438C1542.72 353.811 1543.45 344.534 1543.45 334.605V329.479C1543.45 319.876 1542.72 310.842 1541.25 302.379C1539.79 293.753 1537.35 286.184 1533.93 279.674C1530.51 273.001 1525.87 267.792 1520.01 264.049C1514.15 260.305 1506.83 258.434 1498.04 258.434C1489.41 258.434 1482.17 260.305 1476.31 264.049C1470.61 267.792 1466.06 273.001 1462.64 279.674C1459.22 286.184 1456.78 293.753 1455.31 302.379C1453.85 310.842 1453.12 319.876 1453.12 329.479ZM1745.35 265.27V464H1663.08V199.84H1739.98L1745.35 265.27ZM1823.48 197.887L1822.01 274.303C1818.76 273.977 1814.36 273.57 1808.83 273.082C1803.3 272.594 1798.66 272.35 1794.91 272.35C1785.31 272.35 1777.01 273.489 1770.01 275.768C1763.18 277.883 1757.48 281.139 1752.92 285.533C1748.53 289.765 1745.27 295.136 1743.16 301.646C1741.2 308.157 1740.31 315.725 1740.47 324.352L1725.58 314.586C1725.58 296.845 1727.29 280.732 1730.71 266.246C1734.29 251.598 1739.33 238.984 1745.84 228.404C1752.35 217.662 1760.25 209.443 1769.52 203.746C1778.8 197.887 1789.22 194.957 1800.77 194.957C1804.84 194.957 1808.83 195.201 1812.74 195.689C1816.81 196.178 1820.39 196.91 1823.48 197.887ZM2228.26 325.084V388.561H1972.4L1967.52 338.268L2110.34 108.531H2175.29L2104.73 224.01L2046.13 325.084H2228.26ZM2192.38 108.531V464H2110.1V108.531H2192.38ZM2511.96 253.795V318.736C2511.96 344.29 2508.94 366.507 2502.92 385.387C2497.06 404.267 2488.6 419.892 2477.53 432.262C2466.63 444.632 2453.61 453.827 2438.47 459.85C2423.33 465.872 2406.65 468.883 2388.42 468.883C2373.77 468.883 2360.1 467.011 2347.4 463.268C2334.71 459.361 2323.23 453.502 2312.98 445.689C2302.89 437.714 2294.18 427.786 2286.86 415.904C2279.53 404.023 2273.92 390.025 2270.01 373.912C2266.11 357.636 2264.15 339.244 2264.15 318.736V253.795C2264.15 228.079 2267.08 205.862 2272.94 187.145C2278.96 168.264 2287.51 152.639 2298.58 140.27C2309.64 127.9 2322.75 118.704 2337.88 112.682C2353.02 106.66 2369.7 103.648 2387.93 103.648C2402.58 103.648 2416.17 105.602 2428.7 109.508C2441.4 113.251 2452.87 119.111 2463.13 127.086C2473.38 134.898 2482.09 144.745 2489.25 156.627C2496.57 168.508 2502.19 182.587 2506.1 198.863C2510 214.977 2511.96 233.287 2511.96 253.795ZM2429.68 328.746V243.297C2429.68 231.904 2429.03 221.975 2427.73 213.512C2426.59 205.048 2424.8 197.887 2422.36 192.027C2420.08 186.168 2417.23 181.448 2413.81 177.867C2410.39 174.124 2406.49 171.438 2402.09 169.811C2397.86 168.02 2393.14 167.125 2387.93 167.125C2381.42 167.125 2375.56 168.508 2370.35 171.275C2365.31 173.88 2360.99 178.111 2357.41 183.971C2353.83 189.83 2351.07 197.643 2349.11 207.408C2347.32 217.174 2346.43 229.137 2346.43 243.297V328.746C2346.43 340.302 2347 350.393 2348.14 359.02C2349.44 367.483 2351.23 374.726 2353.51 380.748C2355.95 386.607 2358.88 391.409 2362.3 395.152C2365.71 398.733 2369.62 401.337 2374.02 402.965C2378.41 404.592 2383.21 405.406 2388.42 405.406C2394.77 405.406 2400.46 404.104 2405.51 401.5C2410.56 398.896 2414.87 394.664 2418.45 388.805C2422.19 382.783 2424.96 374.889 2426.75 365.123C2428.7 355.195 2429.68 343.069 2429.68 328.746ZM2808.34 325.084V388.561H2552.48L2547.6 338.268L2690.42 108.531H2755.36L2684.81 224.01L2626.21 325.084H2808.34ZM2772.45 108.531V464H2690.18V108.531H2772.45Z" fill="#E73567"/>
<path d="M979.729 398.082V464H790.275V398.082H979.729ZM820.793 108.531V464H735.1V108.531H820.793ZM955.314 249.645V313.365H790.275V249.645H955.314ZM980.461 108.531V174.693H790.275V108.531H980.461ZM1093.99 265.27V464H1011.71V199.84H1088.62L1093.99 265.27ZM1172.11 197.887L1170.65 274.303C1167.39 273.977 1163 273.57 1157.46 273.082C1151.93 272.594 1147.29 272.35 1143.55 272.35C1133.94 272.35 1125.64 273.489 1118.64 275.768C1111.81 277.883 1106.11 281.139 1101.55 285.533C1097.16 289.765 1093.9 295.136 1091.79 301.646C1089.84 308.157 1088.94 315.725 1089.1 324.352L1074.21 314.586C1074.21 296.845 1075.92 280.732 1079.34 266.246C1082.92 251.598 1087.96 238.984 1094.47 228.404C1100.99 217.662 1108.88 209.443 1118.16 203.746C1127.43 197.887 1137.85 194.957 1149.41 194.957C1153.48 194.957 1157.46 195.201 1161.37 195.689C1165.44 196.178 1169.02 196.91 1172.11 197.887ZM1283.44 265.27V464H1201.16V199.84H1278.07L1283.44 265.27ZM1361.56 197.887L1360.1 274.303C1356.84 273.977 1352.45 273.57 1346.92 273.082C1341.38 272.594 1336.74 272.35 1333 272.35C1323.4 272.35 1315.1 273.489 1308.1 275.768C1301.26 277.883 1295.57 281.139 1291.01 285.533C1286.61 289.765 1283.36 295.136 1281.24 301.646C1279.29 308.157 1278.39 315.725 1278.56 324.352L1263.66 314.586C1263.66 296.845 1265.37 280.732 1268.79 266.246C1272.37 251.598 1277.42 238.984 1283.93 228.404C1290.44 217.662 1298.33 209.443 1307.61 203.746C1316.89 197.887 1327.3 194.957 1338.86 194.957C1342.93 194.957 1346.92 195.201 1350.82 195.689C1354.89 196.178 1358.47 196.91 1361.56 197.887ZM1370.84 334.605V329.479C1370.84 310.11 1373.61 292.288 1379.14 276.012C1384.68 259.573 1392.81 245.331 1403.56 233.287C1414.3 221.243 1427.56 211.884 1443.35 205.211C1459.14 198.375 1477.37 194.957 1498.04 194.957C1518.87 194.957 1537.18 198.375 1552.97 205.211C1568.92 211.884 1582.27 221.243 1593.01 233.287C1603.75 245.331 1611.89 259.573 1617.42 276.012C1622.96 292.288 1625.72 310.11 1625.72 329.479V334.605C1625.72 353.811 1622.96 371.633 1617.42 388.072C1611.89 404.348 1603.75 418.59 1593.01 430.797C1582.27 442.841 1569 452.2 1553.21 458.873C1537.43 465.546 1519.2 468.883 1498.53 468.883C1477.86 468.883 1459.55 465.546 1443.6 458.873C1427.65 452.2 1414.3 442.841 1403.56 430.797C1392.81 418.59 1384.68 404.348 1379.14 388.072C1373.61 371.633 1370.84 353.811 1370.84 334.605ZM1453.12 329.479V334.605C1453.12 344.534 1453.85 353.811 1455.31 362.438C1456.78 371.064 1459.22 378.632 1462.64 385.143C1466.06 391.49 1470.7 396.454 1476.55 400.035C1482.41 403.616 1489.74 405.406 1498.53 405.406C1507.15 405.406 1514.32 403.616 1520.01 400.035C1525.87 396.454 1530.51 391.49 1533.93 385.143C1537.35 378.632 1539.79 371.064 1541.25 362.438C1542.72 353.811 1543.45 344.534 1543.45 334.605V329.479C1543.45 319.876 1542.72 310.842 1541.25 302.379C1539.79 293.753 1537.35 286.184 1533.93 279.674C1530.51 273.001 1525.87 267.792 1520.01 264.049C1514.15 260.305 1506.83 258.434 1498.04 258.434C1489.41 258.434 1482.17 260.305 1476.31 264.049C1470.61 267.792 1466.06 273.001 1462.64 279.674C1459.22 286.184 1456.78 293.753 1455.31 302.379C1453.85 310.842 1453.12 319.876 1453.12 329.479ZM1745.35 265.27V464H1663.08V199.84H1739.98L1745.35 265.27ZM1823.48 197.887L1822.01 274.303C1818.76 273.977 1814.36 273.57 1808.83 273.082C1803.3 272.594 1798.66 272.35 1794.91 272.35C1785.31 272.35 1777.01 273.489 1770.01 275.768C1763.18 277.883 1757.48 281.139 1752.92 285.533C1748.53 289.765 1745.27 295.136 1743.16 301.646C1741.2 308.157 1740.31 315.725 1740.47 324.352L1725.58 314.586C1725.58 296.845 1727.29 280.732 1730.71 266.246C1734.29 251.598 1739.33 238.984 1745.84 228.404C1752.35 217.662 1760.25 209.443 1769.52 203.746C1778.8 197.887 1789.22 194.957 1800.77 194.957C1804.84 194.957 1808.83 195.201 1812.74 195.689C1816.81 196.178 1820.39 196.91 1823.48 197.887ZM2228.26 325.084V388.561H1972.4L1967.52 338.268L2110.34 108.531H2175.29L2104.73 224.01L2046.13 325.084H2228.26ZM2192.38 108.531V464H2110.1V108.531H2192.38ZM2511.96 253.795V318.736C2511.96 344.29 2508.94 366.507 2502.92 385.387C2497.06 404.267 2488.6 419.892 2477.53 432.262C2466.63 444.632 2453.61 453.827 2438.47 459.85C2423.33 465.872 2406.65 468.883 2388.42 468.883C2373.77 468.883 2360.1 467.011 2347.4 463.268C2334.71 459.361 2323.23 453.502 2312.98 445.689C2302.89 437.714 2294.18 427.786 2286.86 415.904C2279.53 404.023 2273.92 390.025 2270.01 373.912C2266.11 357.636 2264.15 339.244 2264.15 318.736V253.795C2264.15 228.079 2267.08 205.862 2272.94 187.145C2278.96 168.264 2287.51 152.639 2298.58 140.27C2309.64 127.9 2322.75 118.704 2337.88 112.682C2353.02 106.66 2369.7 103.648 2387.93 103.648C2402.58 103.648 2416.17 105.602 2428.7 109.508C2441.4 113.251 2452.87 119.111 2463.13 127.086C2473.38 134.898 2482.09 144.745 2489.25 156.627C2496.57 168.508 2502.19 182.587 2506.1 198.863C2510 214.977 2511.96 233.287 2511.96 253.795ZM2429.68 328.746V243.297C2429.68 231.904 2429.03 221.975 2427.73 213.512C2426.59 205.048 2424.8 197.887 2422.36 192.027C2420.08 186.168 2417.23 181.448 2413.81 177.867C2410.39 174.124 2406.49 171.438 2402.09 169.811C2397.86 168.02 2393.14 167.125 2387.93 167.125C2381.42 167.125 2375.56 168.508 2370.35 171.275C2365.31 173.88 2360.99 178.111 2357.41 183.971C2353.83 189.83 2351.07 197.643 2349.11 207.408C2347.32 217.174 2346.43 229.137 2346.43 243.297V328.746C2346.43 340.302 2347 350.393 2348.14 359.02C2349.44 367.483 2351.23 374.726 2353.51 380.748C2355.95 386.607 2358.88 391.409 2362.3 395.152C2365.71 398.733 2369.62 401.337 2374.02 402.965C2378.41 404.592 2383.21 405.406 2388.42 405.406C2394.77 405.406 2400.46 404.104 2405.51 401.5C2410.56 398.896 2414.87 394.664 2418.45 388.805C2422.19 382.783 2424.96 374.889 2426.75 365.123C2428.7 355.195 2429.68 343.069 2429.68 328.746ZM2808.34 325.084V388.561H2552.48L2547.6 338.268L2690.42 108.531H2755.36L2684.81 224.01L2626.21 325.084H2808.34ZM2772.45 108.531V464H2690.18V108.531H2772.45Z" fill="url(#paint0_linear_94_620)"/>
<path d="M759.406 852.156L760.09 749.617H770.832L771.516 852.156H759.406ZM772.785 717.195C772.785 719.344 772.069 721.199 770.637 722.762C769.27 724.324 767.316 725.105 764.777 725.105C762.303 725.105 760.35 724.324 758.918 722.762C757.486 721.199 756.77 719.344 756.77 717.195C756.77 714.982 757.486 713.126 758.918 711.629C760.35 710.132 762.303 709.383 764.777 709.383C767.316 709.383 769.27 710.132 770.637 711.629C772.069 713.126 772.785 714.982 772.785 717.195ZM852.082 683.309L802.863 817H790.363L844.074 674.812H852.766L852.082 683.309ZM896.809 817L847.492 683.309L846.809 674.812H855.5L909.309 817H896.809ZM888.02 766.805V777.156H812.531V766.805H888.02ZM954.133 806.453L987.043 711.336H999.641L954.914 833.992C954.003 836.401 952.831 839.07 951.398 842C950.031 844.93 948.208 847.729 945.93 850.398C943.716 853.133 940.917 855.346 937.531 857.039C934.211 858.797 930.142 859.676 925.324 859.676C924.087 859.676 922.492 859.513 920.539 859.188C918.651 858.927 917.284 858.667 916.438 858.406L916.34 848.543C917.056 848.738 918.098 848.901 919.465 849.031C920.832 849.161 921.776 849.227 922.297 849.227C926.529 849.227 930.077 848.51 932.941 847.078C935.871 845.646 938.312 843.497 940.266 840.633C942.219 837.833 943.944 834.318 945.441 830.086L954.133 806.453ZM923.371 711.336L957.062 802.059L960.188 814.266L951.691 819.051L910.676 711.336H923.371ZM1078.35 733.895V817H1066.73V711.336H1077.86L1078.35 733.895ZM1075.71 757.625L1070.54 754.695C1070.93 748.445 1072.2 742.586 1074.35 737.117C1076.5 731.648 1079.39 726.831 1083.04 722.664C1086.75 718.497 1091.08 715.242 1096.03 712.898C1101.04 710.555 1106.57 709.383 1112.63 709.383C1117.9 709.383 1122.62 710.099 1126.79 711.531C1130.96 712.964 1134.5 715.242 1137.43 718.367C1140.36 721.492 1142.58 725.496 1144.07 730.379C1145.64 735.262 1146.42 741.219 1146.42 748.25V817H1134.7V748.152C1134.7 740.861 1133.69 735.164 1131.67 731.062C1129.65 726.896 1126.79 723.934 1123.08 722.176C1119.37 720.418 1114.97 719.539 1109.89 719.539C1104.3 719.539 1099.38 720.776 1095.15 723.25C1090.98 725.659 1087.47 728.816 1084.6 732.723C1081.8 736.564 1079.65 740.698 1078.16 745.125C1076.66 749.487 1075.85 753.654 1075.71 757.625ZM1170.25 765.828V762.605C1170.25 754.923 1171.35 747.827 1173.57 741.316C1175.78 734.806 1178.94 729.174 1183.04 724.422C1187.21 719.669 1192.19 715.991 1197.98 713.387C1203.77 710.717 1210.22 709.383 1217.32 709.383C1224.48 709.383 1230.96 710.717 1236.75 713.387C1242.54 715.991 1247.52 719.669 1251.69 724.422C1255.86 729.174 1259.05 734.806 1261.26 741.316C1263.48 747.827 1264.58 754.923 1264.58 762.605V765.828C1264.58 773.51 1263.48 780.607 1261.26 787.117C1259.05 793.562 1255.86 799.161 1251.69 803.914C1247.59 808.667 1242.64 812.378 1236.85 815.047C1231.05 817.651 1224.61 818.953 1217.51 818.953C1210.35 818.953 1203.87 817.651 1198.08 815.047C1192.28 812.378 1187.3 808.667 1183.14 803.914C1178.97 799.161 1175.78 793.562 1173.57 787.117C1171.35 780.607 1170.25 773.51 1170.25 765.828ZM1181.87 762.605V765.828C1181.87 771.622 1182.65 777.124 1184.21 782.332C1185.77 787.475 1188.05 792.065 1191.05 796.102C1194.04 800.073 1197.75 803.198 1202.18 805.477C1206.61 807.755 1211.72 808.895 1217.51 808.895C1223.24 808.895 1228.29 807.755 1232.65 805.477C1237.08 803.198 1240.79 800.073 1243.78 796.102C1246.78 792.065 1249.02 787.475 1250.52 782.332C1252.08 777.124 1252.86 771.622 1252.86 765.828V762.605C1252.86 756.876 1252.08 751.44 1250.52 746.297C1249.02 741.154 1246.74 736.564 1243.68 732.527C1240.69 728.491 1236.98 725.301 1232.55 722.957C1228.12 720.613 1223.05 719.441 1217.32 719.441C1211.59 719.441 1206.51 720.613 1202.08 722.957C1197.72 725.301 1194.01 728.491 1190.95 732.527C1187.95 736.564 1185.68 741.154 1184.11 746.297C1182.62 751.44 1181.87 756.876 1181.87 762.605ZM1301.89 674.812L1301.2 777.352H1290.46L1289.78 674.812H1301.89ZM1288.51 810.066C1288.51 807.853 1289.19 805.997 1290.56 804.5C1291.99 802.938 1293.98 802.156 1296.52 802.156C1298.99 802.156 1300.94 802.938 1302.38 804.5C1303.87 805.997 1304.62 807.853 1304.62 810.066C1304.62 812.215 1303.87 814.07 1302.38 815.633C1300.94 817.13 1298.99 817.879 1296.52 817.879C1293.98 817.879 1291.99 817.13 1290.56 815.633C1289.19 814.07 1288.51 812.215 1288.51 810.066ZM1433.82 759.09H1393.29V748.836H1433.82C1442.28 748.836 1449.15 747.469 1454.43 744.734C1459.76 741.935 1463.64 738.159 1466.05 733.406C1468.52 728.654 1469.76 723.315 1469.76 717.391C1469.76 711.596 1468.52 706.258 1466.05 701.375C1463.64 696.492 1459.76 692.586 1454.43 689.656C1449.15 686.661 1442.28 685.164 1433.82 685.164H1397.49V817H1385.48V674.812H1433.82C1444.24 674.812 1452.99 676.603 1460.09 680.184C1467.25 683.764 1472.65 688.745 1476.3 695.125C1479.95 701.505 1481.77 708.862 1481.77 717.195C1481.77 725.919 1479.95 733.439 1476.3 739.754C1472.65 746.004 1467.28 750.789 1460.19 754.109C1453.09 757.43 1444.3 759.09 1433.82 759.09ZM1569.07 798.055V743.562C1569.07 738.549 1568.03 734.22 1565.95 730.574C1563.87 726.928 1560.81 724.129 1556.77 722.176C1552.73 720.223 1547.75 719.246 1541.83 719.246C1536.36 719.246 1531.48 720.223 1527.18 722.176C1522.95 724.064 1519.6 726.635 1517.12 729.891C1514.71 733.081 1513.51 736.629 1513.51 740.535L1501.79 740.438C1501.79 736.466 1502.77 732.625 1504.72 728.914C1506.67 725.203 1509.44 721.883 1513.02 718.953C1516.6 716.023 1520.86 713.712 1525.81 712.02C1530.83 710.262 1536.33 709.383 1542.32 709.383C1549.87 709.383 1556.51 710.652 1562.24 713.191C1568.03 715.73 1572.56 719.539 1575.81 724.617C1579.07 729.695 1580.7 736.076 1580.7 743.758V794.832C1580.7 798.478 1580.96 802.254 1581.48 806.16C1582.06 810.066 1582.88 813.289 1583.92 815.828V817H1571.52C1570.73 814.656 1570.12 811.727 1569.66 808.211C1569.27 804.63 1569.07 801.245 1569.07 798.055ZM1571.81 755.477L1572 764.461H1549.05C1543.07 764.461 1537.69 765.014 1532.94 766.121C1528.25 767.163 1524.28 768.725 1521.03 770.809C1517.77 772.827 1515.27 775.268 1513.51 778.133C1511.82 780.997 1510.97 784.253 1510.97 787.898C1510.97 791.674 1511.91 795.125 1513.8 798.25C1515.75 801.375 1518.49 803.882 1522 805.77C1525.58 807.592 1529.82 808.504 1534.7 808.504C1541.21 808.504 1546.94 807.299 1551.89 804.891C1556.9 802.482 1561.03 799.324 1564.29 795.418C1567.54 791.512 1569.73 787.247 1570.83 782.625L1575.91 789.363C1575.06 792.618 1573.5 795.971 1571.22 799.422C1569.01 802.807 1566.11 805.997 1562.53 808.992C1558.95 811.922 1554.72 814.331 1549.84 816.219C1545.02 818.042 1539.55 818.953 1533.43 818.953C1526.53 818.953 1520.51 817.651 1515.36 815.047C1510.29 812.443 1506.31 808.895 1503.45 804.402C1500.65 799.845 1499.25 794.702 1499.25 788.973C1499.25 783.764 1500.36 779.109 1502.57 775.008C1504.78 770.841 1507.97 767.326 1512.14 764.461C1516.37 761.531 1521.45 759.318 1527.38 757.82C1533.36 756.258 1540.07 755.477 1547.49 755.477H1571.81ZM1623.66 728.816V817H1612.04V711.336H1623.37L1623.66 728.816ZM1661.07 710.555L1660.77 721.297C1659.47 721.102 1658.2 720.939 1656.96 720.809C1655.73 720.678 1654.39 720.613 1652.96 720.613C1647.88 720.613 1643.42 721.557 1639.58 723.445C1635.81 725.268 1632.62 727.84 1630.01 731.16C1627.41 734.415 1625.42 738.257 1624.05 742.684C1622.69 747.046 1621.91 751.733 1621.71 756.746L1617.41 758.406C1617.41 751.505 1618.13 745.092 1619.56 739.168C1620.99 733.243 1623.18 728.068 1626.11 723.641C1629.1 719.148 1632.84 715.665 1637.34 713.191C1641.89 710.652 1647.23 709.383 1653.35 709.383C1654.85 709.383 1656.31 709.513 1657.75 709.773C1659.24 709.969 1660.35 710.229 1661.07 710.555ZM1718.29 818.953C1711.39 818.953 1705.04 817.684 1699.25 815.145C1693.52 812.605 1688.51 809.025 1684.21 804.402C1679.98 799.78 1676.69 794.311 1674.35 787.996C1672.07 781.616 1670.93 774.65 1670.93 767.098V762.898C1670.93 754.76 1672.13 747.404 1674.54 740.828C1676.95 734.253 1680.27 728.621 1684.5 723.934C1688.74 719.246 1693.55 715.665 1698.96 713.191C1704.43 710.652 1710.15 709.383 1716.14 709.383C1722.85 709.383 1728.81 710.587 1734.02 712.996C1739.22 715.34 1743.59 718.693 1747.1 723.055C1750.68 727.352 1753.38 732.462 1755.21 738.387C1757.03 744.246 1757.94 750.724 1757.94 757.82V764.949H1677.96V754.988H1746.32V753.621C1746.19 747.697 1744.99 742.163 1742.71 737.02C1740.49 731.811 1737.17 727.579 1732.75 724.324C1728.32 721.069 1722.79 719.441 1716.14 719.441C1711.2 719.441 1706.64 720.483 1702.47 722.566C1698.37 724.65 1694.82 727.645 1691.83 731.551C1688.9 735.392 1686.62 739.982 1684.99 745.32C1683.43 750.594 1682.65 756.453 1682.65 762.898V767.098C1682.65 772.957 1683.49 778.426 1685.19 783.504C1686.95 788.517 1689.42 792.944 1692.61 796.785C1695.86 800.626 1699.71 803.621 1704.13 805.77C1708.56 807.918 1713.44 808.992 1718.78 808.992C1725.03 808.992 1730.57 807.853 1735.38 805.574C1740.2 803.23 1744.53 799.552 1748.37 794.539L1755.7 800.203C1753.42 803.589 1750.55 806.714 1747.1 809.578C1743.72 812.443 1739.65 814.721 1734.89 816.414C1730.14 818.107 1724.61 818.953 1718.29 818.953ZM1819.95 808.895C1824.9 808.895 1829.52 807.983 1833.82 806.16C1838.18 804.272 1841.76 801.505 1844.56 797.859C1847.43 794.148 1849.05 789.624 1849.45 784.285H1860.58C1860.25 790.991 1858.2 796.98 1854.43 802.254C1850.71 807.462 1845.83 811.564 1839.78 814.559C1833.79 817.488 1827.18 818.953 1819.95 818.953C1812.6 818.953 1806.09 817.618 1800.42 814.949C1794.82 812.28 1790.14 808.569 1786.36 803.816C1782.58 798.999 1779.72 793.4 1777.77 787.02C1775.88 780.574 1774.93 773.641 1774.93 766.219V762.117C1774.93 754.695 1775.88 747.794 1777.77 741.414C1779.72 734.969 1782.58 729.37 1786.36 724.617C1790.14 719.799 1794.82 716.056 1800.42 713.387C1806.02 710.717 1812.5 709.383 1819.86 709.383C1827.41 709.383 1834.18 710.913 1840.17 713.973C1846.22 717.033 1851.04 721.362 1854.62 726.961C1858.27 732.56 1860.25 739.201 1860.58 746.883H1849.45C1849.12 741.219 1847.62 736.336 1844.95 732.234C1842.28 728.133 1838.77 724.975 1834.41 722.762C1830.04 720.548 1825.19 719.441 1819.86 719.441C1813.87 719.441 1808.76 720.613 1804.52 722.957C1800.29 725.236 1796.84 728.393 1794.17 732.43C1791.57 736.401 1789.65 740.958 1788.41 746.102C1787.17 751.18 1786.55 756.518 1786.55 762.117V766.219C1786.55 771.883 1787.14 777.286 1788.31 782.43C1789.55 787.508 1791.47 792.033 1794.07 796.004C1796.74 799.975 1800.19 803.133 1804.43 805.477C1808.72 807.755 1813.9 808.895 1819.95 808.895ZM1924.93 818.953C1918.03 818.953 1911.68 817.684 1905.89 815.145C1900.16 812.605 1895.15 809.025 1890.85 804.402C1886.62 799.78 1883.33 794.311 1880.99 787.996C1878.71 781.616 1877.57 774.65 1877.57 767.098V762.898C1877.57 754.76 1878.77 747.404 1881.18 740.828C1883.59 734.253 1886.91 728.621 1891.14 723.934C1895.38 719.246 1900.19 715.665 1905.6 713.191C1911.07 710.652 1916.8 709.383 1922.79 709.383C1929.49 709.383 1935.45 710.587 1940.66 712.996C1945.86 715.34 1950.23 718.693 1953.74 723.055C1957.32 727.352 1960.02 732.462 1961.85 738.387C1963.67 744.246 1964.58 750.724 1964.58 757.82V764.949H1884.6V754.988H1952.96V753.621C1952.83 747.697 1951.63 742.163 1949.35 737.02C1947.13 731.811 1943.81 727.579 1939.39 724.324C1934.96 721.069 1929.43 719.441 1922.79 719.441C1917.84 719.441 1913.28 720.483 1909.11 722.566C1905.01 724.65 1901.46 727.645 1898.47 731.551C1895.54 735.392 1893.26 739.982 1891.63 745.32C1890.07 750.594 1889.29 756.453 1889.29 762.898V767.098C1889.29 772.957 1890.14 778.426 1891.83 783.504C1893.59 788.517 1896.06 792.944 1899.25 796.785C1902.51 800.626 1906.35 803.621 1910.77 805.77C1915.2 807.918 1920.08 808.992 1925.42 808.992C1931.67 808.992 1937.21 807.853 1942.02 805.574C1946.84 803.23 1951.17 799.552 1955.01 794.539L1962.34 800.203C1960.06 803.589 1957.19 806.714 1953.74 809.578C1950.36 812.443 1946.29 814.721 1941.54 816.414C1936.78 818.107 1931.25 818.953 1924.93 818.953ZM2105.11 857.625V731.648L2105.89 711.336H2116.73V857.625H2105.11ZM2031.77 765.242V763.191C2031.77 754.988 2032.68 747.599 2034.5 741.023C2036.33 734.383 2039 728.719 2042.51 724.031C2046.09 719.279 2050.39 715.665 2055.4 713.191C2060.48 710.652 2066.24 709.383 2072.69 709.383C2078.87 709.383 2084.37 710.392 2089.19 712.41C2094.01 714.428 2098.14 717.326 2101.59 721.102C2105.11 724.878 2107.94 729.37 2110.09 734.578C2112.24 739.786 2113.8 745.581 2114.78 751.961V778.035C2114 784.025 2112.53 789.526 2110.38 794.539C2108.3 799.487 2105.5 803.816 2101.98 807.527C2098.47 811.173 2094.24 814.005 2089.29 816.023C2084.41 817.977 2078.81 818.953 2072.49 818.953C2066.11 818.953 2060.38 817.651 2055.3 815.047C2050.29 812.443 2046.03 808.764 2042.51 804.012C2039.06 799.194 2036.39 793.497 2034.5 786.922C2032.68 780.346 2031.77 773.12 2031.77 765.242ZM2043.49 763.191V765.242C2043.49 771.427 2044.11 777.156 2045.34 782.43C2046.65 787.703 2048.57 792.326 2051.11 796.297C2053.64 800.268 2056.87 803.361 2060.77 805.574C2064.74 807.788 2069.37 808.895 2074.64 808.895C2081.35 808.895 2087.01 807.592 2091.63 804.988C2096.26 802.384 2099.93 798.934 2102.67 794.637C2105.47 790.34 2107.49 785.652 2108.72 780.574V750.203C2108.07 746.883 2106.96 743.432 2105.4 739.852C2103.84 736.271 2101.72 732.951 2099.05 729.891C2096.45 726.766 2093.16 724.259 2089.19 722.371C2085.22 720.418 2080.43 719.441 2074.84 719.441C2069.5 719.441 2064.84 720.581 2060.87 722.859C2056.96 725.073 2053.71 728.165 2051.11 732.137C2048.57 736.108 2046.65 740.73 2045.34 746.004C2044.11 751.277 2043.49 757.007 2043.49 763.191ZM2215.66 792.586V711.336H2227.38V817H2216.14L2215.66 792.586ZM2217.8 773.055L2223.86 772.859C2223.86 779.5 2223.08 785.62 2221.52 791.219C2219.95 796.818 2217.51 801.701 2214.19 805.867C2210.87 810.034 2206.57 813.257 2201.3 815.535C2196.03 817.814 2189.68 818.953 2182.26 818.953C2177.11 818.953 2172.39 818.237 2168.1 816.805C2163.87 815.307 2160.22 812.964 2157.16 809.773C2154.1 806.583 2151.72 802.449 2150.03 797.371C2148.4 792.293 2147.59 786.141 2147.59 778.914V711.336H2159.21V779.109C2159.21 784.773 2159.83 789.493 2161.07 793.27C2162.37 797.046 2164.13 800.073 2166.34 802.352C2168.62 804.63 2171.22 806.258 2174.15 807.234C2177.08 808.211 2180.24 808.699 2183.62 808.699C2192.22 808.699 2198.99 807.039 2203.94 803.719C2208.95 800.398 2212.5 796.036 2214.58 790.633C2216.73 785.164 2217.8 779.305 2217.8 773.055ZM2298.76 818.953C2291.86 818.953 2285.51 817.684 2279.72 815.145C2273.99 812.605 2268.98 809.025 2264.68 804.402C2260.45 799.78 2257.16 794.311 2254.82 787.996C2252.54 781.616 2251.4 774.65 2251.4 767.098V762.898C2251.4 754.76 2252.6 747.404 2255.01 740.828C2257.42 734.253 2260.74 728.621 2264.97 723.934C2269.2 719.246 2274.02 715.665 2279.43 713.191C2284.89 710.652 2290.62 709.383 2296.61 709.383C2303.32 709.383 2309.28 710.587 2314.48 712.996C2319.69 715.34 2324.05 718.693 2327.57 723.055C2331.15 727.352 2333.85 732.462 2335.68 738.387C2337.5 744.246 2338.41 750.724 2338.41 757.82V764.949H2258.43V754.988H2326.79V753.621C2326.66 747.697 2325.45 742.163 2323.18 737.02C2320.96 731.811 2317.64 727.579 2313.21 724.324C2308.79 721.069 2303.25 719.441 2296.61 719.441C2291.67 719.441 2287.11 720.483 2282.94 722.566C2278.84 724.65 2275.29 727.645 2272.3 731.551C2269.37 735.392 2267.09 739.982 2265.46 745.32C2263.9 750.594 2263.12 756.453 2263.12 762.898V767.098C2263.12 772.957 2263.96 778.426 2265.66 783.504C2267.41 788.517 2269.89 792.944 2273.08 796.785C2276.33 800.626 2280.17 803.621 2284.6 805.77C2289.03 807.918 2293.91 808.992 2299.25 808.992C2305.5 808.992 2311.03 807.853 2315.85 805.574C2320.67 803.23 2325 799.552 2328.84 794.539L2336.16 800.203C2333.89 803.589 2331.02 806.714 2327.57 809.578C2324.18 812.443 2320.12 814.721 2315.36 816.414C2310.61 818.107 2305.08 818.953 2298.76 818.953ZM2423.27 667V817H2411.65V667H2423.27ZM2519.46 798.055V743.562C2519.46 738.549 2518.42 734.22 2516.34 730.574C2514.26 726.928 2511.2 724.129 2507.16 722.176C2503.12 720.223 2498.14 719.246 2492.22 719.246C2486.75 719.246 2481.87 720.223 2477.57 722.176C2473.34 724.064 2469.99 726.635 2467.51 729.891C2465.1 733.081 2463.9 736.629 2463.9 740.535L2452.18 740.438C2452.18 736.466 2453.16 732.625 2455.11 728.914C2457.06 725.203 2459.83 721.883 2463.41 718.953C2466.99 716.023 2471.26 713.712 2476.2 712.02C2481.22 710.262 2486.72 709.383 2492.71 709.383C2500.26 709.383 2506.9 710.652 2512.63 713.191C2518.42 715.73 2522.95 719.539 2526.2 724.617C2529.46 729.695 2531.09 736.076 2531.09 743.758V794.832C2531.09 798.478 2531.35 802.254 2531.87 806.16C2532.45 810.066 2533.27 813.289 2534.31 815.828V817H2521.91C2521.12 814.656 2520.51 811.727 2520.05 808.211C2519.66 804.63 2519.46 801.245 2519.46 798.055ZM2522.2 755.477L2522.39 764.461H2499.45C2493.46 764.461 2488.08 765.014 2483.33 766.121C2478.64 767.163 2474.67 768.725 2471.42 770.809C2468.16 772.827 2465.66 775.268 2463.9 778.133C2462.21 780.997 2461.36 784.253 2461.36 787.898C2461.36 791.674 2462.3 795.125 2464.19 798.25C2466.14 801.375 2468.88 803.882 2472.39 805.77C2475.98 807.592 2480.21 808.504 2485.09 808.504C2491.6 808.504 2497.33 807.299 2502.28 804.891C2507.29 802.482 2511.42 799.324 2514.68 795.418C2517.93 791.512 2520.12 787.247 2521.22 782.625L2526.3 789.363C2525.45 792.618 2523.89 795.971 2521.61 799.422C2519.4 802.807 2516.5 805.997 2512.92 808.992C2509.34 811.922 2505.11 814.331 2500.23 816.219C2495.41 818.042 2489.94 818.953 2483.82 818.953C2476.92 818.953 2470.9 817.651 2465.75 815.047C2460.68 812.443 2456.7 808.895 2453.84 804.402C2451.04 799.845 2449.64 794.702 2449.64 788.973C2449.64 783.764 2450.75 779.109 2452.96 775.008C2455.17 770.841 2458.36 767.326 2462.53 764.461C2466.76 761.531 2471.84 759.318 2477.77 757.82C2483.76 756.258 2490.46 755.477 2497.88 755.477H2522.2ZM769.855 965.648V1091.62H758.137V945.336H769.074L769.855 965.648ZM843.293 997.191V999.242C843.293 1007.12 842.382 1014.35 840.559 1020.92C838.736 1027.5 836.099 1033.19 832.648 1038.01C829.263 1042.76 825.064 1046.44 820.051 1049.05C815.038 1051.65 809.341 1052.95 802.961 1052.95C796.646 1052.95 791.014 1051.98 786.066 1050.02C781.118 1048.07 776.854 1045.3 773.273 1041.72C769.758 1038.08 766.926 1033.85 764.777 1029.03C762.694 1024.14 761.229 1018.81 760.383 1013.01V985.961C761.359 979.581 762.954 973.786 765.168 968.578C767.382 963.37 770.214 958.878 773.664 955.102C777.18 951.326 781.346 948.428 786.164 946.41C790.982 944.392 796.483 943.383 802.668 943.383C809.113 943.383 814.842 944.652 819.855 947.191C824.934 949.665 829.198 953.279 832.648 958.031C836.164 962.719 838.801 968.383 840.559 975.023C842.382 981.599 843.293 988.988 843.293 997.191ZM831.574 999.242V997.191C831.574 991.007 830.923 985.277 829.621 980.004C828.384 974.73 826.464 970.141 823.859 966.234C821.32 962.263 818.065 959.171 814.094 956.957C810.188 954.743 805.533 953.637 800.129 953.637C794.53 953.637 789.745 954.581 785.773 956.469C781.867 958.292 778.612 960.733 776.008 963.793C773.404 966.788 771.353 970.076 769.855 973.656C768.358 977.237 767.251 980.753 766.535 984.203V1015.36C767.772 1020.3 769.758 1024.89 772.492 1029.12C775.227 1033.29 778.872 1036.64 783.43 1039.18C788.052 1041.66 793.684 1042.89 800.324 1042.89C805.663 1042.89 810.285 1041.79 814.191 1039.57C818.098 1037.36 821.32 1034.27 823.859 1030.3C826.464 1026.33 828.384 1021.7 829.621 1016.43C830.923 1011.16 831.574 1005.43 831.574 999.242ZM933.527 1032.05V977.562C933.527 972.549 932.486 968.22 930.402 964.574C928.319 960.928 925.259 958.129 921.223 956.176C917.186 954.223 912.206 953.246 906.281 953.246C900.812 953.246 895.93 954.223 891.633 956.176C887.401 958.064 884.048 960.635 881.574 963.891C879.165 967.081 877.961 970.629 877.961 974.535L866.242 974.438C866.242 970.466 867.219 966.625 869.172 962.914C871.125 959.203 873.892 955.883 877.473 952.953C881.053 950.023 885.318 947.712 890.266 946.02C895.279 944.262 900.78 943.383 906.77 943.383C914.322 943.383 920.962 944.652 926.691 947.191C932.486 949.73 937.01 953.539 940.266 958.617C943.521 963.695 945.148 970.076 945.148 977.758V1028.83C945.148 1032.48 945.409 1036.25 945.93 1040.16C946.516 1044.07 947.329 1047.29 948.371 1049.83V1051H935.969C935.188 1048.66 934.569 1045.73 934.113 1042.21C933.723 1038.63 933.527 1035.24 933.527 1032.05ZM936.262 989.477L936.457 998.461H913.508C907.518 998.461 902.147 999.014 897.395 1000.12C892.707 1001.16 888.736 1002.73 885.48 1004.81C882.225 1006.83 879.719 1009.27 877.961 1012.13C876.268 1015 875.422 1018.25 875.422 1021.9C875.422 1025.67 876.366 1029.12 878.254 1032.25C880.207 1035.38 882.941 1037.88 886.457 1039.77C890.038 1041.59 894.27 1042.5 899.152 1042.5C905.663 1042.5 911.392 1041.3 916.34 1038.89C921.353 1036.48 925.487 1033.32 928.742 1029.42C931.997 1025.51 934.178 1021.25 935.285 1016.62L940.363 1023.36C939.517 1026.62 937.954 1029.97 935.676 1033.42C933.462 1036.81 930.565 1040 926.984 1042.99C923.404 1045.92 919.172 1048.33 914.289 1050.22C909.471 1052.04 904.003 1052.95 897.883 1052.95C890.982 1052.95 884.96 1051.65 879.816 1049.05C874.738 1046.44 870.767 1042.89 867.902 1038.4C865.103 1033.85 863.703 1028.7 863.703 1022.97C863.703 1017.76 864.81 1013.11 867.023 1009.01C869.237 1004.84 872.427 1001.33 876.594 998.461C880.826 995.531 885.904 993.318 891.828 991.82C897.818 990.258 904.523 989.477 911.945 989.477H936.262ZM903.645 928.441L922.297 901.098H936.359L913.801 928.441H903.645ZM1046.03 945.336H1056.87V1049.14C1056.87 1058.32 1055.11 1066.2 1051.59 1072.78C1048.14 1079.35 1043.23 1084.4 1036.85 1087.91C1030.53 1091.43 1023.08 1093.19 1014.48 1093.19C1010.12 1093.19 1005.63 1092.5 1001.01 1091.14C996.451 1089.83 992.121 1087.82 988.02 1085.08C983.983 1082.41 980.533 1079.09 977.668 1075.12L984.211 1067.99C988.508 1073.2 993.098 1077.01 997.98 1079.42C1002.86 1081.89 1008.14 1083.13 1013.8 1083.13C1020.51 1083.13 1026.17 1081.79 1030.79 1079.12C1035.48 1076.46 1039.03 1072.61 1041.44 1067.6C1043.91 1062.59 1045.15 1056.57 1045.15 1049.54V968.578L1046.03 945.336ZM971.809 999.242V997.191C971.809 988.988 972.72 981.599 974.543 975.023C976.431 968.383 979.133 962.719 982.648 958.031C986.164 953.279 990.428 949.665 995.441 947.191C1000.52 944.652 1006.25 943.383 1012.63 943.383C1018.75 943.383 1024.18 944.392 1028.94 946.41C1033.69 948.428 1037.79 951.326 1041.24 955.102C1044.69 958.878 1047.46 963.37 1049.54 968.578C1051.69 973.786 1053.25 979.581 1054.23 985.961V1012.04C1053.45 1018.02 1052.02 1023.53 1049.93 1028.54C1047.85 1033.49 1045.08 1037.82 1041.63 1041.53C1038.18 1045.17 1034.02 1048.01 1029.13 1050.02C1024.32 1051.98 1018.75 1052.95 1012.43 1052.95C1006.12 1052.95 1000.45 1051.65 995.441 1049.05C990.428 1046.44 986.164 1042.76 982.648 1038.01C979.133 1033.19 976.431 1027.5 974.543 1020.92C972.72 1014.35 971.809 1007.12 971.809 999.242ZM983.527 997.191V999.242C983.527 1005.43 984.146 1011.16 985.383 1016.43C986.62 1021.7 988.508 1026.29 991.047 1030.2C993.586 1034.11 996.809 1037.17 1000.71 1039.38C1004.62 1041.59 1009.21 1042.7 1014.48 1042.7C1021.19 1042.7 1026.82 1041.43 1031.38 1038.89C1035.94 1036.29 1039.55 1032.87 1042.22 1028.64C1044.89 1024.34 1046.84 1019.65 1048.08 1014.57V984.203C1047.36 980.753 1046.26 977.237 1044.76 973.656C1043.33 970.076 1041.31 966.788 1038.7 963.793C1036.16 960.733 1032.91 958.292 1028.94 956.469C1025.03 954.581 1020.28 953.637 1014.68 953.637C1009.34 953.637 1004.69 954.743 1000.71 956.957C996.809 959.171 993.586 962.263 991.047 966.234C988.508 970.141 986.62 974.73 985.383 980.004C984.146 985.277 983.527 991.007 983.527 997.191ZM1100.42 945.336V1051H1088.8V945.336H1100.42ZM1086.75 914.77C1086.75 912.556 1087.43 910.701 1088.8 909.203C1090.23 907.641 1092.19 906.859 1094.66 906.859C1097.13 906.859 1099.09 907.641 1100.52 909.203C1102.02 910.701 1102.77 912.556 1102.77 914.77C1102.77 916.918 1102.02 918.773 1100.52 920.336C1099.09 921.833 1097.13 922.582 1094.66 922.582C1092.19 922.582 1090.23 921.833 1088.8 920.336C1087.43 918.773 1086.75 916.918 1086.75 914.77ZM1143.98 967.895V1051H1132.36V945.336H1143.49L1143.98 967.895ZM1141.34 991.625L1136.16 988.695C1136.55 982.445 1137.82 976.586 1139.97 971.117C1142.12 965.648 1145.02 960.831 1148.66 956.664C1152.38 952.497 1156.7 949.242 1161.65 946.898C1166.67 944.555 1172.2 943.383 1178.25 943.383C1183.53 943.383 1188.25 944.099 1192.41 945.531C1196.58 946.964 1200.13 949.242 1203.06 952.367C1205.99 955.492 1208.2 959.496 1209.7 964.379C1211.26 969.262 1212.04 975.219 1212.04 982.25V1051H1200.32V982.152C1200.32 974.861 1199.32 969.164 1197.3 965.062C1195.28 960.896 1192.41 957.934 1188.7 956.176C1184.99 954.418 1180.6 953.539 1175.52 953.539C1169.92 953.539 1165.01 954.776 1160.77 957.25C1156.61 959.659 1153.09 962.816 1150.23 966.723C1147.43 970.564 1145.28 974.698 1143.78 979.125C1142.28 983.487 1141.47 987.654 1141.34 991.625ZM1306.57 1032.05V977.562C1306.57 972.549 1305.53 968.22 1303.45 964.574C1301.37 960.928 1298.31 958.129 1294.27 956.176C1290.23 954.223 1285.25 953.246 1279.33 953.246C1273.86 953.246 1268.98 954.223 1264.68 956.176C1260.45 958.064 1257.1 960.635 1254.62 963.891C1252.21 967.081 1251.01 970.629 1251.01 974.535L1239.29 974.438C1239.29 970.466 1240.27 966.625 1242.22 962.914C1244.17 959.203 1246.94 955.883 1250.52 952.953C1254.1 950.023 1258.36 947.712 1263.31 946.02C1268.33 944.262 1273.83 943.383 1279.82 943.383C1287.37 943.383 1294.01 944.652 1299.74 947.191C1305.53 949.73 1310.06 953.539 1313.31 958.617C1316.57 963.695 1318.2 970.076 1318.2 977.758V1028.83C1318.2 1032.48 1318.46 1036.25 1318.98 1040.16C1319.56 1044.07 1320.38 1047.29 1321.42 1049.83V1051H1309.02C1308.23 1048.66 1307.62 1045.73 1307.16 1042.21C1306.77 1038.63 1306.57 1035.24 1306.57 1032.05ZM1309.31 989.477L1309.5 998.461H1286.55C1280.57 998.461 1275.19 999.014 1270.44 1000.12C1265.75 1001.16 1261.78 1002.73 1258.53 1004.81C1255.27 1006.83 1252.77 1009.27 1251.01 1012.13C1249.32 1015 1248.47 1018.25 1248.47 1021.9C1248.47 1025.67 1249.41 1029.12 1251.3 1032.25C1253.25 1035.38 1255.99 1037.88 1259.5 1039.77C1263.08 1041.59 1267.32 1042.5 1272.2 1042.5C1278.71 1042.5 1284.44 1041.3 1289.39 1038.89C1294.4 1036.48 1298.53 1033.32 1301.79 1029.42C1305.04 1025.51 1307.23 1021.25 1308.33 1016.62L1313.41 1023.36C1312.56 1026.62 1311 1029.97 1308.72 1033.42C1306.51 1036.81 1303.61 1040 1300.03 1042.99C1296.45 1045.92 1292.22 1048.33 1287.34 1050.22C1282.52 1052.04 1277.05 1052.95 1270.93 1052.95C1264.03 1052.95 1258.01 1051.65 1252.86 1049.05C1247.79 1046.44 1243.81 1042.89 1240.95 1038.4C1238.15 1033.85 1236.75 1028.7 1236.75 1022.97C1236.75 1017.76 1237.86 1013.11 1240.07 1009.01C1242.28 1004.84 1245.47 1001.33 1249.64 998.461C1253.87 995.531 1258.95 993.318 1264.88 991.82C1270.86 990.258 1277.57 989.477 1284.99 989.477H1309.31ZM1467.02 1091.62V965.648L1467.8 945.336H1478.64V1091.62H1467.02ZM1393.68 999.242V997.191C1393.68 988.988 1394.6 981.599 1396.42 975.023C1398.24 968.383 1400.91 962.719 1404.43 958.031C1408.01 953.279 1412.3 949.665 1417.32 947.191C1422.39 944.652 1428.16 943.383 1434.6 943.383C1440.79 943.383 1446.29 944.392 1451.11 946.41C1455.92 948.428 1460.06 951.326 1463.51 955.102C1467.02 958.878 1469.86 963.37 1472 968.578C1474.15 973.786 1475.71 979.581 1476.69 985.961V1012.04C1475.91 1018.02 1474.45 1023.53 1472.3 1028.54C1470.21 1033.49 1467.41 1037.82 1463.9 1041.53C1460.38 1045.17 1456.15 1048.01 1451.2 1050.02C1446.32 1051.98 1440.72 1052.95 1434.41 1052.95C1428.03 1052.95 1422.3 1051.65 1417.22 1049.05C1412.21 1046.44 1407.94 1042.76 1404.43 1038.01C1400.98 1033.19 1398.31 1027.5 1396.42 1020.92C1394.6 1014.35 1393.68 1007.12 1393.68 999.242ZM1405.4 997.191V999.242C1405.4 1005.43 1406.02 1011.16 1407.26 1016.43C1408.56 1021.7 1410.48 1026.33 1413.02 1030.3C1415.56 1034.27 1418.78 1037.36 1422.69 1039.57C1426.66 1041.79 1431.28 1042.89 1436.55 1042.89C1443.26 1042.89 1448.92 1041.59 1453.55 1038.99C1458.17 1036.38 1461.85 1032.93 1464.58 1028.64C1467.38 1024.34 1469.4 1019.65 1470.64 1014.57V984.203C1469.99 980.883 1468.88 977.432 1467.32 973.852C1465.75 970.271 1463.64 966.951 1460.97 963.891C1458.36 960.766 1455.08 958.259 1451.11 956.371C1447.13 954.418 1442.35 953.441 1436.75 953.441C1431.41 953.441 1426.76 954.581 1422.79 956.859C1418.88 959.073 1415.62 962.165 1413.02 966.137C1410.48 970.108 1408.56 974.73 1407.26 980.004C1406.02 985.277 1405.4 991.007 1405.4 997.191ZM1577.57 1026.59V945.336H1589.29V1051H1578.06L1577.57 1026.59ZM1579.72 1007.05L1585.77 1006.86C1585.77 1013.5 1584.99 1019.62 1583.43 1025.22C1581.87 1030.82 1579.43 1035.7 1576.11 1039.87C1572.79 1044.03 1568.49 1047.26 1563.21 1049.54C1557.94 1051.81 1551.59 1052.95 1544.17 1052.95C1539.03 1052.95 1534.31 1052.24 1530.01 1050.8C1525.78 1049.31 1522.13 1046.96 1519.07 1043.77C1516.01 1040.58 1513.64 1036.45 1511.95 1031.37C1510.32 1026.29 1509.5 1020.14 1509.5 1012.91V945.336H1521.12V1013.11C1521.12 1018.77 1521.74 1023.49 1522.98 1027.27C1524.28 1031.05 1526.04 1034.07 1528.25 1036.35C1530.53 1038.63 1533.14 1040.26 1536.07 1041.23C1539 1042.21 1542.15 1042.7 1545.54 1042.7C1554.13 1042.7 1560.9 1041.04 1565.85 1037.72C1570.86 1034.4 1574.41 1030.04 1576.5 1024.63C1578.64 1019.16 1579.72 1013.3 1579.72 1007.05ZM1660.68 1052.95C1653.77 1052.95 1647.43 1051.68 1641.63 1049.14C1635.9 1046.61 1630.89 1043.02 1626.59 1038.4C1622.36 1033.78 1619.07 1028.31 1616.73 1022C1614.45 1015.62 1613.31 1008.65 1613.31 1001.1V996.898C1613.31 988.76 1614.52 981.404 1616.93 974.828C1619.33 968.253 1622.65 962.621 1626.89 957.934C1631.12 953.246 1635.94 949.665 1641.34 947.191C1646.81 944.652 1652.54 943.383 1658.53 943.383C1665.23 943.383 1671.19 944.587 1676.4 946.996C1681.61 949.34 1685.97 952.693 1689.48 957.055C1693.07 961.352 1695.77 966.462 1697.59 972.387C1699.41 978.246 1700.32 984.724 1700.32 991.82V998.949H1620.34V988.988H1688.7V987.621C1688.57 981.697 1687.37 976.163 1685.09 971.02C1682.88 965.811 1679.56 961.579 1675.13 958.324C1670.7 955.069 1665.17 953.441 1658.53 953.441C1653.58 953.441 1649.02 954.483 1644.86 956.566C1640.75 958.65 1637.21 961.645 1634.21 965.551C1631.28 969.392 1629 973.982 1627.38 979.32C1625.81 984.594 1625.03 990.453 1625.03 996.898V1001.1C1625.03 1006.96 1625.88 1012.43 1627.57 1017.5C1629.33 1022.52 1631.8 1026.94 1634.99 1030.79C1638.25 1034.63 1642.09 1037.62 1646.52 1039.77C1650.94 1041.92 1655.83 1042.99 1661.16 1042.99C1667.41 1042.99 1672.95 1041.85 1677.77 1039.57C1682.58 1037.23 1686.91 1033.55 1690.75 1028.54L1698.08 1034.2C1695.8 1037.59 1692.93 1040.71 1689.48 1043.58C1686.1 1046.44 1682.03 1048.72 1677.28 1050.41C1672.52 1052.11 1666.99 1052.95 1660.68 1052.95ZM1813.02 1052.95C1806.12 1052.95 1799.77 1051.68 1793.98 1049.14C1788.25 1046.61 1783.23 1043.02 1778.94 1038.4C1774.71 1033.78 1771.42 1028.31 1769.07 1022C1766.8 1015.62 1765.66 1008.65 1765.66 1001.1V996.898C1765.66 988.76 1766.86 981.404 1769.27 974.828C1771.68 968.253 1775 962.621 1779.23 957.934C1783.46 953.246 1788.28 949.665 1793.68 947.191C1799.15 944.652 1804.88 943.383 1810.87 943.383C1817.58 943.383 1823.53 944.587 1828.74 946.996C1833.95 949.34 1838.31 952.693 1841.83 957.055C1845.41 961.352 1848.11 966.462 1849.93 972.387C1851.76 978.246 1852.67 984.724 1852.67 991.82V998.949H1772.69V988.988H1841.05V987.621C1840.92 981.697 1839.71 976.163 1837.43 971.02C1835.22 965.811 1831.9 961.579 1827.47 958.324C1823.05 955.069 1817.51 953.441 1810.87 953.441C1805.92 953.441 1801.37 954.483 1797.2 956.566C1793.1 958.65 1789.55 961.645 1786.55 965.551C1783.62 969.392 1781.35 973.982 1779.72 979.32C1778.16 984.594 1777.38 990.453 1777.38 996.898V1001.1C1777.38 1006.96 1778.22 1012.43 1779.91 1017.5C1781.67 1022.52 1784.15 1026.94 1787.34 1030.79C1790.59 1034.63 1794.43 1037.62 1798.86 1039.77C1803.29 1041.92 1808.17 1042.99 1813.51 1042.99C1819.76 1042.99 1825.29 1041.85 1830.11 1039.57C1834.93 1037.23 1839.26 1033.55 1843.1 1028.54L1850.42 1034.2C1848.14 1037.59 1845.28 1040.71 1841.83 1043.58C1838.44 1046.44 1834.37 1048.72 1829.62 1050.41C1824.87 1052.11 1819.33 1052.95 1813.02 1052.95ZM1939 1024.05C1939 1021.18 1938.28 1018.35 1936.85 1015.55C1935.42 1012.75 1932.65 1010.18 1928.55 1007.84C1924.51 1005.49 1918.55 1003.51 1910.68 1001.88C1904.82 1000.58 1899.58 999.112 1894.95 997.484C1890.4 995.857 1886.55 993.904 1883.43 991.625C1880.3 989.346 1877.93 986.612 1876.3 983.422C1874.67 980.232 1873.86 976.456 1873.86 972.094C1873.86 968.188 1874.71 964.509 1876.4 961.059C1878.16 957.543 1880.63 954.483 1883.82 951.879C1887.08 949.21 1890.98 947.126 1895.54 945.629C1900.16 944.132 1905.34 943.383 1911.07 943.383C1919.2 943.383 1926.17 944.783 1931.96 947.582C1937.82 950.316 1942.28 954.06 1945.34 958.812C1948.47 963.565 1950.03 968.936 1950.03 974.926H1938.41C1938.41 971.28 1937.34 967.829 1935.19 964.574C1933.1 961.319 1930.01 958.65 1925.91 956.566C1921.87 954.483 1916.93 953.441 1911.07 953.441C1905.01 953.441 1900.1 954.353 1896.32 956.176C1892.54 957.999 1889.78 960.31 1888.02 963.109C1886.33 965.909 1885.48 968.806 1885.48 971.801C1885.48 974.145 1885.84 976.293 1886.55 978.246C1887.34 980.134 1888.7 981.892 1890.66 983.52C1892.67 985.147 1895.54 986.677 1899.25 988.109C1902.96 989.542 1907.78 990.941 1913.7 992.309C1922.23 994.197 1929.2 996.508 1934.6 999.242C1940.07 1001.91 1944.11 1005.23 1946.71 1009.2C1949.32 1013.11 1950.62 1017.86 1950.62 1023.46C1950.62 1027.82 1949.71 1031.83 1947.88 1035.47C1946.06 1039.05 1943.42 1042.15 1939.97 1044.75C1936.59 1047.35 1932.49 1049.37 1927.67 1050.8C1922.92 1052.24 1917.58 1052.95 1911.65 1052.95C1902.73 1052.95 1895.18 1051.49 1889 1048.56C1882.88 1045.56 1878.22 1041.66 1875.03 1036.84C1871.91 1031.96 1870.34 1026.78 1870.34 1021.31H1881.96C1882.36 1026.78 1884.08 1031.11 1887.14 1034.3C1890.2 1037.43 1893.94 1039.64 1898.37 1040.94C1902.86 1042.24 1907.29 1042.89 1911.65 1042.89C1917.64 1042.89 1922.65 1042.02 1926.69 1040.26C1930.73 1038.5 1933.79 1036.19 1935.87 1033.32C1937.95 1030.46 1939 1027.37 1939 1024.05ZM2017.02 945.336V954.906H1964.09V945.336H2017.02ZM1983.53 918.188H1995.15V1025.32C1995.15 1030.2 1995.8 1033.88 1997.1 1036.35C1998.4 1038.83 2000.1 1040.49 2002.18 1041.33C2004.26 1042.18 2006.51 1042.6 2008.92 1042.6C2010.68 1042.6 2012.37 1042.5 2014 1042.31C2015.62 1042.05 2017.09 1041.79 2018.39 1041.53L2018.88 1051.39C2017.45 1051.85 2015.59 1052.2 2013.31 1052.46C2011.03 1052.79 2008.76 1052.95 2006.48 1052.95C2001.98 1052.95 1998.01 1052.14 1994.56 1050.51C1991.11 1048.82 1988.41 1045.95 1986.46 1041.92C1984.5 1037.82 1983.53 1032.25 1983.53 1025.22V918.188ZM2105.79 1032.05V977.562C2105.79 972.549 2104.75 968.22 2102.67 964.574C2100.58 960.928 2097.52 958.129 2093.49 956.176C2089.45 954.223 2084.47 953.246 2078.55 953.246C2073.08 953.246 2068.2 954.223 2063.9 956.176C2059.67 958.064 2056.31 960.635 2053.84 963.891C2051.43 967.081 2050.23 970.629 2050.23 974.535L2038.51 974.438C2038.51 970.466 2039.48 966.625 2041.44 962.914C2043.39 959.203 2046.16 955.883 2049.74 952.953C2053.32 950.023 2057.58 947.712 2062.53 946.02C2067.54 944.262 2073.05 943.383 2079.04 943.383C2086.59 943.383 2093.23 944.652 2098.96 947.191C2104.75 949.73 2109.28 953.539 2112.53 958.617C2115.79 963.695 2117.41 970.076 2117.41 977.758V1028.83C2117.41 1032.48 2117.67 1036.25 2118.2 1040.16C2118.78 1044.07 2119.6 1047.29 2120.64 1049.83V1051H2108.23C2107.45 1048.66 2106.83 1045.73 2106.38 1042.21C2105.99 1038.63 2105.79 1035.24 2105.79 1032.05ZM2108.53 989.477L2108.72 998.461H2085.77C2079.78 998.461 2074.41 999.014 2069.66 1000.12C2064.97 1001.16 2061 1002.73 2057.75 1004.81C2054.49 1006.83 2051.98 1009.27 2050.23 1012.13C2048.53 1015 2047.69 1018.25 2047.69 1021.9C2047.69 1025.67 2048.63 1029.12 2050.52 1032.25C2052.47 1035.38 2055.21 1037.88 2058.72 1039.77C2062.3 1041.59 2066.54 1042.5 2071.42 1042.5C2077.93 1042.5 2083.66 1041.3 2088.61 1038.89C2093.62 1036.48 2097.75 1033.32 2101.01 1029.42C2104.26 1025.51 2106.44 1021.25 2107.55 1016.62L2112.63 1023.36C2111.78 1026.62 2110.22 1029.97 2107.94 1033.42C2105.73 1036.81 2102.83 1040 2099.25 1042.99C2095.67 1045.92 2091.44 1048.33 2086.55 1050.22C2081.74 1052.04 2076.27 1052.95 2070.15 1052.95C2063.25 1052.95 2057.23 1051.65 2052.08 1049.05C2047 1046.44 2043.03 1042.89 2040.17 1038.4C2037.37 1033.85 2035.97 1028.7 2035.97 1022.97C2035.97 1017.76 2037.08 1013.11 2039.29 1009.01C2041.5 1004.84 2044.69 1001.33 2048.86 998.461C2053.09 995.531 2058.17 993.318 2064.09 991.82C2070.08 990.258 2076.79 989.477 2084.21 989.477H2108.53ZM2212.04 1024.05C2212.04 1021.18 2211.33 1018.35 2209.89 1015.55C2208.46 1012.75 2205.7 1010.18 2201.59 1007.84C2197.56 1005.49 2191.6 1003.51 2183.72 1001.88C2177.86 1000.58 2172.62 999.112 2168 997.484C2163.44 995.857 2159.6 993.904 2156.48 991.625C2153.35 989.346 2150.98 986.612 2149.35 983.422C2147.72 980.232 2146.91 976.456 2146.91 972.094C2146.91 968.188 2147.75 964.509 2149.45 961.059C2151.2 957.543 2153.68 954.483 2156.87 951.879C2160.12 949.21 2164.03 947.126 2168.59 945.629C2173.21 944.132 2178.38 943.383 2184.11 943.383C2192.25 943.383 2199.22 944.783 2205.01 947.582C2210.87 950.316 2215.33 954.06 2218.39 958.812C2221.52 963.565 2223.08 968.936 2223.08 974.926H2211.46C2211.46 971.28 2210.38 967.829 2208.23 964.574C2206.15 961.319 2203.06 958.65 2198.96 956.566C2194.92 954.483 2189.97 953.441 2184.11 953.441C2178.06 953.441 2173.14 954.353 2169.37 956.176C2165.59 957.999 2162.82 960.31 2161.07 963.109C2159.37 965.909 2158.53 968.806 2158.53 971.801C2158.53 974.145 2158.89 976.293 2159.6 978.246C2160.38 980.134 2161.75 981.892 2163.7 983.52C2165.72 985.147 2168.59 986.677 2172.3 988.109C2176.01 989.542 2180.83 990.941 2186.75 992.309C2195.28 994.197 2202.24 996.508 2207.65 999.242C2213.12 1001.91 2217.15 1005.23 2219.76 1009.2C2222.36 1013.11 2223.66 1017.86 2223.66 1023.46C2223.66 1027.82 2222.75 1031.83 2220.93 1035.47C2219.11 1039.05 2216.47 1042.15 2213.02 1044.75C2209.63 1047.35 2205.53 1049.37 2200.71 1050.8C2195.96 1052.24 2190.62 1052.95 2184.7 1052.95C2175.78 1052.95 2168.23 1051.49 2162.04 1048.56C2155.92 1045.56 2151.27 1041.66 2148.08 1036.84C2144.95 1031.96 2143.39 1026.78 2143.39 1021.31H2155.01C2155.4 1026.78 2157.13 1031.11 2160.19 1034.3C2163.25 1037.43 2166.99 1039.64 2171.42 1040.94C2175.91 1042.24 2180.34 1042.89 2184.7 1042.89C2190.69 1042.89 2195.7 1042.02 2199.74 1040.26C2203.77 1038.5 2206.83 1036.19 2208.92 1033.32C2211 1030.46 2212.04 1027.37 2212.04 1024.05ZM758.137 1135H769.855V1264.49L769.074 1285H758.137V1135ZM843.391 1231.19V1233.24C843.391 1241.12 842.479 1248.35 840.656 1254.92C838.833 1261.5 836.197 1267.19 832.746 1272.01C829.296 1276.76 825.064 1280.44 820.051 1283.05C815.103 1285.65 809.406 1286.95 802.961 1286.95C796.646 1286.95 791.047 1285.98 786.164 1284.02C781.281 1282.01 777.115 1279.17 773.664 1275.53C770.214 1271.82 767.447 1267.49 765.363 1262.54C763.28 1257.53 761.815 1252.02 760.969 1246.04V1219.96C761.945 1213.58 763.508 1207.79 765.656 1202.58C767.805 1197.37 770.572 1192.88 773.957 1189.1C777.408 1185.33 781.509 1182.43 786.262 1180.41C791.079 1178.39 796.581 1177.38 802.766 1177.38C809.211 1177.38 814.94 1178.65 819.953 1181.19C825.031 1183.67 829.296 1187.28 832.746 1192.03C836.197 1196.72 838.833 1202.38 840.656 1209.02C842.479 1215.6 843.391 1222.99 843.391 1231.19ZM831.574 1233.24V1231.19C831.574 1225.01 830.988 1219.28 829.816 1214C828.645 1208.73 826.789 1204.14 824.25 1200.23C821.776 1196.26 818.586 1193.17 814.68 1190.96C810.773 1188.74 806.086 1187.64 800.617 1187.64C795.018 1187.64 790.233 1188.58 786.262 1190.47C782.355 1192.29 779.1 1194.73 776.496 1197.79C773.957 1200.79 771.939 1204.08 770.441 1207.66C768.944 1211.24 767.837 1214.75 767.121 1218.2V1248.57C768.228 1253.46 770.148 1258.05 772.883 1262.34C775.617 1266.64 779.296 1270.12 783.918 1272.79C788.54 1275.4 794.172 1276.7 800.812 1276.7C806.151 1276.7 810.741 1275.59 814.582 1273.38C818.488 1271.17 821.678 1268.11 824.152 1264.2C826.691 1260.29 828.547 1255.7 829.719 1250.43C830.956 1245.16 831.574 1239.43 831.574 1233.24ZM936.945 1260.59V1179.34H948.664V1285H937.434L936.945 1260.59ZM939.094 1241.05L945.148 1240.86C945.148 1247.5 944.367 1253.62 942.805 1259.22C941.242 1264.82 938.801 1269.7 935.48 1273.87C932.16 1278.03 927.863 1281.26 922.59 1283.54C917.316 1285.81 910.969 1286.95 903.547 1286.95C898.404 1286.95 893.684 1286.24 889.387 1284.8C885.155 1283.31 881.509 1280.96 878.449 1277.77C875.389 1274.58 873.013 1270.45 871.32 1265.37C869.693 1260.29 868.879 1254.14 868.879 1246.91V1179.34H880.5V1247.11C880.5 1252.77 881.118 1257.49 882.355 1261.27C883.658 1265.05 885.415 1268.07 887.629 1270.35C889.908 1272.63 892.512 1274.26 895.441 1275.23C898.371 1276.21 901.529 1276.7 904.914 1276.7C913.508 1276.7 920.279 1275.04 925.227 1271.72C930.24 1268.4 933.788 1264.04 935.871 1258.63C938.02 1253.16 939.094 1247.3 939.094 1241.05ZM1042.51 1258.05C1042.51 1255.18 1041.8 1252.35 1040.36 1249.55C1038.93 1246.75 1036.16 1244.18 1032.06 1241.84C1028.03 1239.49 1022.07 1237.51 1014.19 1235.88C1008.33 1234.58 1003.09 1233.11 998.469 1231.48C993.911 1229.86 990.07 1227.9 986.945 1225.62C983.82 1223.35 981.444 1220.61 979.816 1217.42C978.189 1214.23 977.375 1210.46 977.375 1206.09C977.375 1202.19 978.221 1198.51 979.914 1195.06C981.672 1191.54 984.146 1188.48 987.336 1185.88C990.591 1183.21 994.497 1181.13 999.055 1179.63C1003.68 1178.13 1008.85 1177.38 1014.58 1177.38C1022.72 1177.38 1029.69 1178.78 1035.48 1181.58C1041.34 1184.32 1045.8 1188.06 1048.86 1192.81C1051.98 1197.57 1053.55 1202.94 1053.55 1208.93H1041.93C1041.93 1205.28 1040.85 1201.83 1038.7 1198.57C1036.62 1195.32 1033.53 1192.65 1029.43 1190.57C1025.39 1188.48 1020.44 1187.44 1014.58 1187.44C1008.53 1187.44 1003.61 1188.35 999.836 1190.18C996.06 1192 993.293 1194.31 991.535 1197.11C989.842 1199.91 988.996 1202.81 988.996 1205.8C988.996 1208.14 989.354 1210.29 990.07 1212.25C990.852 1214.13 992.219 1215.89 994.172 1217.52C996.19 1219.15 999.055 1220.68 1002.77 1222.11C1006.48 1223.54 1011.29 1224.94 1017.22 1226.31C1025.75 1228.2 1032.71 1230.51 1038.12 1233.24C1043.59 1235.91 1047.62 1239.23 1050.23 1243.2C1052.83 1247.11 1054.13 1251.86 1054.13 1257.46C1054.13 1261.82 1053.22 1265.83 1051.4 1269.47C1049.58 1273.05 1046.94 1276.15 1043.49 1278.75C1040.1 1281.35 1036 1283.37 1031.18 1284.8C1026.43 1286.24 1021.09 1286.95 1015.17 1286.95C1006.25 1286.95 998.697 1285.49 992.512 1282.56C986.392 1279.56 981.737 1275.66 978.547 1270.84C975.422 1265.96 973.859 1260.78 973.859 1255.31H985.48C985.871 1260.78 987.596 1265.11 990.656 1268.3C993.716 1271.43 997.46 1273.64 1001.89 1274.94C1006.38 1276.24 1010.81 1276.89 1015.17 1276.89C1021.16 1276.89 1026.17 1276.02 1030.21 1274.26C1034.24 1272.5 1037.3 1270.19 1039.39 1267.32C1041.47 1264.46 1042.51 1261.37 1042.51 1258.05ZM1119.56 1276.89C1124.51 1276.89 1129.13 1275.98 1133.43 1274.16C1137.79 1272.27 1141.37 1269.51 1144.17 1265.86C1147.04 1262.15 1148.66 1257.62 1149.05 1252.29H1160.19C1159.86 1258.99 1157.81 1264.98 1154.04 1270.25C1150.32 1275.46 1145.44 1279.56 1139.39 1282.56C1133.4 1285.49 1126.79 1286.95 1119.56 1286.95C1112.21 1286.95 1105.7 1285.62 1100.03 1282.95C1094.43 1280.28 1089.74 1276.57 1085.97 1271.82C1082.19 1267 1079.33 1261.4 1077.38 1255.02C1075.49 1248.57 1074.54 1241.64 1074.54 1234.22V1230.12C1074.54 1222.7 1075.49 1215.79 1077.38 1209.41C1079.33 1202.97 1082.19 1197.37 1085.97 1192.62C1089.74 1187.8 1094.43 1184.06 1100.03 1181.39C1105.63 1178.72 1112.11 1177.38 1119.46 1177.38C1127.02 1177.38 1133.79 1178.91 1139.78 1181.97C1145.83 1185.03 1150.65 1189.36 1154.23 1194.96C1157.88 1200.56 1159.86 1207.2 1160.19 1214.88H1149.05C1148.73 1209.22 1147.23 1204.34 1144.56 1200.23C1141.89 1196.13 1138.38 1192.98 1134.02 1190.76C1129.65 1188.55 1124.8 1187.44 1119.46 1187.44C1113.48 1187.44 1108.36 1188.61 1104.13 1190.96C1099.9 1193.24 1096.45 1196.39 1093.78 1200.43C1091.18 1204.4 1089.26 1208.96 1088.02 1214.1C1086.78 1219.18 1086.16 1224.52 1086.16 1230.12V1234.22C1086.16 1239.88 1086.75 1245.29 1087.92 1250.43C1089.16 1255.51 1091.08 1260.03 1093.68 1264C1096.35 1267.98 1099.8 1271.13 1104.04 1273.48C1108.33 1275.76 1113.51 1276.89 1119.56 1276.89ZM1247.98 1266.05V1211.56C1247.98 1206.55 1246.94 1202.22 1244.86 1198.57C1242.77 1194.93 1239.71 1192.13 1235.68 1190.18C1231.64 1188.22 1226.66 1187.25 1220.73 1187.25C1215.27 1187.25 1210.38 1188.22 1206.09 1190.18C1201.85 1192.06 1198.5 1194.64 1196.03 1197.89C1193.62 1201.08 1192.41 1204.63 1192.41 1208.54L1180.7 1208.44C1180.7 1204.47 1181.67 1200.62 1183.62 1196.91C1185.58 1193.2 1188.35 1189.88 1191.93 1186.95C1195.51 1184.02 1199.77 1181.71 1204.72 1180.02C1209.73 1178.26 1215.23 1177.38 1221.22 1177.38C1228.77 1177.38 1235.42 1178.65 1241.14 1181.19C1246.94 1183.73 1251.46 1187.54 1254.72 1192.62C1257.97 1197.7 1259.6 1204.08 1259.6 1211.76V1262.83C1259.6 1266.48 1259.86 1270.25 1260.38 1274.16C1260.97 1278.07 1261.78 1281.29 1262.82 1283.83V1285H1250.42C1249.64 1282.66 1249.02 1279.73 1248.57 1276.21C1248.18 1272.63 1247.98 1269.24 1247.98 1266.05ZM1250.71 1223.48L1250.91 1232.46H1227.96C1221.97 1232.46 1216.6 1233.01 1211.85 1234.12C1207.16 1235.16 1203.19 1236.73 1199.93 1238.81C1196.68 1240.83 1194.17 1243.27 1192.41 1246.13C1190.72 1249 1189.88 1252.25 1189.88 1255.9C1189.88 1259.67 1190.82 1263.12 1192.71 1266.25C1194.66 1269.38 1197.39 1271.88 1200.91 1273.77C1204.49 1275.59 1208.72 1276.5 1213.61 1276.5C1220.12 1276.5 1225.85 1275.3 1230.79 1272.89C1235.81 1270.48 1239.94 1267.32 1243.2 1263.42C1246.45 1259.51 1248.63 1255.25 1249.74 1250.62L1254.82 1257.36C1253.97 1260.62 1252.41 1263.97 1250.13 1267.42C1247.92 1270.81 1245.02 1274 1241.44 1276.99C1237.86 1279.92 1233.62 1282.33 1228.74 1284.22C1223.92 1286.04 1218.46 1286.95 1212.34 1286.95C1205.43 1286.95 1199.41 1285.65 1194.27 1283.05C1189.19 1280.44 1185.22 1276.89 1182.36 1272.4C1179.56 1267.85 1178.16 1262.7 1178.16 1256.97C1178.16 1251.76 1179.26 1247.11 1181.48 1243.01C1183.69 1238.84 1186.88 1235.33 1191.05 1232.46C1195.28 1229.53 1200.36 1227.32 1206.28 1225.82C1212.27 1224.26 1218.98 1223.48 1226.4 1223.48H1250.71ZM1302.57 1201.89V1285H1290.95V1179.34H1302.08L1302.57 1201.89ZM1299.93 1225.62L1294.76 1222.7C1295.15 1216.45 1296.42 1210.59 1298.57 1205.12C1300.71 1199.65 1303.61 1194.83 1307.26 1190.66C1310.97 1186.5 1315.3 1183.24 1320.25 1180.9C1325.26 1178.55 1330.79 1177.38 1336.85 1177.38C1342.12 1177.38 1346.84 1178.1 1351.01 1179.53C1355.17 1180.96 1358.72 1183.24 1361.65 1186.37C1364.58 1189.49 1366.8 1193.5 1368.29 1198.38C1369.86 1203.26 1370.64 1209.22 1370.64 1216.25V1285H1358.92V1216.15C1358.92 1208.86 1357.91 1203.16 1355.89 1199.06C1353.87 1194.9 1351.01 1191.93 1347.3 1190.18C1343.59 1188.42 1339.19 1187.54 1334.11 1187.54C1328.51 1187.54 1323.6 1188.78 1319.37 1191.25C1315.2 1193.66 1311.68 1196.82 1308.82 1200.72C1306.02 1204.56 1303.87 1208.7 1302.38 1213.12C1300.88 1217.49 1300.06 1221.65 1299.93 1225.62ZM1469.56 1264.49V1135H1481.28V1285H1470.34L1469.56 1264.49ZM1396.22 1233.24V1231.19C1396.22 1222.99 1397.17 1215.6 1399.05 1209.02C1400.94 1202.38 1403.64 1196.72 1407.16 1192.03C1410.74 1187.28 1415.04 1183.67 1420.05 1181.19C1425.06 1178.65 1430.73 1177.38 1437.04 1177.38C1443.23 1177.38 1448.7 1178.39 1453.45 1180.41C1458.2 1182.43 1462.27 1185.33 1465.66 1189.1C1469.11 1192.88 1471.87 1197.37 1473.96 1202.58C1476.11 1207.79 1477.67 1213.58 1478.64 1219.96V1246.04C1477.86 1252.02 1476.43 1257.53 1474.35 1262.54C1472.26 1267.49 1469.5 1271.82 1466.05 1275.53C1462.6 1279.17 1458.43 1282.01 1453.55 1284.02C1448.73 1285.98 1443.16 1286.95 1436.85 1286.95C1430.6 1286.95 1424.97 1285.65 1419.95 1283.05C1414.94 1280.44 1410.68 1276.76 1407.16 1272.01C1403.64 1267.19 1400.94 1261.5 1399.05 1254.92C1397.17 1248.35 1396.22 1241.12 1396.22 1233.24ZM1407.94 1231.19V1233.24C1407.94 1239.43 1408.56 1245.16 1409.8 1250.43C1411.03 1255.7 1412.92 1260.29 1415.46 1264.2C1418 1268.11 1421.22 1271.17 1425.13 1273.38C1429.04 1275.59 1433.66 1276.7 1439 1276.7C1445.7 1276.7 1451.33 1275.43 1455.89 1272.89C1460.45 1270.29 1464.09 1266.87 1466.83 1262.64C1469.56 1258.34 1471.55 1253.65 1472.79 1248.57V1218.2C1472 1214.75 1470.86 1211.24 1469.37 1207.66C1467.87 1204.08 1465.82 1200.79 1463.21 1197.79C1460.68 1194.73 1457.42 1192.29 1453.45 1190.47C1449.54 1188.58 1444.79 1187.64 1439.19 1187.64C1433.79 1187.64 1429.13 1188.74 1425.23 1190.96C1421.32 1193.17 1418.07 1196.26 1415.46 1200.23C1412.92 1204.14 1411.03 1208.73 1409.8 1214C1408.56 1219.28 1407.94 1225.01 1407.94 1231.19ZM1505.6 1233.83V1230.61C1505.6 1222.92 1506.7 1215.83 1508.92 1209.32C1511.13 1202.81 1514.29 1197.17 1518.39 1192.42C1522.56 1187.67 1527.54 1183.99 1533.33 1181.39C1539.13 1178.72 1545.57 1177.38 1552.67 1177.38C1559.83 1177.38 1566.31 1178.72 1572.1 1181.39C1577.9 1183.99 1582.88 1187.67 1587.04 1192.42C1591.21 1197.17 1594.4 1202.81 1596.61 1209.32C1598.83 1215.83 1599.93 1222.92 1599.93 1230.61V1233.83C1599.93 1241.51 1598.83 1248.61 1596.61 1255.12C1594.4 1261.56 1591.21 1267.16 1587.04 1271.91C1582.94 1276.67 1577.99 1280.38 1572.2 1283.05C1566.4 1285.65 1559.96 1286.95 1552.86 1286.95C1545.7 1286.95 1539.22 1285.65 1533.43 1283.05C1527.64 1280.38 1522.65 1276.67 1518.49 1271.91C1514.32 1267.16 1511.13 1261.56 1508.92 1255.12C1506.7 1248.61 1505.6 1241.51 1505.6 1233.83ZM1517.22 1230.61V1233.83C1517.22 1239.62 1518 1245.12 1519.56 1250.33C1521.12 1255.48 1523.4 1260.07 1526.4 1264.1C1529.39 1268.07 1533.1 1271.2 1537.53 1273.48C1541.96 1275.76 1547.07 1276.89 1552.86 1276.89C1558.59 1276.89 1563.64 1275.76 1568 1273.48C1572.43 1271.2 1576.14 1268.07 1579.13 1264.1C1582.13 1260.07 1584.37 1255.48 1585.87 1250.33C1587.43 1245.12 1588.21 1239.62 1588.21 1233.83V1230.61C1588.21 1224.88 1587.43 1219.44 1585.87 1214.3C1584.37 1209.15 1582.1 1204.56 1579.04 1200.53C1576.04 1196.49 1572.33 1193.3 1567.9 1190.96C1563.48 1188.61 1558.4 1187.44 1552.67 1187.44C1546.94 1187.44 1541.86 1188.61 1537.43 1190.96C1533.07 1193.3 1529.36 1196.49 1526.3 1200.53C1523.31 1204.56 1521.03 1209.15 1519.46 1214.3C1517.97 1219.44 1517.22 1224.88 1517.22 1230.61ZM1684.6 1201.89V1285H1672.98V1179.34H1684.11L1684.6 1201.89ZM1681.96 1225.62L1676.79 1222.7C1677.18 1216.45 1678.45 1210.59 1680.6 1205.12C1682.75 1199.65 1685.64 1194.83 1689.29 1190.66C1693 1186.5 1697.33 1183.24 1702.28 1180.9C1707.29 1178.55 1712.82 1177.38 1718.88 1177.38C1724.15 1177.38 1728.87 1178.1 1733.04 1179.53C1737.21 1180.96 1740.75 1183.24 1743.68 1186.37C1746.61 1189.49 1748.83 1193.5 1750.32 1198.38C1751.89 1203.26 1752.67 1209.22 1752.67 1216.25V1285H1740.95V1216.15C1740.95 1208.86 1739.94 1203.16 1737.92 1199.06C1735.9 1194.9 1733.04 1191.93 1729.33 1190.18C1725.62 1188.42 1721.22 1187.54 1716.14 1187.54C1710.55 1187.54 1705.63 1188.78 1701.4 1191.25C1697.23 1193.66 1693.72 1196.82 1690.85 1200.72C1688.05 1204.56 1685.9 1208.7 1684.41 1213.12C1682.91 1217.49 1682.1 1221.65 1681.96 1225.62ZM1776.5 1233.83V1230.61C1776.5 1222.92 1777.6 1215.83 1779.82 1209.32C1782.03 1202.81 1785.19 1197.17 1789.29 1192.42C1793.46 1187.67 1798.44 1183.99 1804.23 1181.39C1810.02 1178.72 1816.47 1177.38 1823.57 1177.38C1830.73 1177.38 1837.21 1178.72 1843 1181.39C1848.79 1183.99 1853.77 1187.67 1857.94 1192.42C1862.11 1197.17 1865.3 1202.81 1867.51 1209.32C1869.73 1215.83 1870.83 1222.92 1870.83 1230.61V1233.83C1870.83 1241.51 1869.73 1248.61 1867.51 1255.12C1865.3 1261.56 1862.11 1267.16 1857.94 1271.91C1853.84 1276.67 1848.89 1280.38 1843.1 1283.05C1837.3 1285.65 1830.86 1286.95 1823.76 1286.95C1816.6 1286.95 1810.12 1285.65 1804.33 1283.05C1798.53 1280.38 1793.55 1276.67 1789.39 1271.91C1785.22 1267.16 1782.03 1261.56 1779.82 1255.12C1777.6 1248.61 1776.5 1241.51 1776.5 1233.83ZM1788.12 1230.61V1233.83C1788.12 1239.62 1788.9 1245.12 1790.46 1250.33C1792.02 1255.48 1794.3 1260.07 1797.3 1264.1C1800.29 1268.07 1804 1271.2 1808.43 1273.48C1812.86 1275.76 1817.97 1276.89 1823.76 1276.89C1829.49 1276.89 1834.54 1275.76 1838.9 1273.48C1843.33 1271.2 1847.04 1268.07 1850.03 1264.1C1853.03 1260.07 1855.27 1255.48 1856.77 1250.33C1858.33 1245.12 1859.11 1239.62 1859.11 1233.83V1230.61C1859.11 1224.88 1858.33 1219.44 1856.77 1214.3C1855.27 1209.15 1852.99 1204.56 1849.93 1200.53C1846.94 1196.49 1843.23 1193.3 1838.8 1190.96C1834.37 1188.61 1829.3 1187.44 1823.57 1187.44C1817.84 1187.44 1812.76 1188.61 1808.33 1190.96C1803.97 1193.3 1800.26 1196.49 1797.2 1200.53C1794.2 1204.56 1791.93 1209.15 1790.36 1214.3C1788.87 1219.44 1788.12 1224.88 1788.12 1230.61ZM1984.7 1286.95C1977.8 1286.95 1971.45 1285.68 1965.66 1283.14C1959.93 1280.61 1954.91 1277.02 1950.62 1272.4C1946.39 1267.78 1943.1 1262.31 1940.75 1256C1938.48 1249.62 1937.34 1242.65 1937.34 1235.1V1230.9C1937.34 1222.76 1938.54 1215.4 1940.95 1208.83C1943.36 1202.25 1946.68 1196.62 1950.91 1191.93C1955.14 1187.25 1959.96 1183.67 1965.36 1181.19C1970.83 1178.65 1976.56 1177.38 1982.55 1177.38C1989.26 1177.38 1995.21 1178.59 2000.42 1181C2005.63 1183.34 2009.99 1186.69 2013.51 1191.05C2017.09 1195.35 2019.79 1200.46 2021.61 1206.39C2023.44 1212.25 2024.35 1218.72 2024.35 1225.82V1232.95H1944.37V1222.99H2012.73V1221.62C2012.6 1215.7 2011.39 1210.16 2009.11 1205.02C2006.9 1199.81 2003.58 1195.58 1999.15 1192.32C1994.73 1189.07 1989.19 1187.44 1982.55 1187.44C1977.6 1187.44 1973.05 1188.48 1968.88 1190.57C1964.78 1192.65 1961.23 1195.64 1958.23 1199.55C1955.3 1203.39 1953.03 1207.98 1951.4 1213.32C1949.84 1218.59 1949.05 1224.45 1949.05 1230.9V1235.1C1949.05 1240.96 1949.9 1246.43 1951.59 1251.5C1953.35 1256.52 1955.83 1260.94 1959.02 1264.79C1962.27 1268.63 1966.11 1271.62 1970.54 1273.77C1974.97 1275.92 1979.85 1276.99 1985.19 1276.99C1991.44 1276.99 1996.97 1275.85 2001.79 1273.57C2006.61 1271.23 2010.94 1267.55 2014.78 1262.54L2022.1 1268.2C2019.82 1271.59 2016.96 1274.71 2013.51 1277.58C2010.12 1280.44 2006.05 1282.72 2001.3 1284.41C1996.55 1286.11 1991.01 1286.95 1984.7 1286.95ZM2051.98 1179.34L2080.5 1222.01L2109.11 1179.34H2122.98L2087.14 1231.09L2124.45 1285H2110.77L2080.6 1240.37L2050.52 1285H2036.85L2074.15 1231.09L2038.31 1179.34H2051.98ZM2157.84 1179.34V1285H2146.22V1179.34H2157.84ZM2144.17 1148.77C2144.17 1146.56 2144.86 1144.7 2146.22 1143.2C2147.65 1141.64 2149.61 1140.86 2152.08 1140.86C2154.56 1140.86 2156.51 1141.64 2157.94 1143.2C2159.44 1144.7 2160.19 1146.56 2160.19 1148.77C2160.19 1150.92 2159.44 1152.77 2157.94 1154.34C2156.51 1155.83 2154.56 1156.58 2152.08 1156.58C2149.61 1156.58 2147.65 1155.83 2146.22 1154.34C2144.86 1152.77 2144.17 1150.92 2144.17 1148.77ZM2253.06 1258.05C2253.06 1255.18 2252.34 1252.35 2250.91 1249.55C2249.48 1246.75 2246.71 1244.18 2242.61 1241.84C2238.57 1239.49 2232.62 1237.51 2224.74 1235.88C2218.88 1234.58 2213.64 1233.11 2209.02 1231.48C2204.46 1229.86 2200.62 1227.9 2197.49 1225.62C2194.37 1223.35 2191.99 1220.61 2190.36 1217.42C2188.74 1214.23 2187.92 1210.46 2187.92 1206.09C2187.92 1202.19 2188.77 1198.51 2190.46 1195.06C2192.22 1191.54 2194.69 1188.48 2197.88 1185.88C2201.14 1183.21 2205.04 1181.13 2209.6 1179.63C2214.22 1178.13 2219.4 1177.38 2225.13 1177.38C2233.27 1177.38 2240.23 1178.78 2246.03 1181.58C2251.89 1184.32 2256.35 1188.06 2259.41 1192.81C2262.53 1197.57 2264.09 1202.94 2264.09 1208.93H2252.47C2252.47 1205.28 2251.4 1201.83 2249.25 1198.57C2247.17 1195.32 2244.07 1192.65 2239.97 1190.57C2235.94 1188.48 2230.99 1187.44 2225.13 1187.44C2219.07 1187.44 2214.16 1188.35 2210.38 1190.18C2206.61 1192 2203.84 1194.31 2202.08 1197.11C2200.39 1199.91 2199.54 1202.81 2199.54 1205.8C2199.54 1208.14 2199.9 1210.29 2200.62 1212.25C2201.4 1214.13 2202.77 1215.89 2204.72 1217.52C2206.74 1219.15 2209.6 1220.68 2213.31 1222.11C2217.02 1223.54 2221.84 1224.94 2227.77 1226.31C2236.29 1228.2 2243.26 1230.51 2248.66 1233.24C2254.13 1235.91 2258.17 1239.23 2260.77 1243.2C2263.38 1247.11 2264.68 1251.86 2264.68 1257.46C2264.68 1261.82 2263.77 1265.83 2261.95 1269.47C2260.12 1273.05 2257.49 1276.15 2254.04 1278.75C2250.65 1281.35 2246.55 1283.37 2241.73 1284.8C2236.98 1286.24 2231.64 1286.95 2225.71 1286.95C2216.8 1286.95 2209.24 1285.49 2203.06 1282.56C2196.94 1279.56 2192.28 1275.66 2189.09 1270.84C2185.97 1265.96 2184.41 1260.78 2184.41 1255.31H2196.03C2196.42 1260.78 2198.14 1265.11 2201.2 1268.3C2204.26 1271.43 2208.01 1273.64 2212.43 1274.94C2216.93 1276.24 2221.35 1276.89 2225.71 1276.89C2231.7 1276.89 2236.72 1276.02 2240.75 1274.26C2244.79 1272.5 2247.85 1270.19 2249.93 1267.32C2252.02 1264.46 2253.06 1261.37 2253.06 1258.05ZM2331.09 1179.34V1188.91H2278.16V1179.34H2331.09ZM2297.59 1152.19H2309.21V1259.32C2309.21 1264.2 2309.86 1267.88 2311.16 1270.35C2312.47 1272.83 2314.16 1274.49 2316.24 1275.33C2318.33 1276.18 2320.57 1276.6 2322.98 1276.6C2324.74 1276.6 2326.43 1276.5 2328.06 1276.31C2329.69 1276.05 2331.15 1275.79 2332.45 1275.53L2332.94 1285.39C2331.51 1285.85 2329.65 1286.2 2327.38 1286.46C2325.1 1286.79 2322.82 1286.95 2320.54 1286.95C2316.05 1286.95 2312.08 1286.14 2308.62 1284.51C2305.17 1282.82 2302.47 1279.95 2300.52 1275.92C2298.57 1271.82 2297.59 1266.25 2297.59 1259.22V1152.19ZM2396.42 1286.95C2389.52 1286.95 2383.17 1285.68 2377.38 1283.14C2371.65 1280.61 2366.63 1277.02 2362.34 1272.4C2358.1 1267.78 2354.82 1262.31 2352.47 1256C2350.19 1249.62 2349.05 1242.65 2349.05 1235.1V1230.9C2349.05 1222.76 2350.26 1215.4 2352.67 1208.83C2355.08 1202.25 2358.4 1196.62 2362.63 1191.93C2366.86 1187.25 2371.68 1183.67 2377.08 1181.19C2382.55 1178.65 2388.28 1177.38 2394.27 1177.38C2400.98 1177.38 2406.93 1178.59 2412.14 1181C2417.35 1183.34 2421.71 1186.69 2425.23 1191.05C2428.81 1195.35 2431.51 1200.46 2433.33 1206.39C2435.15 1212.25 2436.07 1218.72 2436.07 1225.82V1232.95H2356.09V1222.99H2424.45V1221.62C2424.32 1215.7 2423.11 1210.16 2420.83 1205.02C2418.62 1199.81 2415.3 1195.58 2410.87 1192.32C2406.44 1189.07 2400.91 1187.44 2394.27 1187.44C2389.32 1187.44 2384.76 1188.48 2380.6 1190.57C2376.5 1192.65 2372.95 1195.64 2369.95 1199.55C2367.02 1203.39 2364.74 1207.98 2363.12 1213.32C2361.55 1218.59 2360.77 1224.45 2360.77 1230.9V1235.1C2360.77 1240.96 2361.62 1246.43 2363.31 1251.5C2365.07 1256.52 2367.54 1260.94 2370.73 1264.79C2373.99 1268.63 2377.83 1271.62 2382.26 1273.77C2386.68 1275.92 2391.57 1276.99 2396.91 1276.99C2403.16 1276.99 2408.69 1275.85 2413.51 1273.57C2418.33 1271.23 2422.65 1267.55 2426.5 1262.54L2433.82 1268.2C2431.54 1271.59 2428.68 1274.71 2425.23 1277.58C2421.84 1280.44 2417.77 1282.72 2413.02 1284.41C2408.27 1286.11 2402.73 1286.95 2396.42 1286.95ZM2458.04 1277.87C2458.04 1275.59 2458.76 1273.67 2460.19 1272.11C2461.68 1270.48 2463.7 1269.67 2466.24 1269.67C2468.85 1269.67 2470.9 1270.45 2472.39 1272.01C2473.89 1273.57 2474.64 1275.53 2474.64 1277.87C2474.64 1280.08 2473.89 1281.97 2472.39 1283.54C2470.9 1285.1 2468.85 1285.88 2466.24 1285.88C2463.7 1285.88 2461.68 1285.1 2460.19 1283.54C2458.76 1281.97 2458.04 1280.08 2458.04 1277.87Z" fill="black"/>
<defs>
<linearGradient id="paint0_linear_94_620" x1="2824" y1="287.472" x2="708" y2="287.471" gradientUnits="userSpaceOnUse">
<stop stop-color="#F9B956"/>
<stop offset="1" stop-color="#F9B956" stop-opacity="0"/>
</linearGradient>
</defs>
</svg>
