<svg width="207" height="51" viewBox="0 0 207 51" fill="none" xmlns="http://www.w3.org/2000/svg">
<path d="M62.7363 32.0469V35H52.7285V32.0469H62.7363ZM53.8633 15.0938V35H50.1035V15.0938H53.8633ZM73.127 31.8555V25.0332C73.127 24.5319 73.0404 24.099 72.8672 23.7344C72.694 23.3698 72.4297 23.0872 72.0742 22.8867C71.7188 22.6862 71.2676 22.5859 70.7207 22.5859C70.2376 22.5859 69.8138 22.668 69.4492 22.832C69.0938 22.9961 68.8203 23.2285 68.6289 23.5293C68.4375 23.821 68.3418 24.1582 68.3418 24.541H64.7188C64.7188 23.9303 64.8646 23.3516 65.1562 22.8047C65.4479 22.2487 65.8626 21.7565 66.4004 21.3281C66.9473 20.8906 67.599 20.5488 68.3555 20.3027C69.1211 20.0566 69.9779 19.9336 70.9258 19.9336C72.0469 19.9336 73.0449 20.125 73.9199 20.5078C74.804 20.8815 75.4967 21.4466 75.998 22.2031C76.5085 22.9596 76.7637 23.9121 76.7637 25.0605V31.5137C76.7637 32.252 76.8092 32.8854 76.9004 33.4141C77.0007 33.9336 77.1465 34.3848 77.3379 34.7676V35H73.6602C73.487 34.6263 73.3548 34.1523 73.2637 33.5781C73.1725 32.9948 73.127 32.4206 73.127 31.8555ZM73.6328 25.9902L73.6602 28.1367H71.377C70.8118 28.1367 70.3151 28.196 69.8867 28.3145C69.4583 28.4238 69.1074 28.5879 68.834 28.8066C68.5605 29.0163 68.3555 29.2715 68.2188 29.5723C68.082 29.8639 68.0137 30.1966 68.0137 30.5703C68.0137 30.9349 68.0957 31.263 68.2598 31.5547C68.4329 31.8464 68.679 32.0788 68.998 32.252C69.3262 32.416 69.709 32.498 70.1465 32.498C70.7845 32.498 71.3405 32.3704 71.8145 32.1152C72.2884 31.8509 72.6576 31.5319 72.9219 31.1582C73.1862 30.7845 73.3275 30.429 73.3457 30.0918L74.3848 31.6504C74.2572 32.0241 74.0658 32.4206 73.8105 32.8398C73.5553 33.2591 73.2272 33.651 72.8262 34.0156C72.4251 34.3802 71.9421 34.681 71.377 34.918C70.8118 35.1549 70.1556 35.2734 69.4082 35.2734C68.4512 35.2734 67.5944 35.082 66.8379 34.6992C66.0814 34.3164 65.4844 33.7923 65.0469 33.127C64.6094 32.4616 64.3906 31.7051 64.3906 30.8574C64.3906 30.0736 64.5365 29.3809 64.8281 28.7793C65.1198 28.1777 65.5527 27.6719 66.127 27.2617C66.7012 26.8424 67.4121 26.528 68.2598 26.3184C69.1165 26.0996 70.0964 25.9902 71.1992 25.9902H73.6328ZM80.0039 14H83.627V31.7324L83.2715 35H80.0039V14ZM93.1426 27.4531V27.7402C93.1426 28.8431 93.0195 29.8548 92.7734 30.7754C92.5365 31.696 92.1764 32.4935 91.6934 33.168C91.2103 33.8333 90.6087 34.3529 89.8887 34.7266C89.1777 35.0911 88.3438 35.2734 87.3867 35.2734C86.4753 35.2734 85.6823 35.0957 85.0078 34.7402C84.3424 34.3848 83.7819 33.8835 83.3262 33.2363C82.8704 32.5801 82.5059 31.8099 82.2324 30.9258C81.959 30.0326 81.7539 29.0573 81.6172 28V27.2207C81.7539 26.1543 81.959 25.179 82.2324 24.2949C82.5059 23.4108 82.8704 22.6406 83.3262 21.9844C83.7819 21.3281 84.3424 20.8223 85.0078 20.4668C85.6732 20.1113 86.457 19.9336 87.3594 19.9336C88.3255 19.9336 89.1686 20.1204 89.8887 20.4941C90.6178 20.8587 91.2194 21.3783 91.6934 22.0527C92.1764 22.7181 92.5365 23.5111 92.7734 24.4316C93.0195 25.3431 93.1426 26.3503 93.1426 27.4531ZM89.5195 27.7402V27.4531C89.5195 26.8242 89.4694 26.2318 89.3691 25.6758C89.2689 25.1107 89.1048 24.6139 88.877 24.1855C88.6491 23.7572 88.3392 23.4199 87.9473 23.1738C87.5553 22.9277 87.0632 22.8047 86.4707 22.8047C85.9056 22.8047 85.4225 22.9004 85.0215 23.0918C84.6296 23.2832 84.3014 23.5475 84.0371 23.8848C83.7819 24.222 83.5814 24.6185 83.4355 25.0742C83.2988 25.5299 83.2077 26.0221 83.1621 26.5508V28.6836C83.2259 29.3854 83.3763 30.0189 83.6133 30.584C83.8503 31.14 84.2012 31.582 84.666 31.9102C85.14 32.2383 85.7507 32.4023 86.498 32.4023C87.0814 32.4023 87.569 32.2884 87.9609 32.0605C88.3529 31.8236 88.6628 31.4954 88.8906 31.0762C89.1185 30.6478 89.278 30.151 89.3691 29.5859C89.4694 29.0208 89.5195 28.4056 89.5195 27.7402ZM95.125 27.7539V27.4668C95.125 26.3822 95.2799 25.3841 95.5898 24.4727C95.8997 23.5521 96.3509 22.7546 96.9434 22.0801C97.5358 21.4056 98.2604 20.8815 99.1172 20.5078C99.974 20.125 100.949 19.9336 102.043 19.9336C103.155 19.9336 104.139 20.125 104.996 20.5078C105.862 20.8815 106.591 21.4056 107.184 22.0801C107.776 22.7546 108.227 23.5521 108.537 24.4727C108.847 25.3841 109.002 26.3822 109.002 27.4668V27.7539C109.002 28.8294 108.847 29.8275 108.537 30.748C108.227 31.6595 107.776 32.457 107.184 33.1406C106.591 33.8151 105.867 34.3392 105.01 34.7129C104.153 35.0866 103.173 35.2734 102.07 35.2734C100.977 35.2734 99.9967 35.0866 99.1309 34.7129C98.265 34.3392 97.5358 33.8151 96.9434 33.1406C96.3509 32.457 95.8997 31.6595 95.5898 30.748C95.2799 29.8275 95.125 28.8294 95.125 27.7539ZM98.7344 27.4668V27.7539C98.7344 28.401 98.7982 29.0072 98.9258 29.5723C99.0534 30.1374 99.2493 30.6341 99.5137 31.0625C99.778 31.4909 100.12 31.8281 100.539 32.0742C100.967 32.3112 101.478 32.4297 102.07 32.4297C102.654 32.4297 103.155 32.3112 103.574 32.0742C103.993 31.8281 104.335 31.4909 104.6 31.0625C104.873 30.6341 105.074 30.1374 105.201 29.5723C105.329 29.0072 105.393 28.401 105.393 27.7539V27.4668C105.393 26.8288 105.329 26.2318 105.201 25.6758C105.074 25.1107 104.873 24.6139 104.6 24.1855C104.335 23.748 103.989 23.4062 103.561 23.1602C103.141 22.9049 102.635 22.7773 102.043 22.7773C101.46 22.7773 100.958 22.9049 100.539 23.1602C100.12 23.4062 99.778 23.748 99.5137 24.1855C99.2493 24.6139 99.0534 25.1107 98.9258 25.6758C98.7982 26.2318 98.7344 26.8288 98.7344 27.4668ZM115.236 23.2285V35H111.627V20.207H115.045L115.236 23.2285ZM119.734 20.1113L119.68 23.4746C119.479 23.4382 119.251 23.4108 118.996 23.3926C118.75 23.3743 118.518 23.3652 118.299 23.3652C117.743 23.3652 117.255 23.4427 116.836 23.5977C116.417 23.7435 116.066 23.9577 115.783 24.2402C115.51 24.5228 115.3 24.8691 115.154 25.2793C115.008 25.6803 114.926 26.1361 114.908 26.6465L114.129 26.5508C114.129 25.612 114.225 24.7415 114.416 23.9395C114.607 23.1374 114.885 22.4355 115.25 21.834C115.615 21.2324 116.07 20.7676 116.617 20.4395C117.173 20.1022 117.811 19.9336 118.531 19.9336C118.732 19.9336 118.946 19.9518 119.174 19.9883C119.411 20.0156 119.598 20.0566 119.734 20.1113ZM129.4 31.8555V25.0332C129.4 24.5319 129.314 24.099 129.141 23.7344C128.967 23.3698 128.703 23.0872 128.348 22.8867C127.992 22.6862 127.541 22.5859 126.994 22.5859C126.511 22.5859 126.087 22.668 125.723 22.832C125.367 22.9961 125.094 23.2285 124.902 23.5293C124.711 23.821 124.615 24.1582 124.615 24.541H120.992C120.992 23.9303 121.138 23.3516 121.43 22.8047C121.721 22.2487 122.136 21.7565 122.674 21.3281C123.221 20.8906 123.872 20.5488 124.629 20.3027C125.395 20.0566 126.251 19.9336 127.199 19.9336C128.32 19.9336 129.318 20.125 130.193 20.5078C131.077 20.8815 131.77 21.4466 132.271 22.2031C132.782 22.9596 133.037 23.9121 133.037 25.0605V31.5137C133.037 32.252 133.083 32.8854 133.174 33.4141C133.274 33.9336 133.42 34.3848 133.611 34.7676V35H129.934C129.76 34.6263 129.628 34.1523 129.537 33.5781C129.446 32.9948 129.4 32.4206 129.4 31.8555ZM129.906 25.9902L129.934 28.1367H127.65C127.085 28.1367 126.589 28.196 126.16 28.3145C125.732 28.4238 125.381 28.5879 125.107 28.8066C124.834 29.0163 124.629 29.2715 124.492 29.5723C124.355 29.8639 124.287 30.1966 124.287 30.5703C124.287 30.9349 124.369 31.263 124.533 31.5547C124.706 31.8464 124.952 32.0788 125.271 32.252C125.6 32.416 125.982 32.498 126.42 32.498C127.058 32.498 127.614 32.3704 128.088 32.1152C128.562 31.8509 128.931 31.5319 129.195 31.1582C129.46 30.7845 129.601 30.429 129.619 30.0918L130.658 31.6504C130.531 32.0241 130.339 32.4206 130.084 32.8398C129.829 33.2591 129.501 33.651 129.1 34.0156C128.699 34.3802 128.215 34.681 127.65 34.918C127.085 35.1549 126.429 35.2734 125.682 35.2734C124.725 35.2734 123.868 35.082 123.111 34.6992C122.355 34.3164 121.758 33.7923 121.32 33.127C120.883 32.4616 120.664 31.7051 120.664 30.8574C120.664 30.0736 120.81 29.3809 121.102 28.7793C121.393 28.1777 121.826 27.6719 122.4 27.2617C122.975 26.8424 123.686 26.528 124.533 26.3184C125.39 26.0996 126.37 25.9902 127.473 25.9902H129.906ZM143.291 20.207V22.8047H134.814V20.207H143.291ZM137.084 16.5703H140.707V30.7344C140.707 31.1719 140.766 31.5091 140.885 31.7461C141.003 31.9831 141.181 32.1426 141.418 32.2246C141.655 32.3066 141.938 32.3477 142.266 32.3477C142.503 32.3477 142.721 32.334 142.922 32.3066C143.122 32.2793 143.291 32.252 143.428 32.2246L143.441 34.9316C143.141 35.0319 142.799 35.1139 142.416 35.1777C142.042 35.2415 141.618 35.2734 141.145 35.2734C140.333 35.2734 139.622 35.1367 139.012 34.8633C138.401 34.5807 137.927 34.1296 137.59 33.5098C137.253 32.8809 137.084 32.0514 137.084 31.0215V16.5703ZM144.699 27.7539V27.4668C144.699 26.3822 144.854 25.3841 145.164 24.4727C145.474 23.5521 145.925 22.7546 146.518 22.0801C147.11 21.4056 147.835 20.8815 148.691 20.5078C149.548 20.125 150.523 19.9336 151.617 19.9336C152.729 19.9336 153.714 20.125 154.57 20.5078C155.436 20.8815 156.165 21.4056 156.758 22.0801C157.35 22.7546 157.801 23.5521 158.111 24.4727C158.421 25.3841 158.576 26.3822 158.576 27.4668V27.7539C158.576 28.8294 158.421 29.8275 158.111 30.748C157.801 31.6595 157.35 32.457 156.758 33.1406C156.165 33.8151 155.441 34.3392 154.584 34.7129C153.727 35.0866 152.747 35.2734 151.645 35.2734C150.551 35.2734 149.571 35.0866 148.705 34.7129C147.839 34.3392 147.11 33.8151 146.518 33.1406C145.925 32.457 145.474 31.6595 145.164 30.748C144.854 29.8275 144.699 28.8294 144.699 27.7539ZM148.309 27.4668V27.7539C148.309 28.401 148.372 29.0072 148.5 29.5723C148.628 30.1374 148.824 30.6341 149.088 31.0625C149.352 31.4909 149.694 31.8281 150.113 32.0742C150.542 32.3112 151.052 32.4297 151.645 32.4297C152.228 32.4297 152.729 32.3112 153.148 32.0742C153.568 31.8281 153.91 31.4909 154.174 31.0625C154.447 30.6341 154.648 30.1374 154.775 29.5723C154.903 29.0072 154.967 28.401 154.967 27.7539V27.4668C154.967 26.8288 154.903 26.2318 154.775 25.6758C154.648 25.1107 154.447 24.6139 154.174 24.1855C153.91 23.748 153.563 23.4062 153.135 23.1602C152.715 22.9049 152.21 22.7773 151.617 22.7773C151.034 22.7773 150.533 22.9049 150.113 23.1602C149.694 23.4062 149.352 23.748 149.088 24.1855C148.824 24.6139 148.628 25.1107 148.5 25.6758C148.372 26.2318 148.309 26.8288 148.309 27.4668ZM164.811 23.2285V35H161.201V20.207H164.619L164.811 23.2285ZM169.309 20.1113L169.254 23.4746C169.053 23.4382 168.826 23.4108 168.57 23.3926C168.324 23.3743 168.092 23.3652 167.873 23.3652C167.317 23.3652 166.829 23.4427 166.41 23.5977C165.991 23.7435 165.64 23.9577 165.357 24.2402C165.084 24.5228 164.874 24.8691 164.729 25.2793C164.583 25.6803 164.501 26.1361 164.482 26.6465L163.703 26.5508C163.703 25.612 163.799 24.7415 163.99 23.9395C164.182 23.1374 164.46 22.4355 164.824 21.834C165.189 21.2324 165.645 20.7676 166.191 20.4395C166.747 20.1022 167.385 19.9336 168.105 19.9336C168.306 19.9336 168.52 19.9518 168.748 19.9883C168.985 20.0156 169.172 20.0566 169.309 20.1113ZM175.119 20.207V35H171.496V20.207H175.119ZM171.25 16.3379C171.25 15.8001 171.432 15.3535 171.797 14.998C172.171 14.6426 172.672 14.4648 173.301 14.4648C173.93 14.4648 174.426 14.6426 174.791 14.998C175.165 15.3535 175.352 15.8001 175.352 16.3379C175.352 16.8665 175.165 17.3086 174.791 17.6641C174.426 18.0195 173.93 18.1973 173.301 18.1973C172.672 18.1973 172.171 18.0195 171.797 17.6641C171.432 17.3086 171.25 16.8665 171.25 16.3379ZM177.922 27.7539V27.4668C177.922 26.3822 178.077 25.3841 178.387 24.4727C178.697 23.5521 179.148 22.7546 179.74 22.0801C180.333 21.4056 181.057 20.8815 181.914 20.5078C182.771 20.125 183.746 19.9336 184.84 19.9336C185.952 19.9336 186.936 20.125 187.793 20.5078C188.659 20.8815 189.388 21.4056 189.98 22.0801C190.573 22.7546 191.024 23.5521 191.334 24.4727C191.644 25.3841 191.799 26.3822 191.799 27.4668V27.7539C191.799 28.8294 191.644 29.8275 191.334 30.748C191.024 31.6595 190.573 32.457 189.98 33.1406C189.388 33.8151 188.663 34.3392 187.807 34.7129C186.95 35.0866 185.97 35.2734 184.867 35.2734C183.773 35.2734 182.794 35.0866 181.928 34.7129C181.062 34.3392 180.333 33.8151 179.74 33.1406C179.148 32.457 178.697 31.6595 178.387 30.748C178.077 29.8275 177.922 28.8294 177.922 27.7539ZM181.531 27.4668V27.7539C181.531 28.401 181.595 29.0072 181.723 29.5723C181.85 30.1374 182.046 30.6341 182.311 31.0625C182.575 31.4909 182.917 31.8281 183.336 32.0742C183.764 32.3112 184.275 32.4297 184.867 32.4297C185.451 32.4297 185.952 32.3112 186.371 32.0742C186.79 31.8281 187.132 31.4909 187.396 31.0625C187.67 30.6341 187.87 30.1374 187.998 29.5723C188.126 29.0072 188.189 28.401 188.189 27.7539V27.4668C188.189 26.8288 188.126 26.2318 187.998 25.6758C187.87 25.1107 187.67 24.6139 187.396 24.1855C187.132 23.748 186.786 23.4062 186.357 23.1602C185.938 22.9049 185.432 22.7773 184.84 22.7773C184.257 22.7773 183.755 22.9049 183.336 23.1602C182.917 23.4062 182.575 23.748 182.311 24.1855C182.046 24.6139 181.85 25.1107 181.723 25.6758C181.595 26.2318 181.531 26.8288 181.531 27.4668Z" fill="#333333"/>
<path fill-rule="evenodd" clip-rule="evenodd" d="M19.2477 7.94626C19.2477 7.6953 19.3474 7.45461 19.5248 7.27715C19.7023 7.0997 19.943 7 20.1939 7H23.979C24.2299 7 24.4706 7.0997 24.6481 7.27715C24.8255 7.45461 24.9252 7.6953 24.9252 7.94626C24.9252 8.19722 24.8255 8.43791 24.6481 8.61537C24.4706 8.79283 24.2299 8.89252 23.979 8.89252H20.1939C19.943 8.89252 19.7023 8.79283 19.5248 8.61537C19.3474 8.43791 19.2477 8.19722 19.2477 7.94626Z" fill="#E73567"/>
<path fill-rule="evenodd" clip-rule="evenodd" d="M19.2477 7.94626C19.2477 7.6953 19.3474 7.45461 19.5248 7.27715C19.7023 7.0997 19.943 7 20.1939 7H23.979C24.2299 7 24.4706 7.0997 24.6481 7.27715C24.8255 7.45461 24.9252 7.6953 24.9252 7.94626C24.9252 8.19722 24.8255 8.43791 24.6481 8.61537C24.4706 8.79283 24.2299 8.89252 23.979 8.89252H20.1939C19.943 8.89252 19.7023 8.79283 19.5248 8.61537C19.3474 8.43791 19.2477 8.19722 19.2477 7.94626Z" fill="url(#paint0_linear_73_229)"/>
<path fill-rule="evenodd" clip-rule="evenodd" d="M22.0864 7C22.3374 7 22.5781 7.0997 22.7555 7.27715C22.933 7.45461 23.0327 7.6953 23.0327 7.94626V11.7313C23.0327 11.9823 22.933 12.2229 22.7555 12.4004C22.5781 12.5779 22.3374 12.6776 22.0864 12.6776C21.8355 12.6776 21.5948 12.5779 21.4173 12.4004C21.2399 12.2229 21.1402 11.9823 21.1402 11.7313V7.94626C21.1402 7.6953 21.2399 7.45461 21.4173 7.27715C21.5948 7.0997 21.8355 7 22.0864 7ZM6.94626 20.2476C7.19722 20.2476 7.43791 20.3473 7.61537 20.5248C7.79283 20.7023 7.89252 20.9429 7.89252 21.1939V24.9789C7.89252 25.2299 7.79283 25.4706 7.61537 25.6481C7.43791 25.8255 7.19722 25.9252 6.94626 25.9252C6.6953 25.9252 6.45461 25.8255 6.27715 25.6481C6.0997 25.4706 6 25.2299 6 24.9789V21.1939C6 20.9429 6.0997 20.7023 6.27715 20.5248C6.45461 20.3473 6.6953 20.2476 6.94626 20.2476Z" fill="#E73567"/>
<path fill-rule="evenodd" clip-rule="evenodd" d="M22.0864 7C22.3374 7 22.5781 7.0997 22.7555 7.27715C22.933 7.45461 23.0327 7.6953 23.0327 7.94626V11.7313C23.0327 11.9823 22.933 12.2229 22.7555 12.4004C22.5781 12.5779 22.3374 12.6776 22.0864 12.6776C21.8355 12.6776 21.5948 12.5779 21.4173 12.4004C21.2399 12.2229 21.1402 11.9823 21.1402 11.7313V7.94626C21.1402 7.6953 21.2399 7.45461 21.4173 7.27715C21.5948 7.0997 21.8355 7 22.0864 7ZM6.94626 20.2476C7.19722 20.2476 7.43791 20.3473 7.61537 20.5248C7.79283 20.7023 7.89252 20.9429 7.89252 21.1939V24.9789C7.89252 25.2299 7.79283 25.4706 7.61537 25.6481C7.43791 25.8255 7.19722 25.9252 6.94626 25.9252C6.6953 25.9252 6.45461 25.8255 6.27715 25.6481C6.0997 25.4706 6 25.2299 6 24.9789V21.1939C6 20.9429 6.0997 20.7023 6.27715 20.5248C6.45461 20.3473 6.6953 20.2476 6.94626 20.2476Z" fill="url(#paint1_linear_73_229)"/>
<path fill-rule="evenodd" clip-rule="evenodd" d="M6 23.0864C6 22.8355 6.0997 22.5948 6.27715 22.4173C6.45461 22.2399 6.6953 22.1402 6.94626 22.1402H10.7313C10.9823 22.1402 11.2229 22.2399 11.4004 22.4173C11.5779 22.5948 11.6776 22.8355 11.6776 23.0864C11.6776 23.3374 11.5779 23.5781 11.4004 23.7556C11.2229 23.933 10.9823 24.0327 10.7313 24.0327H6.94626C6.6953 24.0327 6.45461 23.933 6.27715 23.7556C6.0997 23.5781 6 23.3374 6 23.0864ZM30.7844 10.3734C30.8723 10.2855 30.9767 10.2157 31.0916 10.168C31.2064 10.1204 31.3296 10.0959 31.4539 10.0959C31.5783 10.0959 31.7014 10.1204 31.8163 10.168C31.9312 10.2157 32.0355 10.2855 32.1234 10.3734L34.7994 13.0495C34.977 13.2269 35.0768 13.4676 35.0769 13.7186C35.077 13.9696 34.9773 14.2104 34.7999 14.388C34.6225 14.5655 34.3818 14.6653 34.1308 14.6654C33.8797 14.6655 33.639 14.5659 33.4614 14.3884L30.7844 11.7115C30.6071 11.534 30.5074 11.2934 30.5074 11.0424C30.5074 10.7915 30.6071 10.5509 30.7844 10.3734Z" fill="#E73567"/>
<path fill-rule="evenodd" clip-rule="evenodd" d="M6 23.0864C6 22.8355 6.0997 22.5948 6.27715 22.4173C6.45461 22.2399 6.6953 22.1402 6.94626 22.1402H10.7313C10.9823 22.1402 11.2229 22.2399 11.4004 22.4173C11.5779 22.5948 11.6776 22.8355 11.6776 23.0864C11.6776 23.3374 11.5779 23.5781 11.4004 23.7556C11.2229 23.933 10.9823 24.0327 10.7313 24.0327H6.94626C6.6953 24.0327 6.45461 23.933 6.27715 23.7556C6.0997 23.5781 6 23.3374 6 23.0864ZM30.7844 10.3734C30.8723 10.2855 30.9767 10.2157 31.0916 10.168C31.2064 10.1204 31.3296 10.0959 31.4539 10.0959C31.5783 10.0959 31.7014 10.1204 31.8163 10.168C31.9312 10.2157 32.0355 10.2855 32.1234 10.3734L34.7994 13.0495C34.977 13.2269 35.0768 13.4676 35.0769 13.7186C35.077 13.9696 34.9773 14.2104 34.7999 14.388C34.6225 14.5655 34.3818 14.6653 34.1308 14.6654C33.8797 14.6655 33.639 14.5659 33.4614 14.3884L30.7844 11.7115C30.6071 11.534 30.5074 11.2934 30.5074 11.0424C30.5074 10.7915 30.6071 10.5509 30.7844 10.3734Z" fill="url(#paint2_linear_73_229)"/>
<path fill-rule="evenodd" clip-rule="evenodd" d="M33.4606 11.7124C33.6377 11.8898 33.7371 12.1303 33.7371 12.3809C33.7371 12.6316 33.6377 12.8721 33.4606 13.0495L30.7845 15.7264C30.6061 15.8988 30.3671 15.9942 30.1189 15.992C29.8708 15.9899 29.6335 15.8904 29.4581 15.7149C29.2826 15.5395 29.1831 15.3021 29.1809 15.054C29.1788 14.8059 29.2742 14.5669 29.4465 14.3884L32.1235 11.7115C32.301 11.5341 32.5416 11.4344 32.7925 11.4344C33.0434 11.4344 33.2841 11.5341 33.4615 11.7115L33.4606 11.7124ZM13.3885 10.3734C13.5659 10.5509 13.6655 10.7915 13.6655 11.0424C13.6655 11.2934 13.5659 11.534 13.3885 11.7115L10.7115 14.3884C10.534 14.5659 10.2932 14.6655 10.0422 14.6654C9.79117 14.6653 9.55047 14.5655 9.37304 14.388C9.19561 14.2104 9.09598 13.9696 9.09607 13.7186C9.09616 13.4676 9.19596 13.2269 9.37352 13.0495L12.0495 10.3734C12.1374 10.2855 12.2418 10.2157 12.3567 10.168C12.4715 10.1204 12.5947 10.0959 12.719 10.0959C12.8434 10.0959 12.9665 10.1204 13.0814 10.168C13.1963 10.2157 13.3006 10.2855 13.3885 10.3734Z" fill="#E73567"/>
<path fill-rule="evenodd" clip-rule="evenodd" d="M33.4606 11.7124C33.6377 11.8898 33.7371 12.1303 33.7371 12.3809C33.7371 12.6316 33.6377 12.8721 33.4606 13.0495L30.7845 15.7264C30.6061 15.8988 30.3671 15.9942 30.1189 15.992C29.8708 15.9899 29.6335 15.8904 29.4581 15.7149C29.2826 15.5395 29.1831 15.3021 29.1809 15.054C29.1788 14.8059 29.2742 14.5669 29.4465 14.3884L32.1235 11.7115C32.301 11.5341 32.5416 11.4344 32.7925 11.4344C33.0434 11.4344 33.2841 11.5341 33.4615 11.7115L33.4606 11.7124ZM13.3885 10.3734C13.5659 10.5509 13.6655 10.7915 13.6655 11.0424C13.6655 11.2934 13.5659 11.534 13.3885 11.7115L10.7115 14.3884C10.534 14.5659 10.2932 14.6655 10.0422 14.6654C9.79117 14.6653 9.55047 14.5655 9.37304 14.388C9.19561 14.2104 9.09598 13.9696 9.09607 13.7186C9.09616 13.4676 9.19596 13.2269 9.37352 13.0495L12.0495 10.3734C12.1374 10.2855 12.2418 10.2157 12.3567 10.168C12.4715 10.1204 12.5947 10.0959 12.719 10.0959C12.8434 10.0959 12.9665 10.1204 13.0814 10.168C13.1963 10.2157 13.3006 10.2855 13.3885 10.3734Z" fill="url(#paint3_linear_73_229)"/>
<path fill-rule="evenodd" clip-rule="evenodd" d="M10.7124 11.7124C10.8898 11.5353 11.1302 11.4358 11.3809 11.4358C11.6316 11.4358 11.872 11.5353 12.0494 11.7124L14.7264 14.3884C14.8988 14.5669 14.9942 14.8059 14.992 15.054C14.9898 15.3021 14.8903 15.5394 14.7149 15.7149C14.5394 15.8903 14.3021 15.9898 14.054 15.992C13.8059 15.9942 13.5669 15.8988 13.3884 15.7264L10.7114 13.0494C10.534 12.872 10.4344 12.6313 10.4344 12.3804C10.4344 12.1295 10.534 11.8889 10.7114 11.7114L10.7124 11.7124ZM13.3884 35.7994C13.3005 35.8874 13.1962 35.9572 13.0813 36.0048C12.9664 36.0524 12.8433 36.0769 12.7189 36.0769C12.5946 36.0769 12.4714 36.0524 12.3566 36.0048C12.2417 35.9572 12.1373 35.8874 12.0494 35.7994L9.37341 33.1234C9.20105 32.9449 9.10567 32.7059 9.10782 32.4578C9.10998 32.2097 9.2095 31.9724 9.38494 31.7969C9.56039 31.6215 9.79772 31.522 10.0458 31.5198C10.2939 31.5176 10.533 31.613 10.7114 31.7854L13.3884 34.4614C13.5658 34.6389 13.6654 34.8795 13.6654 35.1304C13.6654 35.3813 13.5658 35.622 13.3884 35.7994Z" fill="#E73567"/>
<path fill-rule="evenodd" clip-rule="evenodd" d="M10.7124 11.7124C10.8898 11.5353 11.1302 11.4358 11.3809 11.4358C11.6316 11.4358 11.872 11.5353 12.0494 11.7124L14.7264 14.3884C14.8988 14.5669 14.9942 14.8059 14.992 15.054C14.9898 15.3021 14.8903 15.5394 14.7149 15.7149C14.5394 15.8903 14.3021 15.9898 14.054 15.992C13.8059 15.9942 13.5669 15.8988 13.3884 15.7264L10.7114 13.0494C10.534 12.872 10.4344 12.6313 10.4344 12.3804C10.4344 12.1295 10.534 11.8889 10.7114 11.7114L10.7124 11.7124ZM13.3884 35.7994C13.3005 35.8874 13.1962 35.9572 13.0813 36.0048C12.9664 36.0524 12.8433 36.0769 12.7189 36.0769C12.5946 36.0769 12.4714 36.0524 12.3566 36.0048C12.2417 35.9572 12.1373 35.8874 12.0494 35.7994L9.37341 33.1234C9.20105 32.9449 9.10567 32.7059 9.10782 32.4578C9.10998 32.2097 9.2095 31.9724 9.38494 31.7969C9.56039 31.6215 9.79772 31.522 10.0458 31.5198C10.2939 31.5176 10.533 31.613 10.7114 31.7854L13.3884 34.4614C13.5658 34.6389 13.6654 34.8795 13.6654 35.1304C13.6654 35.3813 13.5658 35.622 13.3884 35.7994Z" fill="url(#paint4_linear_73_229)"/>
<path fill-rule="evenodd" clip-rule="evenodd" d="M10.7124 34.4605C10.5353 34.2831 10.4358 34.0426 10.4358 33.792C10.4358 33.5413 10.5353 33.3008 10.7124 33.1234L13.3884 30.4464C13.566 30.269 13.8067 30.1694 14.0577 30.1695C14.3087 30.1696 14.5494 30.2694 14.7269 30.4469C14.9043 30.6245 15.0039 30.8652 15.0039 31.1163C15.0038 31.3673 14.904 31.608 14.7264 31.7854L12.0494 34.4614C11.872 34.6388 11.6313 34.7385 11.3804 34.7385C11.1295 34.7385 10.8889 34.6388 10.7114 34.4614L10.7124 34.4605ZM18.7745 19.3014C18.3981 19.3014 18.037 19.4509 17.7708 19.7171C17.5047 19.9833 17.3551 20.3443 17.3551 20.7208C17.3551 21.0972 17.5047 21.4583 17.7708 21.7244C18.037 21.9906 18.3981 22.1402 18.7745 22.1402C19.151 22.1402 19.512 21.9906 19.7782 21.7244C20.0444 21.4583 20.1939 21.0972 20.1939 20.7208C20.1939 20.3443 20.0444 19.9833 19.7782 19.7171C19.512 19.4509 19.151 19.3014 18.7745 19.3014ZM15.4626 20.7208C15.4626 19.8424 15.8115 19 16.4326 18.3789C17.0537 17.7578 17.8961 17.4089 18.7745 17.4089C19.6529 17.4089 20.4953 17.7578 21.1164 18.3789C21.7375 19 22.0864 19.8424 22.0864 20.7208C22.0864 21.5992 21.7375 22.4416 21.1164 23.0627C20.4953 23.6838 19.6529 24.0327 18.7745 24.0327C17.8961 24.0327 17.0537 23.6838 16.4326 23.0627C15.8115 22.4416 15.4626 21.5992 15.4626 20.7208ZM30.1296 24.979C28.4984 24.979 26.9339 25.627 25.7804 26.7805C24.627 27.9339 23.9789 29.4984 23.9789 31.1296C23.9789 32.7609 24.627 34.3254 25.7804 35.4788C26.9339 36.6323 28.4984 37.2803 30.1296 37.2803C31.7609 37.2803 33.3253 36.6323 34.4788 35.4788C35.6323 34.3254 36.2803 32.7609 36.2803 31.1296C36.2803 29.4984 35.6323 27.9339 34.4788 26.7805C33.3253 25.627 31.7609 24.979 30.1296 24.979ZM22.0864 31.1296C22.0864 28.9965 22.9338 26.9506 24.4422 25.4422C25.9506 23.9338 27.9964 23.0864 30.1296 23.0864C32.2628 23.0864 34.3086 23.9338 35.817 25.4422C37.3254 26.9506 38.1728 28.9965 38.1728 31.1296C38.1728 33.2628 37.3254 35.3087 35.817 36.8171C34.3086 38.3255 32.2628 39.1729 30.1296 39.1729C27.9964 39.1729 25.9506 38.3255 24.4422 36.8171C22.9338 35.3087 22.0864 33.2628 22.0864 31.1296Z" fill="#E73567"/>
<path fill-rule="evenodd" clip-rule="evenodd" d="M10.7124 34.4605C10.5353 34.2831 10.4358 34.0426 10.4358 33.792C10.4358 33.5413 10.5353 33.3008 10.7124 33.1234L13.3884 30.4464C13.566 30.269 13.8067 30.1694 14.0577 30.1695C14.3087 30.1696 14.5494 30.2694 14.7269 30.4469C14.9043 30.6245 15.0039 30.8652 15.0039 31.1163C15.0038 31.3673 14.904 31.608 14.7264 31.7854L12.0494 34.4614C11.872 34.6388 11.6313 34.7385 11.3804 34.7385C11.1295 34.7385 10.8889 34.6388 10.7114 34.4614L10.7124 34.4605ZM18.7745 19.3014C18.3981 19.3014 18.037 19.4509 17.7708 19.7171C17.5047 19.9833 17.3551 20.3443 17.3551 20.7208C17.3551 21.0972 17.5047 21.4583 17.7708 21.7244C18.037 21.9906 18.3981 22.1402 18.7745 22.1402C19.151 22.1402 19.512 21.9906 19.7782 21.7244C20.0444 21.4583 20.1939 21.0972 20.1939 20.7208C20.1939 20.3443 20.0444 19.9833 19.7782 19.7171C19.512 19.4509 19.151 19.3014 18.7745 19.3014ZM15.4626 20.7208C15.4626 19.8424 15.8115 19 16.4326 18.3789C17.0537 17.7578 17.8961 17.4089 18.7745 17.4089C19.6529 17.4089 20.4953 17.7578 21.1164 18.3789C21.7375 19 22.0864 19.8424 22.0864 20.7208C22.0864 21.5992 21.7375 22.4416 21.1164 23.0627C20.4953 23.6838 19.6529 24.0327 18.7745 24.0327C17.8961 24.0327 17.0537 23.6838 16.4326 23.0627C15.8115 22.4416 15.4626 21.5992 15.4626 20.7208ZM30.1296 24.979C28.4984 24.979 26.9339 25.627 25.7804 26.7805C24.627 27.9339 23.9789 29.4984 23.9789 31.1296C23.9789 32.7609 24.627 34.3254 25.7804 35.4788C26.9339 36.6323 28.4984 37.2803 30.1296 37.2803C31.7609 37.2803 33.3253 36.6323 34.4788 35.4788C35.6323 34.3254 36.2803 32.7609 36.2803 31.1296C36.2803 29.4984 35.6323 27.9339 34.4788 26.7805C33.3253 25.627 31.7609 24.979 30.1296 24.979ZM22.0864 31.1296C22.0864 28.9965 22.9338 26.9506 24.4422 25.4422C25.9506 23.9338 27.9964 23.0864 30.1296 23.0864C32.2628 23.0864 34.3086 23.9338 35.817 25.4422C37.3254 26.9506 38.1728 28.9965 38.1728 31.1296C38.1728 33.2628 37.3254 35.3087 35.817 36.8171C34.3086 38.3255 32.2628 39.1729 30.1296 39.1729C27.9964 39.1729 25.9506 38.3255 24.4422 36.8171C22.9338 35.3087 22.0864 33.2628 22.0864 31.1296Z" fill="url(#paint5_linear_73_229)"/>
<path fill-rule="evenodd" clip-rule="evenodd" d="M34.6651 35.6651C34.8425 35.4877 35.0832 35.388 35.3341 35.388C35.585 35.388 35.8256 35.4877 36.0031 35.6651L40.7344 40.3964C40.9068 40.5748 41.0021 40.8138 41 41.062C40.9978 41.3101 40.8983 41.5474 40.7229 41.7228C40.5474 41.8983 40.3101 41.9978 40.062 42C39.8139 42.0021 39.5749 41.9067 39.3964 41.7344L34.6651 37.0031C34.4877 36.8256 34.388 36.585 34.388 36.3341C34.388 36.0831 34.4877 35.8425 34.6651 35.6651ZM22.0864 13.6238C16.8603 13.6238 12.6238 17.8602 12.6238 23.0864C12.6238 27.7231 15.9604 31.5838 20.3643 32.3929C20.4883 32.4133 20.607 32.4582 20.7135 32.525C20.82 32.5917 20.9121 32.6791 20.9845 32.7819C21.0569 32.8847 21.108 33.0008 21.135 33.1236C21.162 33.2464 21.1642 33.3733 21.1416 33.497C21.1189 33.6206 21.0719 33.7385 21.0032 33.8438C20.9345 33.9491 20.8455 34.0396 20.7414 34.1101C20.6373 34.1806 20.5203 34.2296 20.397 34.2544C20.2738 34.2791 20.1468 34.279 20.0236 34.2542C14.7359 33.2833 10.7313 28.6533 10.7313 23.0864C10.7313 16.8155 15.8156 11.7313 22.0864 11.7313C27.6533 11.7313 32.2833 15.7368 33.2542 21.0236C33.2944 21.2683 33.237 21.519 33.0942 21.7218C32.9514 21.9246 32.7348 22.0632 32.4908 22.1078C32.2469 22.1525 31.9952 22.0996 31.7898 21.9605C31.5845 21.8214 31.442 21.6073 31.3929 21.3642C30.5839 16.9613 26.7241 13.6238 22.0864 13.6238Z" fill="#E73567"/>
<path fill-rule="evenodd" clip-rule="evenodd" d="M34.6651 35.6651C34.8425 35.4877 35.0832 35.388 35.3341 35.388C35.585 35.388 35.8256 35.4877 36.0031 35.6651L40.7344 40.3964C40.9068 40.5748 41.0021 40.8138 41 41.062C40.9978 41.3101 40.8983 41.5474 40.7229 41.7228C40.5474 41.8983 40.3101 41.9978 40.062 42C39.8139 42.0021 39.5749 41.9067 39.3964 41.7344L34.6651 37.0031C34.4877 36.8256 34.388 36.585 34.388 36.3341C34.388 36.0831 34.4877 35.8425 34.6651 35.6651ZM22.0864 13.6238C16.8603 13.6238 12.6238 17.8602 12.6238 23.0864C12.6238 27.7231 15.9604 31.5838 20.3643 32.3929C20.4883 32.4133 20.607 32.4582 20.7135 32.525C20.82 32.5917 20.9121 32.6791 20.9845 32.7819C21.0569 32.8847 21.108 33.0008 21.135 33.1236C21.162 33.2464 21.1642 33.3733 21.1416 33.497C21.1189 33.6206 21.0719 33.7385 21.0032 33.8438C20.9345 33.9491 20.8455 34.0396 20.7414 34.1101C20.6373 34.1806 20.5203 34.2296 20.397 34.2544C20.2738 34.2791 20.1468 34.279 20.0236 34.2542C14.7359 33.2833 10.7313 28.6533 10.7313 23.0864C10.7313 16.8155 15.8156 11.7313 22.0864 11.7313C27.6533 11.7313 32.2833 15.7368 33.2542 21.0236C33.2944 21.2683 33.237 21.519 33.0942 21.7218C32.9514 21.9246 32.7348 22.0632 32.4908 22.1078C32.2469 22.1525 31.9952 22.0996 31.7898 21.9605C31.5845 21.8214 31.442 21.6073 31.3929 21.3642C30.5839 16.9613 26.7241 13.6238 22.0864 13.6238Z" fill="url(#paint6_linear_73_229)"/>
<defs>
<linearGradient id="paint0_linear_73_229" x1="24.9252" y1="7.92841" x2="19.2477" y2="7.92841" gradientUnits="userSpaceOnUse">
<stop stop-color="#F9B956"/>
<stop offset="1" stop-color="#F9B956" stop-opacity="0"/>
</linearGradient>
<linearGradient id="paint1_linear_73_229" x1="23.0327" y1="16.2841" x2="6" y2="16.2841" gradientUnits="userSpaceOnUse">
<stop stop-color="#F9B956"/>
<stop offset="1" stop-color="#F9B956" stop-opacity="0"/>
</linearGradient>
<linearGradient id="paint2_linear_73_229" x1="35.0769" y1="16.9328" x2="6" y2="16.9328" gradientUnits="userSpaceOnUse">
<stop stop-color="#F9B956"/>
<stop offset="1" stop-color="#F9B956" stop-opacity="0"/>
</linearGradient>
<linearGradient id="paint3_linear_73_229" x1="33.7371" y1="12.9884" x2="9.09607" y2="12.9884" gradientUnits="userSpaceOnUse">
<stop stop-color="#F9B956"/>
<stop offset="1" stop-color="#F9B956" stop-opacity="0"/>
</linearGradient>
<linearGradient id="paint4_linear_73_229" x1="14.992" y1="23.5239" x2="9.10779" y2="23.5239" gradientUnits="userSpaceOnUse">
<stop stop-color="#F9B956"/>
<stop offset="1" stop-color="#F9B956" stop-opacity="0"/>
</linearGradient>
<linearGradient id="paint5_linear_73_229" x1="38.1728" y1="28.0855" x2="10.4358" y2="28.0855" gradientUnits="userSpaceOnUse">
<stop stop-color="#F9B956"/>
<stop offset="1" stop-color="#F9B956" stop-opacity="0"/>
</linearGradient>
<linearGradient id="paint6_linear_73_229" x1="41" y1="26.5801" x2="10.7313" y2="26.5801" gradientUnits="userSpaceOnUse">
<stop stop-color="#F9B956"/>
<stop offset="1" stop-color="#F9B956" stop-opacity="0"/>
</linearGradient>
</defs>
</svg>
