<svg width="35" height="35" viewBox="0 0 35 35" fill="none" xmlns="http://www.w3.org/2000/svg">
<path fill-rule="evenodd" clip-rule="evenodd" d="M13.2476 0.94626C13.2476 0.695296 13.3473 0.454612 13.5247 0.277153C13.7022 0.0996952 13.9429 0 14.1938 0H17.9789C18.2298 0 18.4705 0.0996952 18.648 0.277153C18.8254 0.454612 18.9251 0.695296 18.9251 0.94626C18.9251 1.19722 18.8254 1.43791 18.648 1.61537C18.4705 1.79283 18.2298 1.89252 17.9789 1.89252H14.1938C13.9429 1.89252 13.7022 1.79283 13.5247 1.61537C13.3473 1.43791 13.2476 1.19722 13.2476 0.94626Z" fill="#E73567"/>
<path fill-rule="evenodd" clip-rule="evenodd" d="M13.2476 0.94626C13.2476 0.695296 13.3473 0.454612 13.5247 0.277153C13.7022 0.0996952 13.9429 0 14.1938 0H17.9789C18.2298 0 18.4705 0.0996952 18.648 0.277153C18.8254 0.454612 18.9251 0.695296 18.9251 0.94626C18.9251 1.19722 18.8254 1.43791 18.648 1.61537C18.4705 1.79283 18.2298 1.89252 17.9789 1.89252H14.1938C13.9429 1.89252 13.7022 1.79283 13.5247 1.61537C13.3473 1.43791 13.2476 1.19722 13.2476 0.94626Z" fill="url(#paint0_linear_14_13)"/>
<path fill-rule="evenodd" clip-rule="evenodd" d="M16.0864 0C16.3374 0 16.5781 0.0996952 16.7555 0.277153C16.933 0.454612 17.0327 0.695296 17.0327 0.94626V4.7313C17.0327 4.98226 16.933 5.22295 16.7555 5.40041C16.5781 5.57787 16.3374 5.67756 16.0864 5.67756C15.8355 5.67756 15.5948 5.57787 15.4173 5.40041C15.2399 5.22295 15.1402 4.98226 15.1402 4.7313V0.94626C15.1402 0.695296 15.2399 0.454612 15.4173 0.277153C15.5948 0.0996952 15.8355 0 16.0864 0ZM0.94626 13.2476C1.19722 13.2476 1.43791 13.3473 1.61537 13.5248C1.79283 13.7023 1.89252 13.9429 1.89252 14.1939V17.9789C1.89252 18.2299 1.79283 18.4706 1.61537 18.6481C1.43791 18.8255 1.19722 18.9252 0.94626 18.9252C0.695296 18.9252 0.454612 18.8255 0.277153 18.6481C0.0996952 18.4706 0 18.2299 0 17.9789V14.1939C0 13.9429 0.0996952 13.7023 0.277153 13.5248C0.454612 13.3473 0.695296 13.2476 0.94626 13.2476Z" fill="#E73567"/>
<path fill-rule="evenodd" clip-rule="evenodd" d="M16.0864 0C16.3374 0 16.5781 0.0996952 16.7555 0.277153C16.933 0.454612 17.0327 0.695296 17.0327 0.94626V4.7313C17.0327 4.98226 16.933 5.22295 16.7555 5.40041C16.5781 5.57787 16.3374 5.67756 16.0864 5.67756C15.8355 5.67756 15.5948 5.57787 15.4173 5.40041C15.2399 5.22295 15.1402 4.98226 15.1402 4.7313V0.94626C15.1402 0.695296 15.2399 0.454612 15.4173 0.277153C15.5948 0.0996952 15.8355 0 16.0864 0ZM0.94626 13.2476C1.19722 13.2476 1.43791 13.3473 1.61537 13.5248C1.79283 13.7023 1.89252 13.9429 1.89252 14.1939V17.9789C1.89252 18.2299 1.79283 18.4706 1.61537 18.6481C1.43791 18.8255 1.19722 18.9252 0.94626 18.9252C0.695296 18.9252 0.454612 18.8255 0.277153 18.6481C0.0996952 18.4706 0 18.2299 0 17.9789V14.1939C0 13.9429 0.0996952 13.7023 0.277153 13.5248C0.454612 13.3473 0.695296 13.2476 0.94626 13.2476Z" fill="url(#paint1_linear_14_13)"/>
<path fill-rule="evenodd" clip-rule="evenodd" d="M0 16.0864C0 15.8355 0.0996952 15.5948 0.277153 15.4173C0.454612 15.2399 0.695296 15.1402 0.94626 15.1402H4.7313C4.98226 15.1402 5.22295 15.2399 5.40041 15.4173C5.57787 15.5948 5.67756 15.8355 5.67756 16.0864C5.67756 16.3374 5.57787 16.5781 5.40041 16.7555C5.22295 16.933 4.98226 17.0327 4.7313 17.0327H0.94626C0.695296 17.0327 0.454612 16.933 0.277153 16.7555C0.0996952 16.5781 0 16.3374 0 16.0864ZM24.7844 3.37343C24.8723 3.28545 24.9767 3.21565 25.0916 3.16803C25.2064 3.12041 25.3296 3.0959 25.4539 3.0959C25.5783 3.0959 25.7014 3.12041 25.8163 3.16803C25.9312 3.21565 26.0355 3.28545 26.1234 3.37343L28.7994 6.04945C28.977 6.22688 29.0768 6.46758 29.0769 6.7186C29.077 6.96961 28.9773 7.21038 28.7999 7.38794C28.6225 7.56549 28.3818 7.66529 28.1308 7.66538C27.8797 7.66547 27.639 7.56584 27.4614 7.38841L24.7844 4.71144C24.6071 4.53399 24.5074 4.29335 24.5074 4.04243C24.5074 3.79152 24.6071 3.55088 24.7844 3.37343Z" fill="#E73567"/>
<path fill-rule="evenodd" clip-rule="evenodd" d="M0 16.0864C0 15.8355 0.0996952 15.5948 0.277153 15.4173C0.454612 15.2399 0.695296 15.1402 0.94626 15.1402H4.7313C4.98226 15.1402 5.22295 15.2399 5.40041 15.4173C5.57787 15.5948 5.67756 15.8355 5.67756 16.0864C5.67756 16.3374 5.57787 16.5781 5.40041 16.7555C5.22295 16.933 4.98226 17.0327 4.7313 17.0327H0.94626C0.695296 17.0327 0.454612 16.933 0.277153 16.7555C0.0996952 16.5781 0 16.3374 0 16.0864ZM24.7844 3.37343C24.8723 3.28545 24.9767 3.21565 25.0916 3.16803C25.2064 3.12041 25.3296 3.0959 25.4539 3.0959C25.5783 3.0959 25.7014 3.12041 25.8163 3.16803C25.9312 3.21565 26.0355 3.28545 26.1234 3.37343L28.7994 6.04945C28.977 6.22688 29.0768 6.46758 29.0769 6.7186C29.077 6.96961 28.9773 7.21038 28.7999 7.38794C28.6225 7.56549 28.3818 7.66529 28.1308 7.66538C27.8797 7.66547 27.639 7.56584 27.4614 7.38841L24.7844 4.71144C24.6071 4.53399 24.5074 4.29335 24.5074 4.04243C24.5074 3.79152 24.6071 3.55088 24.7844 3.37343Z" fill="url(#paint2_linear_14_13)"/>
<path fill-rule="evenodd" clip-rule="evenodd" d="M27.4604 4.71238C27.6376 4.8898 27.737 5.13024 27.737 5.38092C27.737 5.6316 27.6376 5.87204 27.4604 6.04945L24.7844 8.72642C24.606 8.89879 24.3669 8.99417 24.1188 8.99201C23.8707 8.98986 23.6334 8.89034 23.4579 8.71489C23.2825 8.53945 23.183 8.30212 23.1808 8.05401C23.1787 7.8059 23.274 7.56688 23.4464 7.38841L26.1234 4.71144C26.3008 4.53404 26.5415 4.43439 26.7924 4.43439C27.0433 4.43439 27.2839 4.53404 27.4614 4.71144L27.4604 4.71238ZM7.38838 3.37343C7.56577 3.55088 7.66543 3.79152 7.66543 4.04243C7.66543 4.29335 7.56577 4.53399 7.38838 4.71144L4.71141 7.38841C4.53385 7.56584 4.29308 7.66547 4.04206 7.66538C3.79105 7.66529 3.55035 7.56549 3.37292 7.38794C3.19549 7.21038 3.09586 6.96961 3.09595 6.7186C3.09604 6.46758 3.19584 6.22688 3.37339 6.04945L6.04942 3.37343C6.1373 3.28545 6.24166 3.21565 6.35654 3.16803C6.47141 3.12041 6.59454 3.0959 6.7189 3.0959C6.84325 3.0959 6.96638 3.12041 7.08126 3.16803C7.19613 3.21565 7.30049 3.28545 7.38838 3.37343Z" fill="#E73567"/>
<path fill-rule="evenodd" clip-rule="evenodd" d="M27.4604 4.71238C27.6376 4.8898 27.737 5.13024 27.737 5.38092C27.737 5.6316 27.6376 5.87204 27.4604 6.04945L24.7844 8.72642C24.606 8.89879 24.3669 8.99417 24.1188 8.99201C23.8707 8.98986 23.6334 8.89034 23.4579 8.71489C23.2825 8.53945 23.183 8.30212 23.1808 8.05401C23.1787 7.8059 23.274 7.56688 23.4464 7.38841L26.1234 4.71144C26.3008 4.53404 26.5415 4.43439 26.7924 4.43439C27.0433 4.43439 27.2839 4.53404 27.4614 4.71144L27.4604 4.71238ZM7.38838 3.37343C7.56577 3.55088 7.66543 3.79152 7.66543 4.04243C7.66543 4.29335 7.56577 4.53399 7.38838 4.71144L4.71141 7.38841C4.53385 7.56584 4.29308 7.66547 4.04206 7.66538C3.79105 7.66529 3.55035 7.56549 3.37292 7.38794C3.19549 7.21038 3.09586 6.96961 3.09595 6.7186C3.09604 6.46758 3.19584 6.22688 3.37339 6.04945L6.04942 3.37343C6.1373 3.28545 6.24166 3.21565 6.35654 3.16803C6.47141 3.12041 6.59454 3.0959 6.7189 3.0959C6.84325 3.0959 6.96638 3.12041 7.08126 3.16803C7.19613 3.21565 7.30049 3.28545 7.38838 3.37343Z" fill="url(#paint3_linear_14_13)"/>
<path fill-rule="evenodd" clip-rule="evenodd" d="M4.71249 4.71237C4.88991 4.53526 5.13035 4.43579 5.38103 4.43579C5.63171 4.43579 5.87215 4.53526 6.04956 4.71237L8.72653 7.38839C8.8989 7.56686 8.99428 7.80589 8.99212 8.054C8.98997 8.3021 8.89045 8.53944 8.715 8.71488C8.53956 8.89032 8.30223 8.98984 8.05412 8.992C7.80601 8.99415 7.56699 8.89878 7.38852 8.72641L4.71155 6.04944C4.53415 5.87199 4.4345 5.63134 4.4345 5.38043C4.4345 5.12952 4.53415 4.88887 4.71155 4.71142L4.71249 4.71237ZM7.38852 28.7994C7.30064 28.8874 7.19627 28.9572 7.0814 29.0048C6.96653 29.0524 6.84339 29.0769 6.71904 29.0769C6.59469 29.0769 6.47155 29.0524 6.35668 29.0048C6.2418 28.9572 6.13744 28.8874 6.04956 28.7994L3.37354 26.1234C3.20117 25.9449 3.10579 25.7059 3.10795 25.4578C3.1101 25.2097 3.20962 24.9724 3.38506 24.7969C3.56051 24.6215 3.79784 24.522 4.04595 24.5198C4.29405 24.5176 4.53308 24.613 4.71155 24.7854L7.38852 27.4614C7.56591 27.6389 7.66557 27.8795 7.66557 28.1304C7.66557 28.3813 7.56591 28.622 7.38852 28.7994Z" fill="#E73567"/>
<path fill-rule="evenodd" clip-rule="evenodd" d="M4.71249 4.71237C4.88991 4.53526 5.13035 4.43579 5.38103 4.43579C5.63171 4.43579 5.87215 4.53526 6.04956 4.71237L8.72653 7.38839C8.8989 7.56686 8.99428 7.80589 8.99212 8.054C8.98997 8.3021 8.89045 8.53944 8.715 8.71488C8.53956 8.89032 8.30223 8.98984 8.05412 8.992C7.80601 8.99415 7.56699 8.89878 7.38852 8.72641L4.71155 6.04944C4.53415 5.87199 4.4345 5.63134 4.4345 5.38043C4.4345 5.12952 4.53415 4.88887 4.71155 4.71142L4.71249 4.71237ZM7.38852 28.7994C7.30064 28.8874 7.19627 28.9572 7.0814 29.0048C6.96653 29.0524 6.84339 29.0769 6.71904 29.0769C6.59469 29.0769 6.47155 29.0524 6.35668 29.0048C6.2418 28.9572 6.13744 28.8874 6.04956 28.7994L3.37354 26.1234C3.20117 25.9449 3.10579 25.7059 3.10795 25.4578C3.1101 25.2097 3.20962 24.9724 3.38506 24.7969C3.56051 24.6215 3.79784 24.522 4.04595 24.5198C4.29405 24.5176 4.53308 24.613 4.71155 24.7854L7.38852 27.4614C7.56591 27.6389 7.66557 27.8795 7.66557 28.1304C7.66557 28.3813 7.56591 28.622 7.38852 28.7994Z" fill="url(#paint4_linear_14_13)"/>
<path fill-rule="evenodd" clip-rule="evenodd" d="M4.71237 27.4605C4.53526 27.2831 4.43579 27.0426 4.43579 26.7919C4.43579 26.5413 4.53526 26.3008 4.71237 26.1234L7.38839 23.4464C7.56595 23.269 7.80672 23.1694 8.05773 23.1695C8.30875 23.1695 8.54945 23.2693 8.72688 23.4469C8.90431 23.6245 9.00394 23.8652 9.00385 24.1162C9.00376 24.3673 8.90396 24.608 8.72641 24.7854L6.04944 27.4614C5.87199 27.6388 5.63134 27.7385 5.38043 27.7385C5.12952 27.7385 4.88887 27.6388 4.71142 27.4614L4.71237 27.4605ZM12.7745 12.3014C12.3981 12.3014 12.037 12.4509 11.7708 12.7171C11.5047 12.9833 11.3551 13.3443 11.3551 13.7208C11.3551 14.0972 11.5047 14.4582 11.7708 14.7244C12.037 14.9906 12.3981 15.1402 12.7745 15.1402C13.151 15.1402 13.512 14.9906 13.7782 14.7244C14.0444 14.4582 14.1939 14.0972 14.1939 13.7208C14.1939 13.3443 14.0444 12.9833 13.7782 12.7171C13.512 12.4509 13.151 12.3014 12.7745 12.3014ZM9.4626 13.7208C9.4626 12.8424 9.81153 12 10.4326 11.3789C11.0537 10.7578 11.8961 10.4089 12.7745 10.4089C13.6529 10.4089 14.4953 10.7578 15.1164 11.3789C15.7375 12 16.0864 12.8424 16.0864 13.7208C16.0864 14.5991 15.7375 15.4415 15.1164 16.0626C14.4953 16.6837 13.6529 17.0327 12.7745 17.0327C11.8961 17.0327 11.0537 16.6837 10.4326 16.0626C9.81153 15.4415 9.4626 14.5991 9.4626 13.7208ZM24.1296 17.9789C22.4984 17.9789 20.9339 18.627 19.7804 19.7804C18.627 20.9339 17.9789 22.4984 17.9789 24.1296C17.9789 25.7609 18.627 27.3253 19.7804 28.4788C20.9339 29.6323 22.4984 30.2803 24.1296 30.2803C25.7609 30.2803 27.3253 29.6323 28.4788 28.4788C29.6323 27.3253 30.2803 25.7609 30.2803 24.1296C30.2803 22.4984 29.6323 20.9339 28.4788 19.7804C27.3253 18.627 25.7609 17.9789 24.1296 17.9789ZM16.0864 24.1296C16.0864 21.9964 16.9338 19.9506 18.4422 18.4422C19.9506 16.9338 21.9964 16.0864 24.1296 16.0864C26.2628 16.0864 28.3086 16.9338 29.817 18.4422C31.3254 19.9506 32.1728 21.9964 32.1728 24.1296C32.1728 26.2628 31.3254 28.3086 29.817 29.817C28.3086 31.3254 26.2628 32.1728 24.1296 32.1728C21.9964 32.1728 19.9506 31.3254 18.4422 29.817C16.9338 28.3086 16.0864 26.2628 16.0864 24.1296Z" fill="#E73567"/>
<path fill-rule="evenodd" clip-rule="evenodd" d="M4.71237 27.4605C4.53526 27.2831 4.43579 27.0426 4.43579 26.7919C4.43579 26.5413 4.53526 26.3008 4.71237 26.1234L7.38839 23.4464C7.56595 23.269 7.80672 23.1694 8.05773 23.1695C8.30875 23.1695 8.54945 23.2693 8.72688 23.4469C8.90431 23.6245 9.00394 23.8652 9.00385 24.1162C9.00376 24.3673 8.90396 24.608 8.72641 24.7854L6.04944 27.4614C5.87199 27.6388 5.63134 27.7385 5.38043 27.7385C5.12952 27.7385 4.88887 27.6388 4.71142 27.4614L4.71237 27.4605ZM12.7745 12.3014C12.3981 12.3014 12.037 12.4509 11.7708 12.7171C11.5047 12.9833 11.3551 13.3443 11.3551 13.7208C11.3551 14.0972 11.5047 14.4582 11.7708 14.7244C12.037 14.9906 12.3981 15.1402 12.7745 15.1402C13.151 15.1402 13.512 14.9906 13.7782 14.7244C14.0444 14.4582 14.1939 14.0972 14.1939 13.7208C14.1939 13.3443 14.0444 12.9833 13.7782 12.7171C13.512 12.4509 13.151 12.3014 12.7745 12.3014ZM9.4626 13.7208C9.4626 12.8424 9.81153 12 10.4326 11.3789C11.0537 10.7578 11.8961 10.4089 12.7745 10.4089C13.6529 10.4089 14.4953 10.7578 15.1164 11.3789C15.7375 12 16.0864 12.8424 16.0864 13.7208C16.0864 14.5991 15.7375 15.4415 15.1164 16.0626C14.4953 16.6837 13.6529 17.0327 12.7745 17.0327C11.8961 17.0327 11.0537 16.6837 10.4326 16.0626C9.81153 15.4415 9.4626 14.5991 9.4626 13.7208ZM24.1296 17.9789C22.4984 17.9789 20.9339 18.627 19.7804 19.7804C18.627 20.9339 17.9789 22.4984 17.9789 24.1296C17.9789 25.7609 18.627 27.3253 19.7804 28.4788C20.9339 29.6323 22.4984 30.2803 24.1296 30.2803C25.7609 30.2803 27.3253 29.6323 28.4788 28.4788C29.6323 27.3253 30.2803 25.7609 30.2803 24.1296C30.2803 22.4984 29.6323 20.9339 28.4788 19.7804C27.3253 18.627 25.7609 17.9789 24.1296 17.9789ZM16.0864 24.1296C16.0864 21.9964 16.9338 19.9506 18.4422 18.4422C19.9506 16.9338 21.9964 16.0864 24.1296 16.0864C26.2628 16.0864 28.3086 16.9338 29.817 18.4422C31.3254 19.9506 32.1728 21.9964 32.1728 24.1296C32.1728 26.2628 31.3254 28.3086 29.817 29.817C28.3086 31.3254 26.2628 32.1728 24.1296 32.1728C21.9964 32.1728 19.9506 31.3254 18.4422 29.817C16.9338 28.3086 16.0864 26.2628 16.0864 24.1296Z" fill="url(#paint5_linear_14_13)"/>
<path fill-rule="evenodd" clip-rule="evenodd" d="M28.665 28.6651C28.8424 28.4877 29.0831 28.388 29.334 28.388C29.5849 28.388 29.8255 28.4877 30.003 28.6651L34.7343 33.3964C34.9066 33.5748 35.002 33.8139 34.9999 34.062C34.9977 34.3101 34.8982 34.5474 34.7227 34.7229C34.5473 34.8983 34.31 34.9978 34.0619 35C33.8138 35.0021 33.5747 34.9067 33.3963 34.7344L28.665 30.0031C28.4876 29.8256 28.3879 29.585 28.3879 29.3341C28.3879 29.0832 28.4876 28.8425 28.665 28.6651ZM16.0863 6.62383C10.8601 6.62383 6.62372 10.8602 6.62372 16.0864C6.62372 20.7231 9.96024 24.5838 14.3641 25.3929C14.4882 25.4133 14.6069 25.4582 14.7134 25.525C14.8199 25.5918 14.912 25.6791 14.9844 25.7819C15.0568 25.8847 15.1079 26.0009 15.1349 26.1236C15.1619 26.2464 15.1641 26.3733 15.1415 26.497C15.1188 26.6206 15.0718 26.7385 15.0031 26.8438C14.9344 26.9491 14.8454 27.0396 14.7413 27.1101C14.6372 27.1806 14.5201 27.2296 14.3969 27.2544C14.2736 27.2791 14.1467 27.2791 14.0235 27.2542C8.73577 26.2833 4.7312 21.6533 4.7312 16.0864C4.7312 9.81556 9.81546 4.73131 16.0863 4.73131C21.6532 4.73131 26.2832 8.73683 27.2541 14.0236C27.2943 14.2683 27.2369 14.519 27.0941 14.7218C26.9513 14.9246 26.7347 15.0632 26.4907 15.1079C26.2468 15.1525 25.995 15.0996 25.7897 14.9605C25.5844 14.8215 25.4418 14.6073 25.3928 14.3642C24.5837 9.96129 20.7239 6.62383 16.0863 6.62383Z" fill="#E73567"/>
<path fill-rule="evenodd" clip-rule="evenodd" d="M28.665 28.6651C28.8424 28.4877 29.0831 28.388 29.334 28.388C29.5849 28.388 29.8255 28.4877 30.003 28.6651L34.7343 33.3964C34.9066 33.5748 35.002 33.8139 34.9999 34.062C34.9977 34.3101 34.8982 34.5474 34.7227 34.7229C34.5473 34.8983 34.31 34.9978 34.0619 35C33.8138 35.0021 33.5747 34.9067 33.3963 34.7344L28.665 30.0031C28.4876 29.8256 28.3879 29.585 28.3879 29.3341C28.3879 29.0832 28.4876 28.8425 28.665 28.6651ZM16.0863 6.62383C10.8601 6.62383 6.62372 10.8602 6.62372 16.0864C6.62372 20.7231 9.96024 24.5838 14.3641 25.3929C14.4882 25.4133 14.6069 25.4582 14.7134 25.525C14.8199 25.5918 14.912 25.6791 14.9844 25.7819C15.0568 25.8847 15.1079 26.0009 15.1349 26.1236C15.1619 26.2464 15.1641 26.3733 15.1415 26.497C15.1188 26.6206 15.0718 26.7385 15.0031 26.8438C14.9344 26.9491 14.8454 27.0396 14.7413 27.1101C14.6372 27.1806 14.5201 27.2296 14.3969 27.2544C14.2736 27.2791 14.1467 27.2791 14.0235 27.2542C8.73577 26.2833 4.7312 21.6533 4.7312 16.0864C4.7312 9.81556 9.81546 4.73131 16.0863 4.73131C21.6532 4.73131 26.2832 8.73683 27.2541 14.0236C27.2943 14.2683 27.2369 14.519 27.0941 14.7218C26.9513 14.9246 26.7347 15.0632 26.4907 15.1079C26.2468 15.1525 25.995 15.0996 25.7897 14.9605C25.5844 14.8215 25.4418 14.6073 25.3928 14.3642C24.5837 9.96129 20.7239 6.62383 16.0863 6.62383Z" fill="url(#paint6_linear_14_13)"/>
<defs>
<linearGradient id="paint0_linear_14_13" x1="18.9251" y1="0.928406" x2="13.2476" y2="0.928406" gradientUnits="userSpaceOnUse">
<stop stop-color="#F9B956"/>
<stop offset="1" stop-color="#F9B956" stop-opacity="0"/>
</linearGradient>
<linearGradient id="paint1_linear_14_13" x1="17.0327" y1="9.28406" x2="-3.38067e-07" y2="9.28406" gradientUnits="userSpaceOnUse">
<stop stop-color="#F9B956"/>
<stop offset="1" stop-color="#F9B956" stop-opacity="0"/>
</linearGradient>
<linearGradient id="paint2_linear_14_13" x1="29.0769" y1="9.93282" x2="-5.77121e-07" y2="9.93282" gradientUnits="userSpaceOnUse">
<stop stop-color="#F9B956"/>
<stop offset="1" stop-color="#F9B956" stop-opacity="0"/>
</linearGradient>
<linearGradient id="paint3_linear_14_13" x1="27.737" y1="5.98835" x2="3.09595" y2="5.98835" gradientUnits="userSpaceOnUse">
<stop stop-color="#F9B956"/>
<stop offset="1" stop-color="#F9B956" stop-opacity="0"/>
</linearGradient>
<linearGradient id="paint4_linear_14_13" x1="8.99216" y1="16.5239" x2="3.10791" y2="16.5239" gradientUnits="userSpaceOnUse">
<stop stop-color="#F9B956"/>
<stop offset="1" stop-color="#F9B956" stop-opacity="0"/>
</linearGradient>
<linearGradient id="paint5_linear_14_13" x1="32.1728" y1="21.0855" x2="4.43579" y2="21.0855" gradientUnits="userSpaceOnUse">
<stop stop-color="#F9B956"/>
<stop offset="1" stop-color="#F9B956" stop-opacity="0"/>
</linearGradient>
<linearGradient id="paint6_linear_14_13" x1="34.9999" y1="19.5801" x2="4.7312" y2="19.5801" gradientUnits="userSpaceOnUse">
<stop stop-color="#F9B956"/>
<stop offset="1" stop-color="#F9B956" stop-opacity="0"/>
</linearGradient>
</defs>
</svg>
